<?xml version="1.0" encoding="utf-8"?>
<!-- Generator: Adobe Illustrator 16.0.4, SVG Export Plug-In . SVG Version: 6.00 Build 0)  -->
<!DOCTYPE svg PUBLIC "-//W3C//DTD SVG 1.1//EN" "http://www.w3.org/Graphics/SVG/1.1/DTD/svg11.dtd">
<svg version="1.1" id="Layer_1" xmlns="http://www.w3.org/2000/svg" xmlns:xlink="http://www.w3.org/1999/xlink" x="0px" y="0px"
	 width="136px" height="136px" viewBox="0 0 136 136" enable-background="new 0 0 136 136" xml:space="preserve">
<g>
	<g>
		<path fill="#FFFFFF" d="M115.492,110.288c0,3.85-3.15,7-7,7H17.811c-3.85,0-7-3.15-7-7V41.444c0-3.85,3.15-7,7-7h90.681
			c3.85,0,7,3.15,7,7V110.288z"/>
		<path fill="none" stroke="#69B26D" stroke-width="3" stroke-miterlimit="10" d="M115.492,110.288c0,3.85-3.15,7-7,7H17.811
			c-3.85,0-7-3.15-7-7V41.444c0-3.85,3.15-7,7-7h90.681c3.85,0,7,3.15,7,7V110.288z"/>
	</g>
	<g>
		<g>
			<path fill="none" stroke="#69B26D" stroke-width="3" stroke-miterlimit="10" d="M42.909,71.536
				c-6.396,0-11.57,5.193-11.57,11.586c0,6.391,5.178,11.576,11.579,11.576h43.965c4.457,0,8.082-3.615,8.082-8.088
				c0-4.465-3.631-8.082-8.092-8.082c-0.238,0-0.494,0.012-0.733,0.033c-1.553-5.145-6.319-8.891-11.974-8.891
				c-0.171,0-0.355,0.012-0.521,0.018c-1.34-7.193-7.65-12.654-15.242-12.654c-8.218,0-14.947,6.406-15.459,14.502H42.909
				L42.909,71.536z"/>
		</g>
	</g>
	<g>
		
			<rect x="68.129" y="37.457" transform="matrix(-0.7071 0.7071 -0.7071 -0.7071 203.0727 14.6969)" fill="#FFFFFF" width="60.727" height="23.901"/>
		<polygon fill="#FFFFFF" points="71.477,53.97 93.93,76.423 64.377,83.522 		"/>
		<polygon fill="#FFFFFF" stroke="#69B26D" stroke-width="3" stroke-miterlimit="10" points="74.253,63.817 84.082,73.647 
			71.146,76.755 		"/>
		<path fill="#FFFFFF" d="M105.775,25.224l6.365-6.365c1.385-1.385,3.277-2.146,5.33-2.146c2.438,0,4.912,1.076,6.79,2.955
			l3.973,3.973c1.518,1.516,2.528,3.447,2.847,5.438c0.406,2.543-0.338,4.98-2.04,6.682l-6.364,6.365L105.775,25.224z"/>
		<path fill="#FFFFFF" stroke="#69B26D" stroke-width="3" stroke-miterlimit="10" d="M124.697,27.175l-3.973-3.973
			c-1.609-1.611-3.883-1.975-5.049-0.807l-2.829,2.828l9.829,9.828l2.828-2.828C126.672,31.058,126.309,28.784,124.697,27.175z"/>
		
			<rect x="91.514" y="27.144" transform="matrix(0.7071 0.7071 -0.7071 0.7071 63.7897 -55.1437)" fill="#FFFFFF" stroke="#69B26D" stroke-width="3" stroke-miterlimit="10" width="13.9" height="44.58"/>
	</g>
</g>
</svg>
