<?xml version="1.0" encoding="utf-8"?>
<svg version="1.1" id="Layer_1" xmlns="http://www.w3.org/2000/svg" xmlns:xlink="http://www.w3.org/1999/xlink" x="0px" y="0px"
	 viewBox="0 0 32 32" style="enable-background:new 0 0 32 32;" xml:space="preserve">
<style type="text/css">
	.st0{fill:#69B26D;}
</style>
<path class="st0" d="M11.1,27.1c0,0.6-0.3,0.9-0.8,0.9c-0.2,0-0.3,0-0.5-0.1l-7.3-3.7c-0.4-0.2-0.8-0.8-0.8-1.3v-18
	c0-0.5,0.3-0.8,0.6-0.8c0.1,0,0.3,0,0.4,0.1l0.3,0.1h0l8,4c0,0,0,0,0,0V27.1z M19.5,5.3L20,4.5C20.2,4.2,20.5,4,20.8,4
	c0.1,0,0.2,0,0.2,0c0.1,0,0.1,0,0.2,0.1l8.4,4.3c0,0,0,0,0,0l0,0c0,0,0,0,0,0c0,0,0.1,0.1,0,0.1l-8.4,13.8l-0.9,1.4l-5.6-10.9
	L19.5,5.3z M12.4,19.8v-8.7l6,11.7L13,20.1L12.4,19.8z M29.7,27.1c0,0.6-0.3,0.9-0.8,0.9c-0.2,0-0.5-0.1-0.7-0.2L27,27.1l-5.4-2.7
	L29.7,11V27.1z"/>
</svg>
