<?xml version="1.0" encoding="utf-8"?>
<!-- Generator: Adobe Illustrator 16.0.4, SVG Export Plug-In . SVG Version: 6.00 Build 0)  -->
<!DOCTYPE svg PUBLIC "-//W3C//DTD SVG 1.1//EN" "http://www.w3.org/Graphics/SVG/1.1/DTD/svg11.dtd">
<svg version="1.1" id="Layer_1" xmlns="http://www.w3.org/2000/svg" xmlns:xlink="http://www.w3.org/1999/xlink" x="0px" y="0px"
	 width="136px" height="136px" viewBox="0 0 136 136" enable-background="new 0 0 136 136" xml:space="preserve">
<g>
	<g>
		<path fill="#FFFFFF" d="M133,100.309c0,4.4-3.6,8-8,8H11c-4.4,0-8-3.6-8-8V25.911c0-4.4,3.6-8,8-8h114c4.4,0,8,3.6,8,8V100.309z"
			/>
		<path fill="none" stroke="#69B26D" stroke-width="2.5149" stroke-miterlimit="10" d="M133,100.309c0,4.4-3.6,8-8,8H11
			c-4.4,0-8-3.6-8-8V25.911c0-4.4,3.6-8,8-8h114c4.4,0,8,3.6,8,8V100.309z"/>
		<path fill="none" stroke="#69B26D" stroke-width="2.5149" stroke-miterlimit="10" d="M11,92.213c-1.627,0-3-1.375-3-3V25.911
			c0-1.626,1.373-3,3-3h114c1.625,0,3,1.374,3,3v63.302c0,1.625-1.375,3-3,3H11z"/>
	</g>
	<path fill="#FFFFFF" stroke="#69B26D" stroke-width="2.5149" stroke-miterlimit="10" d="M78.619,118.09
		c-2.078-3.723-6.053-6.244-10.619-6.244s-8.541,2.521-10.621,6.244H78.619z"/>
	<circle fill="none" stroke="#69B26D" stroke-width="2.5149" stroke-miterlimit="10" cx="67.999" cy="99.965" r="3.597"/>
	<polyline fill="none" stroke="#69B26D" stroke-width="2.5149" stroke-miterlimit="10" points="26.461,63.11 42.389,42.882 
		58.891,74.262 79.502,44.584 94.438,71.799 111.789,48.814 	"/>
	<circle fill="#FFFFFF" stroke="#69B26D" stroke-width="2.5149" stroke-miterlimit="10" cx="26.784" cy="62.858" r="4.286"/>
	<circle fill="#FFFFFF" stroke="#69B26D" stroke-width="2.5149" stroke-miterlimit="10" cx="42.388" cy="42.975" r="4.286"/>
	<circle fill="#FFFFFF" stroke="#69B26D" stroke-width="2.5149" stroke-miterlimit="10" cx="59.117" cy="74.262" r="4.285"/>
	<circle fill="#FFFFFF" stroke="#69B26D" stroke-width="2.5149" stroke-miterlimit="10" cx="79.069" cy="44.584" r="4.286"/>
	<circle fill="#FFFFFF" stroke="#69B26D" stroke-width="2.5149" stroke-miterlimit="10" cx="95.003" cy="72.43" r="4.286"/>
	<circle fill="#FFFFFF" stroke="#69B26D" stroke-width="2.5149" stroke-miterlimit="10" cx="111.788" cy="48.87" r="4.286"/>
</g>
</svg>
