<?xml version="1.0" encoding="utf-8"?>
<svg version="1.1" id="Layer_1" xmlns="http://www.w3.org/2000/svg" xmlns:xlink="http://www.w3.org/1999/xlink" x="0px" y="0px"
	 viewBox="0 0 32 32" style="enable-background:new 0 0 32 32;" xml:space="preserve">
<style type="text/css">
	.st0{fill:#69B26D;}
</style>
<path class="st0" d="M22.5,5.1c0-1.7-1.4-3-3-3c-1.7,0-3,1.4-3,3c0,1,0,6.3,0,7.3c0,1.7,1.4,3,3,3c1.7,0,3-1.4,3-3
	C22.5,11.4,22.5,6,22.5,5.1z M29.9,12.4c0,1.7-1.4,3-3,3c-0.8,0-3,0-3,0s0-2.1,0-3c0-1.7,1.4-3,3-3S29.9,10.7,29.9,12.4z M26.8,22.7
	c1.7,0,3-1.4,3-3c0-1.7-1.4-3-3-3c-1,0-6.3,0-7.3,0c-1.7,0-3,1.4-3,3c0,1.7,1.4,3,3,3C20.5,22.7,25.8,22.7,26.8,22.7z M19.5,30
	c-1.7,0-3-1.4-3-3c0-0.8,0-3,0-3s2.1,0,3,0c1.7,0,3,1.4,3,3C22.5,28.7,21.2,30,19.5,30z M9.1,27c0,1.7,1.4,3,3,3s3-1.4,3-3
	c0-1,0-6.3,0-7.3c0-1.7-1.4-3-3-3s-3,1.4-3,3C9.1,20.7,9.1,26,9.1,27z M1.8,19.7c0-1.7,1.4-3,3-3c0.8,0,3,0,3,0s0,2.1,0,3
	c0,1.7-1.4,3-3,3S1.8,21.4,1.8,19.7z M4.9,9.3c-1.7,0-3,1.4-3,3s1.4,3,3,3c1,0,6.3,0,7.3,0c1.7,0,3-1.4,3-3s-1.4-3-3-3
	C11.2,9.3,5.8,9.3,4.9,9.3z M12.2,2c1.7,0,3,1.4,3,3c0,0.8,0,3,0,3s-2.1,0-3,0c-1.7,0-3-1.4-3-3S10.5,2,12.2,2z"/>
</svg>
