<?xml version="1.0" encoding="utf-8"?>
<svg version="1.1" id="Layer_1" xmlns="http://www.w3.org/2000/svg" xmlns:xlink="http://www.w3.org/1999/xlink" x="0px" y="0px"
	 viewBox="0 0 50.4 50.4" style="enable-background:new 0 0 50.4 50.4;" xml:space="preserve">
<style type="text/css">
	.st0{fill:#69B26D;}
</style>
<path class="st0" d="M50.1,9.1c-1.9,0.8-3.7,1.4-5.8,1.7c2.1-1.2,3.7-3.3,4.5-5.6c-2.1,1.2-4.1,2.1-6.4,2.5
	c-2.1-2.1-4.7-3.3-7.6-3.3c-5.6,0-10.1,4.5-10.1,10.1c0,0.8,0,1.7,0.2,2.3C16.5,16.3,9.1,12.4,4.1,6.2c-1,1.4-1.4,3.3-1.4,5.2
	c0,3.5,1.9,6.6,4.5,8.5c-1.7-0.2-3.3-0.6-4.5-1.2c0,0,0,0,0,0.2c0,4.9,3.5,9.1,8,9.9c-0.8,0.2-1.6,0.4-2.7,0.4c-0.6,0-1.2,0-1.9-0.2
	c1.2,4.1,5,7,9.5,7c-3.5,2.7-7.8,4.3-12.6,4.3c-0.8,0-1.7,0-2.5-0.2c4.5,2.9,9.9,4.5,15.5,4.5c18.8,0,28.9-15.5,28.9-28.9
	c0-0.4,0-0.8,0-1.2C47,13,48.6,11.2,50.1,9.1"/>
</svg>
