<?xml version="1.0" encoding="utf-8"?>
<!-- Generator: Adobe Illustrator 16.0.0, SVG Export Plug-In . SVG Version: 6.00 Build 0)  -->
<!DOCTYPE svg PUBLIC "-//W3C//DTD SVG 1.1//EN" "http://www.w3.org/Graphics/SVG/1.1/DTD/svg11.dtd">
<svg version="1.1" id="Layer_1" xmlns="http://www.w3.org/2000/svg" xmlns:xlink="http://www.w3.org/1999/xlink" x="0px" y="0px"
	 width="1030px" height="218.441px" viewBox="0 0 1030 218.441" enable-background="new 0 0 1030 218.441" xml:space="preserve">
<rect x="274.963" y="4.559" fill="#F7F7F7" width="659.301" height="210.104"/>
<g>
	<g>
		<path fill="#808080" d="M10.906,22.321V8.813h4.758c2.036,0,3.654,0.608,4.854,1.828c1.2,1.22,1.8,2.862,1.8,4.932
			s-0.6,3.71-1.8,4.925c-1.2,1.216-2.818,1.823-4.854,1.823H10.906z M13.678,19.86h1.873c1.277,0,2.263-0.382,2.955-1.147
			c0.693-0.765,1.039-1.812,1.039-3.14c0-1.343-0.346-2.396-1.039-3.157c-0.692-0.761-1.678-1.142-2.955-1.142h-1.873V19.86z"/>
		<path fill="#808080" d="M24.966,22.321V8.813h9.177v2.461h-6.404v2.977h5.813v2.375h-5.813v3.234h6.404v2.461H24.966z"/>
		<path fill="#808080" d="M36.007,8.813h2.966l3.503,9.769l3.492-9.769h2.912l-5.083,13.508h-2.729L36.007,8.813z"/>
		<path fill="#808080" d="M51.142,22.321V8.813h9.177v2.461h-6.404v2.977h5.813v2.375h-5.813v3.234h6.404v2.461H51.142z"/>
		<path fill="#808080" d="M63.149,22.321V8.813h2.815V19.86h6.297v2.461H63.149z"/>
		<path fill="#808080" d="M73.728,15.557c0-1.34,0.269-2.537,0.806-3.598c0.537-1.06,1.291-1.887,2.262-2.479
			c0.97-0.595,2.075-0.893,3.315-0.893c1.239,0,2.344,0.298,3.313,0.893c0.97,0.595,1.724,1.423,2.262,2.485
			c0.538,1.063,0.807,2.261,0.807,3.592s-0.269,2.526-0.807,3.59c-0.539,1.062-1.294,1.892-2.268,2.491
			c-0.973,0.599-2.076,0.897-3.308,0.897s-2.335-0.299-3.31-0.896c-0.975-0.6-1.73-1.43-2.268-2.49
			C73.997,18.088,73.728,16.891,73.728,15.557z M77.559,12.331c-0.641,0.819-0.962,1.896-0.962,3.227s0.321,2.407,0.962,3.229
			c0.641,0.823,1.492,1.234,2.552,1.234c1.075,0,1.938-0.411,2.59-1.234c0.652-0.822,0.978-1.898,0.978-3.229
			c0-1.323-0.326-2.396-0.978-3.221c-0.652-0.822-1.515-1.233-2.59-1.233C79.051,11.103,78.2,11.513,77.559,12.331z"/>
		<path fill="#808080" d="M89.132,22.321V8.813h5.496c1.46,0,2.616,0.383,3.467,1.146c0.851,0.765,1.277,1.852,1.277,3.259
			c0,1.4-0.429,2.483-1.286,3.248c-0.857,0.766-2.014,1.146-3.47,1.146h-2.712v4.707L89.132,22.321L89.132,22.321z M91.904,15.24
			h2.531c0.704,0,1.241-0.184,1.61-0.552c0.37-0.367,0.555-0.856,0.555-1.47c0-0.627-0.183-1.121-0.549-1.484
			c-0.366-0.364-0.905-0.546-1.616-0.546h-2.531V15.24z"/>
	</g>
</g>
<g>
	<g>
		<path fill="#58595B" d="M327.507,102.277c-0.049,0.372-0.146,0.772-0.293,1.203c-0.146,0.431-0.384,0.832-0.711,1.203
			c-0.328,0.372-0.761,0.683-1.298,0.932c-0.538,0.25-1.218,0.374-2.04,0.374c-0.763,0-1.448-0.119-2.054-0.359
			c-0.606-0.238-1.117-0.587-1.533-1.041c-0.416-0.455-0.736-1.008-0.961-1.657c-0.226-0.65-0.337-1.388-0.337-2.208
			c0-0.91,0.1-1.681,0.301-2.312c0.2-0.631,0.455-1.154,0.763-1.57c0.309-0.415,0.653-0.74,1.034-0.976s0.75-0.408,1.108-0.521
			c0.356-0.112,0.682-0.182,0.976-0.206c0.293-0.023,0.513-0.036,0.66-0.036c0.822,0,1.497,0.106,2.024,0.321
			c0.527,0.217,0.95,0.492,1.27,0.829c0.317,0.338,0.547,0.712,0.689,1.123c0.142,0.41,0.231,0.812,0.271,1.202h-1.379
			c-0.021-0.186-0.071-0.41-0.154-0.675c-0.083-0.264-0.228-0.519-0.433-0.763s-0.491-0.452-0.858-0.623s-0.843-0.258-1.43-0.258
			c-0.646,0-1.185,0.124-1.614,0.374c-0.431,0.249-0.774,0.579-1.035,0.99c-0.26,0.411-0.444,0.88-0.558,1.408
			s-0.168,1.071-0.168,1.629c0,0.597,0.078,1.149,0.235,1.658c0.155,0.508,0.386,0.948,0.688,1.32
			c0.303,0.37,0.667,0.661,1.093,0.873c0.426,0.21,0.912,0.314,1.46,0.314c0.411,0,0.79-0.062,1.138-0.191
			c0.347-0.127,0.647-0.306,0.901-0.534c0.254-0.229,0.457-0.499,0.609-0.808c0.15-0.309,0.237-0.647,0.257-1.021h1.378V102.277z"/>
		<path fill="#58595B" d="M335.724,103.525c-0.049,0.264-0.14,0.54-0.271,0.828c-0.132,0.289-0.323,0.553-0.572,0.793
			c-0.25,0.238-0.57,0.438-0.961,0.594s-0.875,0.234-1.453,0.234c-0.616,0-1.137-0.083-1.562-0.249s-0.777-0.379-1.057-0.639
			c-0.278-0.26-0.497-0.546-0.652-0.857c-0.157-0.313-0.271-0.616-0.346-0.91c-0.073-0.293-0.117-0.561-0.132-0.8
			s-0.021-0.418-0.021-0.535c0-0.166,0.01-0.384,0.028-0.653c0.021-0.269,0.068-0.552,0.147-0.851
			c0.078-0.298,0.195-0.6,0.352-0.902s0.369-0.577,0.639-0.821c0.269-0.243,0.604-0.441,1.005-0.595
			c0.4-0.151,0.89-0.228,1.467-0.228c0.743,0,1.337,0.13,1.783,0.39c0.444,0.259,0.787,0.584,1.026,0.976
			c0.24,0.392,0.401,0.819,0.484,1.283c0.083,0.465,0.134,0.897,0.154,1.299c0,0.06,0.002,0.12,0.007,0.185
			c0.005,0.063,0.007,0.124,0.007,0.183h-5.737c0,0.323,0.044,0.651,0.133,0.983c0.088,0.333,0.225,0.634,0.41,0.901
			c0.187,0.271,0.429,0.491,0.728,0.668c0.298,0.177,0.662,0.265,1.093,0.265c0.303,0,0.577-0.041,0.822-0.125
			c0.244-0.083,0.452-0.195,0.624-0.337c0.171-0.143,0.308-0.307,0.411-0.492c0.103-0.187,0.174-0.381,0.213-0.586L335.724,103.525
			L335.724,103.525z M334.433,101.339c-0.01-0.244-0.044-0.514-0.103-0.807c-0.059-0.294-0.164-0.565-0.315-0.814
			c-0.151-0.25-0.358-0.457-0.624-0.624c-0.264-0.166-0.605-0.249-1.026-0.249c-0.471,0-0.856,0.087-1.159,0.258
			s-0.541,0.384-0.711,0.638c-0.171,0.255-0.286,0.526-0.345,0.814c-0.06,0.288-0.089,0.551-0.089,0.784H334.433z"/>
		<path fill="#58595B" d="M338.775,95.411v10.271h-1.292V95.411H338.775z"/>
		<path fill="#58595B" d="M342.179,95.411v10.271h-1.292V95.411H342.179z"/>
		<path fill="#58595B" d="M351.671,95.411c0.176,0,0.418,0.01,0.728,0.029c0.308,0.021,0.643,0.081,1.005,0.184
			c0.361,0.104,0.73,0.26,1.106,0.47c0.376,0.211,0.717,0.505,1.021,0.881c0.303,0.377,0.55,0.854,0.74,1.431
			c0.191,0.577,0.286,1.281,0.286,2.113c0,0.841-0.093,1.553-0.278,2.135c-0.187,0.582-0.431,1.062-0.733,1.444
			s-0.648,0.681-1.035,0.896c-0.386,0.215-0.779,0.374-1.181,0.477c-0.401,0.104-0.79,0.164-1.167,0.185
			c-0.377,0.02-0.711,0.029-1.005,0.029H347.9V95.411H351.671z M349.28,104.522h1.922c1.32,0,2.298-0.32,2.934-0.961
			c0.636-0.642,0.954-1.646,0.954-3.016c0-0.771-0.1-1.416-0.301-1.93c-0.2-0.514-0.464-0.922-0.792-1.225
			c-0.328-0.305-0.7-0.518-1.115-0.64s-0.844-0.184-1.284-0.184h-2.317V104.522L349.28,104.522z"/>
		<path fill="#58595B" d="M364.861,103.525c-0.05,0.264-0.141,0.54-0.271,0.828c-0.132,0.289-0.323,0.553-0.572,0.793
			c-0.25,0.238-0.569,0.438-0.961,0.594c-0.391,0.156-0.875,0.234-1.453,0.234c-0.615,0-1.137-0.083-1.562-0.249
			s-0.777-0.379-1.056-0.639c-0.279-0.26-0.497-0.546-0.653-0.857c-0.157-0.313-0.271-0.616-0.345-0.91
			c-0.074-0.293-0.118-0.561-0.132-0.8c-0.016-0.239-0.022-0.418-0.022-0.535c0-0.166,0.01-0.384,0.029-0.653
			c0.02-0.269,0.067-0.552,0.146-0.851c0.078-0.298,0.195-0.6,0.353-0.902c0.155-0.303,0.368-0.577,0.638-0.821
			c0.269-0.243,0.604-0.441,1.005-0.595c0.401-0.151,0.89-0.228,1.467-0.228c0.743,0,1.337,0.13,1.783,0.39
			c0.445,0.259,0.787,0.584,1.027,0.976c0.239,0.392,0.4,0.819,0.483,1.283c0.083,0.465,0.135,0.897,0.154,1.299
			c0,0.06,0.002,0.12,0.007,0.185c0.005,0.063,0.007,0.124,0.007,0.183h-5.736c0,0.323,0.044,0.651,0.132,0.983
			c0.088,0.333,0.225,0.634,0.411,0.901c0.186,0.271,0.428,0.491,0.727,0.668c0.298,0.177,0.662,0.265,1.093,0.265
			c0.304,0,0.577-0.041,0.822-0.125c0.244-0.083,0.452-0.195,0.624-0.337c0.171-0.143,0.308-0.307,0.411-0.492
			c0.103-0.187,0.174-0.381,0.213-0.586L364.861,103.525L364.861,103.525z M363.57,101.339c-0.011-0.244-0.044-0.514-0.104-0.807
			c-0.059-0.294-0.164-0.565-0.314-0.814c-0.152-0.25-0.359-0.457-0.624-0.624c-0.265-0.166-0.606-0.249-1.027-0.249
			c-0.47,0-0.856,0.087-1.159,0.258s-0.541,0.384-0.711,0.638c-0.171,0.255-0.286,0.526-0.345,0.814
			c-0.06,0.288-0.088,0.551-0.088,0.784H363.57z"/>
		<path fill="#58595B" d="M367.384,103.466c0.01,0.294,0.073,0.543,0.189,0.749c0.117,0.205,0.269,0.371,0.458,0.498
			c0.188,0.128,0.402,0.219,0.641,0.271c0.238,0.055,0.479,0.081,0.721,0.081c0.428,0,0.758-0.06,0.99-0.176
			c0.233-0.117,0.403-0.256,0.51-0.411c0.106-0.156,0.167-0.312,0.183-0.471c0.015-0.155,0.021-0.272,0.021-0.352
			c0-0.117-0.012-0.232-0.037-0.345c-0.023-0.112-0.09-0.222-0.196-0.323c-0.107-0.103-0.266-0.2-0.475-0.293
			s-0.493-0.185-0.853-0.271l-0.788-0.177c-0.311-0.067-0.607-0.146-0.889-0.233c-0.282-0.089-0.53-0.211-0.744-0.367
			s-0.384-0.359-0.51-0.608s-0.189-0.569-0.189-0.961c0-0.411,0.083-0.756,0.25-1.034c0.166-0.278,0.386-0.499,0.66-0.66
			c0.272-0.161,0.577-0.275,0.91-0.345c0.332-0.068,0.67-0.104,1.012-0.104c0.636,0,1.146,0.079,1.533,0.234
			c0.386,0.156,0.687,0.351,0.901,0.579c0.216,0.23,0.362,0.476,0.44,0.733c0.078,0.26,0.127,0.492,0.147,0.696h-1.232
			c-0.01-0.106-0.037-0.236-0.081-0.389c-0.044-0.15-0.128-0.298-0.251-0.439c-0.123-0.143-0.297-0.263-0.523-0.359
			c-0.226-0.097-0.525-0.146-0.898-0.146c-0.04,0-0.144,0.006-0.311,0.016s-0.341,0.052-0.522,0.125s-0.346,0.189-0.494,0.352
			s-0.221,0.39-0.221,0.684c0,0.264,0.057,0.475,0.169,0.631c0.111,0.156,0.265,0.277,0.456,0.366
			c0.19,0.089,0.412,0.158,0.662,0.213c0.25,0.054,0.508,0.109,0.772,0.169c0.382,0.088,0.736,0.179,1.061,0.271
			c0.323,0.092,0.605,0.215,0.846,0.367c0.24,0.151,0.427,0.35,0.559,0.594c0.134,0.245,0.199,0.559,0.199,0.939
			c0,0.391-0.068,0.721-0.205,0.99c-0.137,0.269-0.308,0.493-0.514,0.675c-0.206,0.181-0.434,0.32-0.683,0.418
			c-0.248,0.098-0.488,0.171-0.719,0.22c-0.229,0.049-0.43,0.078-0.601,0.088s-0.286,0.016-0.345,0.016
			c-0.558,0-1.039-0.065-1.445-0.197c-0.406-0.133-0.746-0.313-1.021-0.543c-0.273-0.23-0.479-0.496-0.615-0.8
			c-0.138-0.304-0.21-0.626-0.221-0.97H367.384z"/>
		<path fill="#58595B" d="M380.5,103.026c-0.02,0.225-0.076,0.504-0.168,0.836c-0.093,0.333-0.254,0.655-0.484,0.969
			c-0.229,0.312-0.553,0.582-0.968,0.808c-0.416,0.225-0.956,0.337-1.621,0.337c-0.127,0-0.303-0.011-0.527-0.029
			c-0.226-0.02-0.476-0.068-0.748-0.146c-0.274-0.077-0.551-0.202-0.829-0.374c-0.279-0.171-0.531-0.404-0.755-0.703
			c-0.226-0.299-0.411-0.679-0.559-1.138c-0.146-0.46-0.22-1.021-0.22-1.688c0-0.432,0.049-0.881,0.146-1.351
			c0.099-0.47,0.278-0.896,0.542-1.283c0.265-0.387,0.626-0.704,1.086-0.953c0.46-0.25,1.052-0.375,1.775-0.375
			c0.528,0,0.988,0.07,1.379,0.213c0.392,0.143,0.719,0.335,0.983,0.58c0.264,0.244,0.472,0.522,0.624,0.836
			c0.151,0.312,0.247,0.646,0.286,0.998h-1.232c-0.068-0.411-0.19-0.733-0.367-0.97c-0.176-0.233-0.367-0.404-0.572-0.514
			c-0.205-0.106-0.408-0.173-0.608-0.198c-0.201-0.022-0.354-0.036-0.462-0.036c-0.401,0-0.744,0.081-1.027,0.242
			s-0.513,0.379-0.688,0.652c-0.177,0.274-0.304,0.597-0.382,0.969s-0.117,0.769-0.117,1.188s0.044,0.82,0.132,1.203
			c0.088,0.381,0.222,0.719,0.402,1.012c0.182,0.294,0.418,0.525,0.713,0.697c0.293,0.171,0.646,0.257,1.056,0.257
			c0.362,0,0.667-0.068,0.917-0.205s0.452-0.306,0.608-0.507c0.156-0.2,0.27-0.42,0.338-0.66c0.067-0.239,0.106-0.462,0.116-0.667
			H380.5z"/>
		<path fill="#58595B" d="M386.251,98.844c-0.44,0.021-0.829,0.078-1.167,0.177c-0.338,0.098-0.626,0.25-0.866,0.455
			c-0.239,0.205-0.43,0.47-0.571,0.792c-0.143,0.322-0.228,0.719-0.257,1.188c-0.01,0.138-0.015,0.271-0.015,0.396s0,0.259,0,0.396
			v3.435h-1.292v-7.453h1.292v1.438h0.029c0.088-0.272,0.217-0.516,0.389-0.726c0.171-0.211,0.367-0.387,0.587-0.528
			c0.22-0.141,0.457-0.252,0.711-0.33s0.515-0.122,0.778-0.133l0.381-0.015L386.251,98.844L386.251,98.844z"/>
		<path fill="#58595B" d="M387.469,95.411h1.292v1.352h-1.292V95.411z M388.761,98.229v7.453h-1.292v-7.453H388.761z"/>
		<path fill="#58595B" d="M392.046,98.229v1.026h0.044c0.187-0.283,0.389-0.512,0.609-0.683c0.22-0.171,0.439-0.306,0.661-0.403
			c0.22-0.098,0.433-0.161,0.638-0.189c0.205-0.03,0.391-0.045,0.557-0.045c0.46,0,0.894,0.079,1.3,0.234
			c0.405,0.156,0.763,0.398,1.07,0.727c0.309,0.328,0.55,0.746,0.728,1.255c0.176,0.509,0.264,1.109,0.264,1.805
			c0,0.725-0.093,1.34-0.279,1.85c-0.186,0.509-0.435,0.924-0.748,1.246c-0.312,0.323-0.67,0.559-1.07,0.704
			c-0.401,0.146-0.812,0.221-1.232,0.221c-0.079,0-0.218-0.011-0.418-0.029c-0.2-0.02-0.423-0.075-0.667-0.168
			c-0.245-0.094-0.492-0.23-0.741-0.411c-0.25-0.181-0.458-0.433-0.624-0.756v3.785h-1.292V98.229H392.046z M392.046,101.984
			c0,0.577,0.074,1.062,0.22,1.452c0.147,0.392,0.335,0.71,0.565,0.954c0.229,0.243,0.479,0.418,0.748,0.521
			c0.269,0.104,0.526,0.154,0.771,0.154c0.265,0,0.525-0.052,0.785-0.154c0.26-0.102,0.494-0.272,0.705-0.514
			c0.21-0.239,0.381-0.558,0.513-0.953c0.133-0.396,0.198-0.894,0.198-1.489c0-0.959-0.196-1.717-0.587-2.273
			c-0.391-0.558-0.954-0.836-1.687-0.836c-0.167,0-0.377,0.031-0.632,0.096c-0.255,0.062-0.499,0.203-0.733,0.418
			c-0.235,0.215-0.438,0.53-0.609,0.946S392.046,101.28,392.046,101.984z"/>
		<path fill="#58595B" d="M400.072,98.229v-2.23h1.291v2.23h1.584v0.909h-1.584v4.738c0,0.138,0.002,0.268,0.007,0.39
			c0.005,0.123,0.029,0.231,0.073,0.33c0.044,0.098,0.119,0.174,0.228,0.228c0.107,0.054,0.264,0.081,0.47,0.081
			c0.138,0,0.273-0.013,0.411-0.037s0.27-0.056,0.396-0.095v0.909c-0.205,0.088-0.425,0.158-0.66,0.213
			c-0.235,0.054-0.465,0.08-0.689,0.08c-0.381,0-0.677-0.06-0.888-0.177c-0.211-0.116-0.362-0.267-0.455-0.446
			c-0.093-0.182-0.146-0.379-0.162-0.595c-0.015-0.216-0.021-0.421-0.021-0.615v-5.004h-1.335v-0.909H400.072z"/>
		<path fill="#58595B" d="M404.268,95.411h1.292v1.352h-1.292V95.411z M405.559,98.229v7.453h-1.292v-7.453H405.559z"/>
		<path fill="#58595B" d="M407.217,101.955c0-0.499,0.063-0.988,0.191-1.467c0.127-0.479,0.335-0.907,0.624-1.284
			c0.288-0.376,0.667-0.683,1.137-0.917s1.042-0.353,1.717-0.353s1.247,0.117,1.718,0.353c0.469,0.234,0.848,0.541,1.137,0.917
			c0.289,0.377,0.497,0.805,0.624,1.284c0.127,0.479,0.19,0.968,0.19,1.467s-0.063,0.988-0.19,1.467
			c-0.127,0.479-0.335,0.907-0.624,1.284s-0.667,0.684-1.137,0.917c-0.471,0.234-1.043,0.353-1.718,0.353s-1.247-0.117-1.717-0.353
			c-0.469-0.233-0.849-0.54-1.137-0.917c-0.289-0.377-0.497-0.805-0.624-1.284C407.28,102.943,407.217,102.454,407.217,101.955z
			 M408.581,101.955c0,0.74,0.093,1.319,0.279,1.737c0.186,0.419,0.405,0.729,0.661,0.935c0.254,0.205,0.508,0.329,0.763,0.373
			s0.455,0.065,0.602,0.065s0.348-0.021,0.603-0.065s0.508-0.168,0.763-0.373c0.254-0.204,0.475-0.516,0.661-0.935
			c0.186-0.418,0.278-0.997,0.278-1.737s-0.094-1.319-0.278-1.737c-0.187-0.419-0.406-0.729-0.661-0.935
			c-0.254-0.205-0.508-0.329-0.763-0.373s-0.455-0.065-0.603-0.065c-0.146,0-0.347,0.021-0.602,0.065s-0.509,0.168-0.763,0.373
			c-0.256,0.204-0.476,0.516-0.661,0.935C408.674,100.635,408.581,101.215,408.581,101.955z"/>
		<path fill="#58595B" d="M417.531,98.229v1.042c0.254-0.372,0.596-0.688,1.026-0.946c0.431-0.26,0.939-0.39,1.526-0.39
			c0.489,0,0.893,0.075,1.21,0.228c0.318,0.152,0.567,0.354,0.748,0.609c0.181,0.254,0.308,0.55,0.381,0.888
			c0.074,0.337,0.11,0.691,0.11,1.063v4.959h-1.291v-4.562c0-0.196-0.007-0.426-0.022-0.689c-0.015-0.265-0.068-0.514-0.162-0.748
			c-0.093-0.234-0.247-0.434-0.462-0.595s-0.522-0.241-0.924-0.241c-0.176,0-0.387,0.028-0.631,0.088
			c-0.245,0.059-0.479,0.184-0.705,0.374c-0.226,0.189-0.416,0.47-0.572,0.837c-0.155,0.365-0.233,0.856-0.233,1.474v4.064h-1.292
			V98.23L417.531,98.229L417.531,98.229z"/>
	</g>
</g>
<g>
	<g>
		<path fill="#FFFFFF" d="M376.189,20.462c-0.764-0.66-2.213-1.199-3.222-1.199h-24.086c-1.009,0-1.834,0.824-1.834,1.834V75.03
			c0,1.009,0.825,1.834,1.834,1.834h43.443c1.009,0,1.834-0.825,1.834-1.834V37.853c0-1.01-0.624-2.374-1.387-3.034L376.189,20.462z
			"/>
		<path fill="none" stroke="#58595B" stroke-width="0.917" stroke-miterlimit="10" d="M376.189,20.462
			c-0.764-0.66-2.213-1.199-3.222-1.199h-24.086c-1.009,0-1.834,0.824-1.834,1.834V75.03c0,1.009,0.825,1.834,1.834,1.834h43.443
			c1.009,0,1.834-0.825,1.834-1.834V37.853c0-1.01-0.624-2.374-1.387-3.034L376.189,20.462z"/>
	</g>
	
		<rect x="356.99" y="48.062" fill="#FFFFFF" stroke="#58595B" stroke-width="0.917" stroke-miterlimit="10" width="27.229" height="5.235"/>
	
		<rect x="356.99" y="60.631" fill="#FFFFFF" stroke="#58595B" stroke-width="0.917" stroke-miterlimit="10" width="27.229" height="5.235"/>
	<polyline fill="none" stroke="#58595B" stroke-width="0.917" stroke-miterlimit="10" points="394.16,36.019 374.803,36.019 
		374.803,19.262 	"/>
</g>
<g>
	<g>
		<path fill="#58595B" d="M480.162,198.167c-0.049,0.372-0.146,0.773-0.293,1.203c-0.147,0.431-0.385,0.832-0.712,1.203
			c-0.328,0.372-0.761,0.683-1.299,0.932c-0.538,0.25-1.219,0.374-2.039,0.374c-0.764,0-1.447-0.119-2.055-0.358
			c-0.605-0.239-1.118-0.587-1.532-1.041c-0.416-0.455-0.736-1.008-0.961-1.658c-0.227-0.65-0.339-1.387-0.339-2.208
			c0-0.91,0.102-1.68,0.302-2.312c0.199-0.631,0.455-1.153,0.763-1.569c0.309-0.415,0.653-0.741,1.034-0.977
			c0.382-0.233,0.751-0.407,1.107-0.521c0.356-0.112,0.683-0.181,0.977-0.206c0.293-0.023,0.514-0.036,0.66-0.036
			c0.82,0,1.496,0.107,2.023,0.322c0.528,0.216,0.951,0.492,1.271,0.829c0.316,0.338,0.548,0.712,0.688,1.123
			c0.143,0.409,0.232,0.812,0.271,1.201h-1.379c-0.021-0.186-0.071-0.409-0.154-0.675c-0.083-0.264-0.229-0.518-0.434-0.763
			c-0.205-0.244-0.491-0.452-0.857-0.623c-0.367-0.171-0.844-0.257-1.431-0.257c-0.646,0-1.185,0.124-1.614,0.374
			c-0.432,0.249-0.775,0.579-1.034,0.99c-0.259,0.41-0.445,0.88-0.558,1.407c-0.113,0.528-0.17,1.071-0.17,1.629
			c0,0.598,0.078,1.149,0.235,1.658c0.156,0.508,0.386,0.948,0.689,1.32c0.303,0.371,0.668,0.662,1.093,0.873
			c0.426,0.21,0.912,0.314,1.46,0.314c0.411,0,0.79-0.062,1.137-0.19c0.349-0.127,0.648-0.306,0.902-0.535
			c0.255-0.229,0.457-0.499,0.608-0.807c0.151-0.31,0.237-0.648,0.258-1.021h1.381V198.167z"/>
		<path fill="#58595B" d="M488.377,199.415c-0.049,0.265-0.139,0.54-0.271,0.828c-0.133,0.289-0.322,0.553-0.571,0.793
			c-0.25,0.239-0.57,0.438-0.962,0.594c-0.392,0.156-0.875,0.234-1.452,0.234c-0.616,0-1.137-0.083-1.562-0.249
			c-0.425-0.166-0.776-0.379-1.057-0.638c-0.278-0.261-0.496-0.546-0.652-0.858s-0.271-0.616-0.345-0.91
			c-0.073-0.293-0.117-0.56-0.132-0.8c-0.015-0.239-0.022-0.418-0.022-0.535c0-0.166,0.011-0.384,0.029-0.653
			c0.021-0.269,0.068-0.552,0.146-0.851c0.077-0.298,0.195-0.599,0.353-0.902c0.156-0.303,0.369-0.576,0.638-0.82
			c0.271-0.244,0.604-0.442,1.007-0.596c0.399-0.15,0.89-0.228,1.467-0.228c0.743,0,1.337,0.13,1.782,0.39
			c0.444,0.26,0.786,0.584,1.026,0.977c0.239,0.391,0.401,0.818,0.484,1.283s0.134,0.896,0.154,1.299
			c0,0.059,0.002,0.12,0.007,0.184c0.005,0.064,0.008,0.124,0.008,0.184h-5.737c0,0.322,0.044,0.65,0.132,0.982
			c0.089,0.333,0.227,0.634,0.411,0.902c0.187,0.27,0.428,0.491,0.728,0.668c0.298,0.176,0.661,0.264,1.093,0.264
			c0.303,0,0.577-0.041,0.821-0.125c0.244-0.083,0.452-0.195,0.624-0.337c0.171-0.142,0.308-0.306,0.41-0.492
			c0.104-0.186,0.174-0.381,0.213-0.586L488.377,199.415L488.377,199.415z M487.086,197.229c-0.01-0.244-0.044-0.515-0.103-0.808
			c-0.06-0.294-0.164-0.564-0.315-0.813c-0.151-0.25-0.359-0.457-0.623-0.624c-0.265-0.166-0.606-0.249-1.027-0.249
			c-0.47,0-0.855,0.086-1.158,0.257c-0.304,0.171-0.54,0.384-0.712,0.638c-0.172,0.255-0.286,0.526-0.346,0.814
			c-0.059,0.289-0.088,0.551-0.088,0.785H487.086z"/>
		<path fill="#58595B" d="M491.429,191.301v10.271h-1.291v-10.271H491.429z"/>
		<path fill="#58595B" d="M494.833,191.301v10.271h-1.291v-10.271H494.833z"/>
		<path fill="#58595B" d="M501.933,191.301v10.271h-1.379v-10.271H501.933z"/>
		<path fill="#58595B" d="M505.529,194.118v1.013l-0.016,0.088c0.099-0.215,0.229-0.407,0.396-0.579s0.353-0.317,0.558-0.439
			c0.206-0.123,0.423-0.216,0.653-0.279c0.229-0.062,0.462-0.096,0.697-0.096c0.321,0,0.604,0.047,0.851,0.14
			c0.244,0.094,0.452,0.217,0.623,0.367c0.172,0.151,0.311,0.322,0.419,0.515c0.107,0.189,0.187,0.384,0.234,0.578
			c0.067-0.146,0.171-0.311,0.308-0.49c0.138-0.182,0.31-0.354,0.514-0.521c0.206-0.166,0.452-0.306,0.741-0.418
			c0.288-0.112,0.628-0.169,1.021-0.169c0.566,0,1.013,0.115,1.335,0.345c0.322,0.23,0.562,0.502,0.719,0.814
			s0.252,0.637,0.286,0.969c0.034,0.333,0.052,0.603,0.052,0.807v4.812h-1.291v-4.725c0-0.195-0.013-0.415-0.037-0.66
			c-0.023-0.244-0.085-0.475-0.183-0.689c-0.099-0.215-0.242-0.396-0.435-0.543c-0.189-0.146-0.451-0.22-0.783-0.22
			c-0.217,0-0.44,0.034-0.676,0.103c-0.234,0.068-0.447,0.193-0.639,0.374c-0.189,0.183-0.348,0.427-0.47,0.733
			c-0.122,0.309-0.185,0.702-0.185,1.182v4.445h-1.291v-4.71c0-0.273-0.02-0.537-0.059-0.792c-0.039-0.254-0.112-0.479-0.22-0.675
			c-0.108-0.196-0.255-0.354-0.44-0.478c-0.185-0.123-0.426-0.184-0.719-0.184c-0.264,0-0.516,0.057-0.756,0.169
			c-0.239,0.112-0.45,0.271-0.631,0.477c-0.182,0.206-0.322,0.457-0.426,0.756s-0.153,0.629-0.153,0.99v4.445h-1.291v-7.453
			L505.529,194.118L505.529,194.118z"/>
		<path fill="#58595B" d="M516.78,196.318c0-0.244,0.043-0.513,0.125-0.808c0.084-0.293,0.239-0.563,0.471-0.813
			c0.229-0.249,0.553-0.457,0.967-0.623c0.416-0.166,0.951-0.25,1.607-0.25c0.303,0,0.629,0.029,0.977,0.089
			c0.347,0.06,0.668,0.176,0.967,0.353c0.3,0.176,0.546,0.428,0.742,0.756c0.195,0.328,0.287,0.766,0.277,1.312l-0.072,3.447
			c0,0.146,0.002,0.276,0.008,0.389c0.004,0.112,0.031,0.206,0.08,0.279s0.127,0.13,0.234,0.168c0.106,0.04,0.26,0.055,0.455,0.045
			v0.909c-0.088,0.02-0.174,0.034-0.258,0.044c-0.082,0.01-0.191,0.015-0.33,0.015c-0.177,0-0.341-0.013-0.49-0.036
			c-0.152-0.023-0.283-0.073-0.396-0.146c-0.112-0.073-0.204-0.181-0.278-0.322c-0.072-0.142-0.129-0.335-0.168-0.58
			c-0.127,0.235-0.283,0.437-0.47,0.603c-0.188,0.167-0.393,0.304-0.616,0.411c-0.225,0.106-0.463,0.186-0.711,0.233
			c-0.25,0.049-0.502,0.073-0.757,0.073c-0.782,0-1.416-0.178-1.899-0.535c-0.484-0.355-0.728-0.927-0.728-1.709
			c0-0.323,0.05-0.614,0.146-0.873s0.283-0.489,0.559-0.688c0.273-0.2,0.646-0.367,1.115-0.499c0.469-0.133,1.08-0.232,1.834-0.302
			c0.273-0.02,0.504-0.038,0.689-0.059c0.185-0.02,0.334-0.062,0.446-0.125c0.111-0.062,0.193-0.158,0.242-0.286
			c0.049-0.127,0.072-0.312,0.072-0.558c0-0.088-0.01-0.215-0.029-0.381c-0.019-0.166-0.082-0.333-0.188-0.499
			c-0.109-0.166-0.275-0.312-0.5-0.434c-0.226-0.122-0.543-0.184-0.953-0.184c-0.117,0-0.287,0.01-0.506,0.029
			c-0.222,0.02-0.438,0.08-0.652,0.184c-0.217,0.103-0.402,0.259-0.559,0.47c-0.156,0.21-0.23,0.512-0.222,0.901H516.78
			L516.78,196.318z M521.622,197.757c-0.096,0.078-0.199,0.136-0.305,0.169c-0.107,0.034-0.226,0.062-0.351,0.08
			c-0.127,0.021-0.27,0.037-0.43,0.053c-0.16,0.015-0.342,0.035-0.545,0.064c-0.283,0.05-0.551,0.096-0.81,0.141
			c-0.258,0.044-0.481,0.111-0.678,0.204c-0.192,0.095-0.346,0.229-0.459,0.404c-0.11,0.176-0.166,0.41-0.166,0.704
			c0,0.439,0.133,0.78,0.4,1.021c0.266,0.238,0.608,0.358,1.024,0.358c0.252,0,0.509-0.037,0.767-0.109
			c0.256-0.073,0.494-0.205,0.713-0.396c0.217-0.191,0.4-0.452,0.545-0.785c0.146-0.332,0.232-0.758,0.262-1.275L521.622,197.757z"
			/>
		<path fill="#58595B" d="M526.521,202.413c0.06,0.217,0.156,0.396,0.294,0.532c0.139,0.139,0.297,0.249,0.479,0.333
			c0.18,0.084,0.375,0.141,0.586,0.171c0.211,0.029,0.414,0.044,0.609,0.044c0.508,0,0.899-0.104,1.174-0.31
			s0.477-0.442,0.609-0.707c0.131-0.267,0.209-0.526,0.233-0.781c0.023-0.256,0.035-0.434,0.035-0.531v-0.811
			c-0.176,0.283-0.346,0.521-0.512,0.712c-0.168,0.189-0.347,0.345-0.537,0.462c-0.189,0.117-0.396,0.203-0.615,0.257
			s-0.467,0.08-0.74,0.08c-0.44,0-0.862-0.078-1.27-0.234c-0.407-0.155-0.764-0.397-1.072-0.727
			c-0.307-0.327-0.555-0.748-0.74-1.262s-0.278-1.133-0.278-1.855c0-0.117,0.006-0.296,0.016-0.536
			c0.01-0.239,0.043-0.506,0.102-0.799c0.06-0.294,0.154-0.595,0.287-0.902c0.131-0.309,0.318-0.592,0.558-0.852
			c0.239-0.259,0.543-0.469,0.91-0.631c0.366-0.161,0.817-0.242,1.356-0.242c0.615,0,1.144,0.113,1.576,0.338
			c0.436,0.227,0.771,0.553,1.006,0.983h0.045v-1.027h1.203v7.263c0,0.479-0.066,0.886-0.199,1.219
			c-0.131,0.332-0.301,0.61-0.506,0.836c-0.205,0.225-0.438,0.4-0.697,0.527c-0.259,0.127-0.512,0.226-0.756,0.293
			c-0.244,0.068-0.475,0.11-0.688,0.125c-0.215,0.016-0.381,0.022-0.498,0.022c-0.177,0-0.422-0.011-0.734-0.029
			c-0.312-0.02-0.633-0.091-0.961-0.213c-0.328-0.121-0.631-0.315-0.91-0.585c-0.276-0.269-0.477-0.656-0.594-1.163H526.521
			L526.521,202.413z M528.431,200.955c0.117,0,0.298-0.031,0.543-0.096c0.244-0.063,0.488-0.205,0.732-0.425
			c0.244-0.222,0.461-0.541,0.646-0.961c0.187-0.422,0.279-0.993,0.279-1.718c0-0.938-0.197-1.678-0.588-2.216
			c-0.391-0.537-0.969-0.807-1.729-0.807c-0.363,0-0.669,0.062-0.919,0.184s-0.454,0.276-0.614,0.462
			c-0.162,0.187-0.285,0.396-0.367,0.631c-0.084,0.234-0.146,0.463-0.191,0.684c-0.043,0.22-0.067,0.425-0.071,0.616
			c-0.006,0.189-0.009,0.335-0.009,0.433c0,0.753,0.091,1.345,0.271,1.775c0.18,0.431,0.396,0.75,0.645,0.961
			c0.25,0.21,0.505,0.342,0.765,0.396C528.081,200.929,528.284,200.955,528.431,200.955z"/>
		<path fill="#58595B" d="M540.548,199.415c-0.049,0.265-0.139,0.54-0.271,0.828c-0.131,0.289-0.322,0.553-0.57,0.793
			c-0.25,0.239-0.57,0.438-0.963,0.594c-0.392,0.156-0.875,0.234-1.451,0.234c-0.617,0-1.137-0.083-1.562-0.249
			c-0.425-0.166-0.776-0.379-1.057-0.638c-0.279-0.261-0.496-0.546-0.652-0.858c-0.157-0.312-0.271-0.616-0.346-0.91
			c-0.072-0.293-0.117-0.56-0.131-0.8c-0.016-0.239-0.023-0.418-0.023-0.535c0-0.166,0.011-0.384,0.029-0.653
			c0.021-0.269,0.068-0.552,0.146-0.851c0.078-0.298,0.196-0.599,0.354-0.902c0.156-0.303,0.369-0.576,0.637-0.82
			c0.271-0.244,0.605-0.442,1.007-0.596c0.399-0.15,0.891-0.228,1.467-0.228c0.744,0,1.338,0.13,1.783,0.39
			c0.444,0.26,0.786,0.584,1.026,0.977c0.238,0.391,0.4,0.818,0.484,1.283c0.082,0.465,0.133,0.896,0.154,1.299
			c0,0.059,0.002,0.12,0.006,0.184c0.006,0.063,0.008,0.124,0.008,0.184h-5.736c0,0.322,0.043,0.65,0.131,0.982
			c0.09,0.333,0.228,0.634,0.412,0.902c0.187,0.27,0.428,0.491,0.728,0.668c0.297,0.176,0.661,0.264,1.092,0.264
			c0.303,0,0.578-0.041,0.822-0.125c0.243-0.083,0.452-0.195,0.622-0.337c0.173-0.142,0.31-0.306,0.412-0.492
			c0.103-0.186,0.172-0.381,0.211-0.586L540.548,199.415L540.548,199.415z M539.257,197.229c-0.01-0.244-0.043-0.515-0.102-0.808
			c-0.06-0.294-0.164-0.564-0.316-0.813c-0.149-0.25-0.358-0.457-0.623-0.624c-0.264-0.166-0.606-0.249-1.026-0.249
			c-0.47,0-0.855,0.086-1.158,0.257s-0.541,0.384-0.713,0.638c-0.17,0.255-0.285,0.526-0.345,0.814
			c-0.059,0.289-0.088,0.551-0.088,0.785H539.257z"/>
	</g>
</g>
<g>
	<g>
		<path fill="#58595B" d="M741.747,87.159c0.176,0,0.418,0.01,0.727,0.029c0.308,0.021,0.644,0.081,1.005,0.184
			c0.36,0.104,0.731,0.26,1.106,0.47c0.377,0.21,0.717,0.505,1.021,0.881c0.305,0.377,0.551,0.854,0.741,1.431
			c0.189,0.577,0.285,1.281,0.285,2.113c0,0.841-0.092,1.553-0.276,2.135c-0.188,0.582-0.433,1.062-0.734,1.443
			c-0.303,0.383-0.648,0.682-1.035,0.896s-0.779,0.374-1.18,0.477c-0.402,0.104-0.791,0.164-1.168,0.185
			c-0.375,0.02-0.711,0.029-1.004,0.029h-3.259V87.159H741.747z M739.354,96.271h1.923c1.321,0,2.299-0.32,2.936-0.961
			c0.635-0.642,0.953-1.646,0.953-3.016c0-0.771-0.1-1.416-0.301-1.93s-0.466-0.922-0.793-1.225
			c-0.326-0.305-0.699-0.518-1.113-0.64c-0.416-0.122-0.844-0.184-1.285-0.184h-2.317v7.954H739.354z"/>
		<path fill="#58595B" d="M747.909,93.703c0-0.499,0.062-0.988,0.188-1.467c0.127-0.479,0.336-0.907,0.625-1.284
			c0.287-0.376,0.666-0.683,1.138-0.917c0.469-0.234,1.041-0.353,1.717-0.353c0.674,0,1.246,0.117,1.717,0.353
			c0.469,0.234,0.848,0.541,1.137,0.917c0.287,0.377,0.496,0.805,0.623,1.284c0.127,0.479,0.191,0.968,0.191,1.467
			s-0.064,0.988-0.191,1.467c-0.127,0.479-0.336,0.907-0.623,1.284c-0.289,0.377-0.668,0.684-1.137,0.917
			c-0.471,0.234-1.043,0.353-1.717,0.353c-0.676,0-1.248-0.117-1.717-0.353c-0.472-0.233-0.851-0.54-1.138-0.917
			c-0.289-0.377-0.498-0.805-0.625-1.284C747.972,94.691,747.909,94.202,747.909,93.703z M749.271,93.703
			c0,0.74,0.095,1.319,0.279,1.737c0.187,0.419,0.406,0.729,0.66,0.935s0.508,0.329,0.764,0.373
			c0.254,0.044,0.455,0.065,0.603,0.065c0.146,0,0.346-0.021,0.602-0.065c0.254-0.044,0.508-0.168,0.763-0.373
			c0.256-0.204,0.475-0.516,0.659-0.935c0.187-0.418,0.279-0.997,0.279-1.737s-0.094-1.319-0.279-1.737
			c-0.186-0.419-0.403-0.729-0.659-0.935c-0.255-0.205-0.509-0.329-0.763-0.373c-0.256-0.044-0.455-0.065-0.602-0.065
			c-0.147,0-0.349,0.021-0.603,0.065c-0.256,0.044-0.51,0.168-0.764,0.373c-0.254,0.204-0.475,0.516-0.66,0.935
			C749.366,92.384,749.271,92.963,749.271,93.703z"/>
		<path fill="#58595B" d="M763.388,94.774c-0.02,0.225-0.075,0.504-0.17,0.836c-0.092,0.333-0.254,0.655-0.481,0.969
			c-0.23,0.312-0.554,0.582-0.97,0.807c-0.416,0.226-0.956,0.338-1.62,0.338c-0.127,0-0.306-0.011-0.529-0.029
			c-0.225-0.02-0.475-0.068-0.748-0.146s-0.551-0.203-0.828-0.374c-0.279-0.171-0.531-0.404-0.756-0.704
			c-0.225-0.298-0.41-0.678-0.559-1.137c-0.146-0.46-0.22-1.021-0.22-1.688c0-0.432,0.049-0.881,0.146-1.351
			s0.278-0.896,0.543-1.284c0.264-0.386,0.625-0.703,1.086-0.952c0.459-0.25,1.051-0.375,1.774-0.375c0.527,0,0.986,0.07,1.38,0.213
			c0.391,0.143,0.719,0.335,0.981,0.58c0.264,0.243,0.474,0.522,0.623,0.836c0.152,0.312,0.248,0.646,0.287,0.998h-1.232
			c-0.067-0.411-0.19-0.733-0.366-0.97c-0.177-0.233-0.367-0.404-0.572-0.514c-0.205-0.107-0.408-0.173-0.609-0.198
			c-0.198-0.022-0.354-0.036-0.461-0.036c-0.401,0-0.744,0.081-1.026,0.242c-0.283,0.161-0.515,0.379-0.689,0.652
			c-0.176,0.273-0.305,0.597-0.383,0.969s-0.117,0.769-0.117,1.188s0.045,0.82,0.133,1.203c0.088,0.381,0.224,0.719,0.404,1.012
			c0.18,0.294,0.418,0.525,0.711,0.697c0.293,0.171,0.645,0.257,1.057,0.257c0.361,0,0.668-0.068,0.916-0.205
			c0.25-0.137,0.453-0.307,0.609-0.507s0.27-0.42,0.338-0.66c0.068-0.239,0.107-0.462,0.117-0.667H763.388z"/>
		<path fill="#58595B" d="M769.812,89.977h1.541l-2.965,2.876l3.229,4.577h-1.467l-2.627-3.785l-1.263,1.247v2.538h-1.291V87.159
			h1.291v6.368L769.812,89.977z"/>
		<path fill="#58595B" d="M779.247,95.273c-0.049,0.264-0.139,0.54-0.271,0.828c-0.133,0.289-0.321,0.553-0.571,0.793
			c-0.25,0.238-0.57,0.438-0.961,0.594c-0.392,0.156-0.875,0.234-1.453,0.234c-0.615,0-1.138-0.083-1.562-0.249
			s-0.776-0.38-1.057-0.639c-0.277-0.26-0.496-0.546-0.652-0.857c-0.156-0.313-0.271-0.616-0.344-0.91
			c-0.074-0.293-0.117-0.561-0.133-0.8c-0.014-0.239-0.021-0.418-0.021-0.535c0-0.166,0.011-0.384,0.029-0.653
			c0.02-0.269,0.068-0.552,0.146-0.851c0.077-0.298,0.194-0.6,0.352-0.902c0.156-0.303,0.369-0.577,0.639-0.821
			c0.271-0.244,0.604-0.441,1.006-0.595c0.4-0.151,0.89-0.228,1.468-0.228c0.741,0,1.336,0.13,1.78,0.39
			c0.445,0.259,0.787,0.584,1.027,0.976s0.402,0.819,0.484,1.283c0.084,0.465,0.135,0.897,0.153,1.299
			c0,0.06,0.002,0.12,0.008,0.185c0.005,0.062,0.009,0.124,0.009,0.183h-5.738c0,0.323,0.045,0.651,0.133,0.983
			c0.088,0.333,0.225,0.634,0.41,0.901c0.186,0.271,0.428,0.491,0.727,0.668c0.3,0.177,0.662,0.265,1.095,0.265
			c0.303,0,0.575-0.041,0.819-0.125c0.246-0.083,0.453-0.195,0.625-0.337c0.17-0.143,0.308-0.307,0.41-0.492
			c0.104-0.187,0.174-0.381,0.213-0.586L779.247,95.273L779.247,95.273z M777.956,93.087c-0.01-0.244-0.045-0.514-0.104-0.807
			c-0.059-0.294-0.164-0.565-0.313-0.814c-0.152-0.25-0.359-0.457-0.623-0.624c-0.266-0.166-0.607-0.249-1.027-0.249
			c-0.471,0-0.856,0.087-1.159,0.258c-0.304,0.171-0.539,0.384-0.712,0.638c-0.172,0.255-0.286,0.526-0.346,0.813
			c-0.059,0.289-0.088,0.552-0.088,0.785H777.956L777.956,93.087z"/>
		<path fill="#58595B" d="M785.175,90.593c-0.438,0.021-0.828,0.078-1.166,0.177c-0.338,0.098-0.627,0.25-0.865,0.455
			c-0.239,0.205-0.432,0.47-0.571,0.792c-0.144,0.322-0.229,0.719-0.258,1.188c-0.011,0.138-0.015,0.271-0.015,0.396
			s0,0.259,0,0.396v3.435h-1.291v-7.453h1.291v1.438h0.029c0.088-0.272,0.217-0.516,0.389-0.726c0.17-0.211,0.367-0.388,0.586-0.528
			c0.222-0.142,0.457-0.252,0.713-0.33c0.255-0.078,0.513-0.122,0.777-0.133l0.381-0.015V90.593L785.175,90.593z"/>
		<path fill="#58595B" d="M790.03,87.159h4.549c0.186,0,0.397,0.008,0.639,0.022c0.238,0.015,0.486,0.054,0.74,0.116
			c0.254,0.063,0.502,0.154,0.74,0.271c0.239,0.117,0.455,0.275,0.646,0.477c0.191,0.201,0.344,0.455,0.463,0.765
			c0.117,0.308,0.177,0.677,0.177,1.106c0,0.293-0.039,0.579-0.117,0.858c-0.08,0.277-0.193,0.533-0.347,0.763
			c-0.152,0.23-0.338,0.426-0.557,0.587c-0.221,0.161-0.469,0.271-0.742,0.33V92.5c0.347,0.127,0.617,0.278,0.814,0.455
			c0.197,0.176,0.344,0.369,0.443,0.579c0.098,0.211,0.159,0.438,0.184,0.683c0.025,0.244,0.043,0.499,0.053,0.764
			c0.01,0.353,0.019,0.649,0.021,0.895c0.006,0.245,0.018,0.458,0.037,0.64c0.019,0.181,0.057,0.343,0.11,0.483
			c0.055,0.142,0.136,0.286,0.244,0.434h-1.467c-0.088-0.117-0.16-0.232-0.213-0.346c-0.056-0.111-0.092-0.249-0.111-0.411
			c-0.02-0.16-0.033-0.354-0.043-0.578c-0.01-0.226-0.016-0.505-0.016-0.838c0-0.264-0.015-0.524-0.043-0.783
			c-0.029-0.261-0.107-0.494-0.234-0.704c-0.129-0.211-0.32-0.379-0.58-0.507s-0.619-0.19-1.078-0.19h-2.936v4.357h-1.379V87.159
			H790.03z M791.409,91.913h3.082c0.166,0,0.362-0.021,0.594-0.065c0.229-0.045,0.453-0.133,0.668-0.265s0.396-0.316,0.543-0.558
			c0.146-0.239,0.221-0.561,0.221-0.961c0-0.332-0.057-0.611-0.17-0.836c-0.11-0.227-0.266-0.406-0.461-0.543
			c-0.196-0.138-0.432-0.232-0.705-0.286c-0.272-0.055-0.571-0.081-0.895-0.081h-2.877V91.913z"/>
		<path fill="#58595B" d="M806.433,95.273c-0.049,0.264-0.139,0.54-0.271,0.828c-0.131,0.289-0.322,0.553-0.57,0.793
			c-0.25,0.238-0.57,0.438-0.963,0.594c-0.391,0.156-0.875,0.234-1.451,0.234c-0.617,0-1.137-0.083-1.562-0.249
			s-0.777-0.38-1.058-0.639c-0.278-0.26-0.496-0.546-0.651-0.857c-0.158-0.313-0.271-0.616-0.347-0.91
			c-0.071-0.293-0.116-0.561-0.131-0.8c-0.016-0.239-0.022-0.418-0.022-0.535c0-0.166,0.01-0.384,0.028-0.653
			c0.021-0.269,0.068-0.552,0.146-0.851c0.078-0.298,0.197-0.6,0.354-0.902s0.369-0.577,0.638-0.821
			c0.27-0.244,0.604-0.441,1.006-0.595c0.399-0.151,0.891-0.228,1.467-0.228c0.744,0,1.338,0.13,1.783,0.39
			c0.445,0.259,0.787,0.584,1.026,0.976c0.238,0.392,0.4,0.819,0.484,1.283c0.082,0.465,0.133,0.897,0.154,1.299
			c0,0.06,0.002,0.12,0.006,0.185c0.006,0.062,0.008,0.124,0.008,0.183h-5.736c0,0.323,0.043,0.651,0.132,0.983
			c0.09,0.333,0.227,0.634,0.411,0.901c0.187,0.271,0.429,0.491,0.728,0.668c0.297,0.177,0.662,0.265,1.092,0.265
			c0.303,0,0.578-0.041,0.822-0.125c0.244-0.083,0.453-0.195,0.623-0.337c0.172-0.143,0.309-0.307,0.412-0.492
			c0.102-0.187,0.172-0.381,0.211-0.586L806.433,95.273L806.433,95.273z M805.142,93.087c-0.01-0.244-0.043-0.514-0.102-0.807
			c-0.059-0.294-0.164-0.565-0.316-0.814c-0.149-0.25-0.358-0.457-0.622-0.624c-0.265-0.166-0.607-0.249-1.027-0.249
			c-0.469,0-0.855,0.087-1.158,0.258s-0.541,0.384-0.713,0.638c-0.17,0.255-0.285,0.526-0.344,0.813
			c-0.06,0.289-0.088,0.552-0.088,0.785H805.142L805.142,93.087z"/>
		<path fill="#58595B" d="M809.396,89.977v1.026h0.044c0.186-0.284,0.389-0.512,0.608-0.683c0.221-0.171,0.439-0.306,0.66-0.403
			c0.221-0.097,0.432-0.161,0.639-0.189c0.205-0.03,0.392-0.045,0.558-0.045c0.459,0,0.893,0.079,1.299,0.234
			c0.406,0.156,0.764,0.398,1.07,0.727c0.309,0.328,0.551,0.746,0.727,1.255s0.264,1.109,0.264,1.805
			c0,0.724-0.092,1.34-0.276,1.849c-0.188,0.51-0.437,0.925-0.748,1.247c-0.314,0.323-0.672,0.559-1.072,0.704
			c-0.4,0.146-0.812,0.221-1.232,0.221c-0.077,0-0.217-0.011-0.418-0.029c-0.201-0.02-0.424-0.075-0.668-0.168
			c-0.244-0.094-0.489-0.23-0.739-0.411s-0.457-0.433-0.623-0.756v3.785h-1.291V89.977H809.396z M809.396,93.732
			c0,0.577,0.072,1.062,0.22,1.452c0.146,0.392,0.336,0.71,0.563,0.954c0.23,0.243,0.48,0.418,0.75,0.521
			c0.269,0.104,0.525,0.154,0.771,0.154c0.264,0,0.524-0.053,0.785-0.154c0.258-0.103,0.493-0.273,0.702-0.514
			c0.212-0.239,0.384-0.558,0.515-0.953c0.133-0.396,0.199-0.894,0.199-1.489c0-0.959-0.197-1.717-0.589-2.273
			c-0.391-0.558-0.952-0.837-1.688-0.837c-0.166,0-0.375,0.032-0.631,0.097c-0.254,0.062-0.498,0.203-0.732,0.418
			c-0.233,0.215-0.438,0.53-0.608,0.945C809.482,92.469,809.396,93.028,809.396,93.732z"/>
		<path fill="#58595B" d="M816.526,93.703c0-0.499,0.063-0.988,0.19-1.467c0.127-0.479,0.334-0.907,0.623-1.284
			c0.289-0.376,0.668-0.683,1.137-0.917c0.472-0.234,1.043-0.353,1.718-0.353c0.676,0,1.248,0.117,1.717,0.353
			c0.471,0.234,0.85,0.541,1.137,0.917c0.289,0.377,0.496,0.805,0.625,1.284c0.127,0.479,0.189,0.968,0.189,1.467
			s-0.062,0.988-0.189,1.467c-0.129,0.479-0.336,0.907-0.625,1.284c-0.287,0.377-0.666,0.684-1.137,0.917
			c-0.469,0.234-1.041,0.353-1.717,0.353c-0.675,0-1.246-0.117-1.718-0.353c-0.469-0.233-0.848-0.54-1.137-0.917
			s-0.496-0.805-0.623-1.284C816.591,94.691,816.526,94.202,816.526,93.703z M817.892,93.703c0,0.74,0.093,1.319,0.279,1.737
			c0.187,0.419,0.404,0.729,0.66,0.935c0.254,0.205,0.508,0.329,0.762,0.373s0.455,0.065,0.603,0.065
			c0.146,0,0.348-0.021,0.602-0.065s0.51-0.168,0.764-0.373c0.255-0.204,0.476-0.516,0.66-0.935
			c0.187-0.418,0.279-0.997,0.279-1.737s-0.094-1.319-0.279-1.737c-0.186-0.419-0.406-0.729-0.66-0.935s-0.51-0.329-0.764-0.373
			s-0.455-0.065-0.602-0.065c-0.147,0-0.349,0.021-0.603,0.065s-0.508,0.168-0.762,0.373c-0.256,0.204-0.475,0.516-0.66,0.935
			C817.983,92.384,817.892,92.963,817.892,93.703z"/>
	</g>
</g>
<g>
	<g>
		<path fill="#FFFFFF" stroke="#58595B" stroke-width="0.917" stroke-miterlimit="10" d="M740.869,114.895v63.749
			c0,4.713,17.793,8.531,39.742,8.531s39.742-3.818,39.742-8.531v-63.749H740.869z"/>
		
			<ellipse fill="#FFFFFF" stroke="#58595B" stroke-width="0.917" stroke-miterlimit="10" cx="780.611" cy="114.895" rx="39.742" ry="8.532"/>
	</g>
	<path fill="#808080" d="M808.995,150.016c-1.122-0.752-3.702-1.027-5.688-0.65c-0.255-1.872-1.298-3.492-3.191-4.958l-1.094-0.727
		l-0.726,1.089c-0.934,1.402-1.396,3.352-1.241,5.216c0.065,0.655,0.281,1.83,0.955,2.862c-0.674,0.364-2.005,0.862-3.763,0.827
		h-33.815l-0.063,0.39c-0.319,1.876-0.312,7.725,3.484,12.222c2.89,3.417,7.219,5.151,12.865,5.151
		c12.248,0,21.312-5.64,25.55-15.885c1.671,0.032,5.263,0.011,7.107-3.518c0.05-0.083,0.16-0.292,0.479-0.962l0.18-0.366
		L808.995,150.016z M782.326,141.523h5.145v-4.672h-5.145V141.523z M782.326,147.132h5.145v-4.673h-5.145V147.132z M776.249,147.132
		h5.146v-4.673h-5.146V147.132z M770.173,147.132h5.145v-4.673h-5.145V147.132z M764.1,152.74h5.143v-4.672H764.1V152.74z
		 M770.173,152.74h5.145v-4.672h-5.145V152.74z M776.249,152.74h5.146v-4.672h-5.146V152.74z M782.326,152.74h5.145v-4.672h-5.145
		V152.74z M788.402,152.74h5.141v-4.672h-5.141V152.74z"/>
</g>
<g>
	<g>
		<polyline fill="none" stroke="#58595B" stroke-width="0.917" stroke-miterlimit="10" points="370.605,116.781 370.605,147.146 
			457.499,147.146 		"/>
		<g>
			<polygon fill="#58595B" points="456.429,150.804 462.764,147.146 456.429,143.487 			"/>
		</g>
	</g>
</g>
<g>
	<g>
		
			<line fill="none" stroke="#58595B" stroke-width="0.917" stroke-miterlimit="10" x1="550.393" y1="148.756" x2="712.229" y2="148.756"/>
		<g>
			<polygon fill="#58595B" points="711.159,152.414 717.494,148.756 711.159,145.098 			"/>
		</g>
	</g>
</g>
<rect x="586.098" y="137.168" fill="#F7F7F7" width="48.529" height="24.403"/>
<g>
	<g>
		<path fill="#58595B" d="M599.101,142.741c0.525,0,1.003,0.055,1.427,0.162c0.424,0.106,0.785,0.278,1.088,0.513
			c0.303,0.235,0.535,0.541,0.701,0.917c0.166,0.377,0.248,0.829,0.248,1.357c0,0.479-0.062,0.917-0.189,1.312
			c-0.127,0.396-0.33,0.736-0.613,1.021c-0.28,0.284-0.651,0.504-1.108,0.66c-0.457,0.155-1.019,0.233-1.681,0.233h-2.657v4.094
			h-1.38V142.74L599.101,142.741L599.101,142.741z M596.312,147.759h2.523c0.822,0,1.418-0.171,1.791-0.513
			c0.371-0.343,0.557-0.852,0.557-1.526c0-0.636-0.192-1.098-0.577-1.387c-0.388-0.288-0.978-0.433-1.771-0.433h-2.523V147.759z"/>
		<path fill="#58595B" d="M608.874,153.011v-1.057h-0.029c-0.188,0.323-0.412,0.575-0.676,0.756
			c-0.264,0.182-0.521,0.315-0.77,0.403c-0.25,0.088-0.476,0.142-0.677,0.161c-0.201,0.019-0.334,0.028-0.401,0.028
			c-0.55,0-0.986-0.093-1.314-0.277c-0.328-0.186-0.574-0.421-0.74-0.704s-0.272-0.587-0.321-0.91
			c-0.05-0.322-0.074-0.625-0.074-0.909v-4.943h1.291v4.562c0,0.47,0.039,0.853,0.117,1.146c0.078,0.294,0.186,0.525,0.323,0.696
			s0.302,0.286,0.49,0.346c0.191,0.059,0.404,0.088,0.64,0.088c0.536,0,0.952-0.12,1.245-0.359c0.295-0.239,0.509-0.516,0.64-0.829
			c0.133-0.312,0.209-0.621,0.229-0.924c0.021-0.304,0.029-0.523,0.029-0.66v-4.063h1.291v7.453h-1.292V153.011z"/>
		<path fill="#58595B" d="M613.04,150.796c0.01,0.294,0.072,0.543,0.188,0.749c0.115,0.205,0.269,0.371,0.457,0.498
			c0.189,0.128,0.404,0.218,0.642,0.271c0.237,0.055,0.479,0.081,0.721,0.081c0.428,0,0.758-0.06,0.99-0.177
			c0.231-0.116,0.401-0.255,0.51-0.41c0.108-0.156,0.168-0.312,0.183-0.471c0.014-0.155,0.021-0.272,0.021-0.352
			c0-0.117-0.012-0.232-0.035-0.345c-0.024-0.112-0.092-0.222-0.197-0.323c-0.106-0.104-0.266-0.2-0.475-0.293
			s-0.492-0.185-0.852-0.271l-0.789-0.177c-0.312-0.068-0.607-0.146-0.89-0.234c-0.281-0.088-0.528-0.21-0.744-0.366
			c-0.213-0.156-0.383-0.359-0.51-0.608s-0.188-0.569-0.188-0.961c0-0.411,0.082-0.756,0.25-1.034
			c0.166-0.279,0.385-0.499,0.659-0.66c0.273-0.162,0.576-0.275,0.908-0.345c0.334-0.068,0.67-0.104,1.015-0.104
			c0.635,0,1.146,0.078,1.532,0.234c0.388,0.156,0.687,0.351,0.902,0.579c0.215,0.23,0.361,0.475,0.439,0.733
			c0.078,0.26,0.127,0.491,0.146,0.696h-1.231c-0.011-0.106-0.037-0.236-0.08-0.389c-0.045-0.151-0.129-0.298-0.252-0.44
			c-0.123-0.142-0.298-0.262-0.521-0.358c-0.227-0.098-0.527-0.146-0.9-0.146c-0.039,0-0.143,0.006-0.309,0.016
			c-0.168,0.01-0.342,0.052-0.523,0.125c-0.181,0.072-0.346,0.189-0.493,0.352c-0.146,0.161-0.222,0.39-0.222,0.684
			c0,0.264,0.058,0.475,0.17,0.631c0.111,0.155,0.265,0.277,0.455,0.366c0.191,0.089,0.412,0.158,0.662,0.213
			c0.25,0.054,0.508,0.109,0.773,0.169c0.383,0.088,0.735,0.179,1.059,0.271c0.324,0.093,0.607,0.215,0.848,0.367
			c0.24,0.151,0.427,0.35,0.56,0.594c0.133,0.245,0.199,0.559,0.199,0.939c0,0.391-0.068,0.721-0.205,0.99
			c-0.14,0.269-0.31,0.493-0.515,0.675c-0.204,0.181-0.434,0.319-0.684,0.418c-0.248,0.098-0.488,0.171-0.719,0.22
			c-0.229,0.049-0.431,0.078-0.603,0.088c-0.17,0.01-0.284,0.016-0.344,0.016c-0.559,0-1.039-0.065-1.445-0.197
			c-0.405-0.133-0.745-0.313-1.02-0.543c-0.274-0.23-0.48-0.496-0.617-0.8s-0.209-0.626-0.219-0.97H613.04z"/>
		<path fill="#58595B" d="M620.991,142.741v3.859c0.342-0.471,0.721-0.811,1.137-1.021c0.416-0.21,0.889-0.314,1.416-0.314
			c0.412,0,0.758,0.055,1.043,0.161c0.283,0.107,0.517,0.249,0.695,0.426c0.182,0.177,0.317,0.37,0.412,0.58
			c0.092,0.21,0.16,0.418,0.205,0.623c0.043,0.205,0.067,0.398,0.071,0.579c0.007,0.182,0.009,0.32,0.009,0.418v4.959h-1.291v-4.562
			c0-0.216-0.005-0.455-0.015-0.72s-0.063-0.512-0.162-0.74c-0.098-0.229-0.252-0.423-0.463-0.58
			c-0.209-0.156-0.516-0.234-0.916-0.234c-0.176,0-0.387,0.029-0.631,0.089c-0.244,0.059-0.479,0.184-0.705,0.373
			c-0.225,0.19-0.416,0.471-0.572,0.838c-0.155,0.365-0.233,0.856-0.233,1.474v4.063H619.7v-10.271H620.991z"/>
	</g>
</g>
<rect x="651.16" y="175.827" fill="#F7F7F7" width="66.334" height="20.373"/>
<g>
	<g>
		<path fill="#FFFFFF" d="M368.951,25.285c-0.764-0.66-2.212-1.2-3.221-1.2h-24.087c-1.009,0-1.834,0.825-1.834,1.834v53.935
			c0,1.009,0.825,1.834,1.834,1.834h43.443c1.009,0,1.834-0.825,1.834-1.834V42.676c0-1.009-0.624-2.374-1.387-3.033L368.951,25.285
			z"/>
		<path fill="none" stroke="#58595B" stroke-width="0.917" stroke-miterlimit="10" d="M368.951,25.285
			c-0.764-0.66-2.212-1.2-3.221-1.2h-24.087c-1.009,0-1.834,0.825-1.834,1.834v53.935c0,1.009,0.825,1.834,1.834,1.834h43.443
			c1.009,0,1.834-0.825,1.834-1.834V42.676c0-1.009-0.624-2.374-1.387-3.033L368.951,25.285z"/>
	</g>
	
		<rect x="349.752" y="52.885" fill="#FFFFFF" stroke="#58595B" stroke-width="0.917" stroke-miterlimit="10" width="27.229" height="5.236"/>
	
		<rect x="349.752" y="65.454" fill="#FFFFFF" stroke="#58595B" stroke-width="0.917" stroke-miterlimit="10" width="27.229" height="5.235"/>
	<polyline fill="none" stroke="#58595B" stroke-width="0.917" stroke-miterlimit="10" points="386.922,40.842 367.564,40.842 
		367.564,24.085 	"/>
</g>
<rect x="381.801" y="135.943" fill="#F7F7F7" width="48.529" height="24.403"/>
<g>
	<g>
		<path fill="#58595B" d="M395.142,142.741c0.626,0,1.139,0.081,1.533,0.242c0.396,0.162,0.707,0.367,0.933,0.616
			c0.226,0.25,0.382,0.527,0.47,0.837c0.088,0.308,0.132,0.612,0.132,0.917c0,0.272-0.043,0.535-0.13,0.784
			c-0.087,0.25-0.207,0.473-0.361,0.668c-0.153,0.194-0.333,0.358-0.535,0.49c-0.201,0.132-0.424,0.219-0.665,0.257v0.045
			c0.214,0.038,0.442,0.107,0.689,0.205c0.246,0.099,0.476,0.244,0.688,0.439c0.214,0.196,0.393,0.447,0.536,0.756
			c0.146,0.309,0.219,0.692,0.219,1.151c0,0.372-0.055,0.729-0.161,1.07c-0.108,0.344-0.302,0.646-0.58,0.91
			c-0.278,0.265-0.652,0.478-1.122,0.639s-1.071,0.241-1.806,0.241h-4.343v-10.271h4.504V142.741z M392.017,147.099h2.79
			c0.385,0,0.704-0.044,0.96-0.133c0.257-0.088,0.462-0.205,0.62-0.352c0.157-0.147,0.271-0.315,0.339-0.507
			c0.069-0.19,0.104-0.395,0.104-0.608c0-0.146-0.022-0.312-0.066-0.499c-0.045-0.186-0.136-0.358-0.272-0.521
			c-0.139-0.162-0.337-0.299-0.599-0.411c-0.261-0.112-0.606-0.169-1.041-0.169h-2.834L392.017,147.099L392.017,147.099z
			 M392.017,151.853h2.877c0.236,0,0.494-0.018,0.775-0.052c0.279-0.033,0.538-0.111,0.774-0.234
			c0.234-0.122,0.433-0.303,0.59-0.543c0.157-0.239,0.235-0.569,0.235-0.99c0-0.332-0.057-0.611-0.17-0.836
			c-0.112-0.225-0.272-0.406-0.479-0.543c-0.207-0.137-0.455-0.237-0.745-0.301c-0.29-0.064-0.617-0.097-0.981-0.097h-2.877V151.853
			L392.017,151.853z"/>
		<path fill="#58595B" d="M405.559,153.011v-1.057h-0.028c-0.188,0.323-0.411,0.575-0.675,0.756
			c-0.266,0.182-0.521,0.315-0.771,0.403s-0.475,0.142-0.675,0.161c-0.201,0.02-0.335,0.028-0.403,0.028
			c-0.548,0-0.984-0.093-1.312-0.277c-0.328-0.186-0.574-0.421-0.741-0.704c-0.166-0.283-0.273-0.587-0.322-0.91
			c-0.049-0.322-0.073-0.625-0.073-0.909v-4.943h1.291v4.562c0,0.47,0.039,0.853,0.117,1.146c0.078,0.294,0.187,0.525,0.323,0.696
			s0.301,0.286,0.491,0.346c0.189,0.059,0.402,0.088,0.638,0.088c0.538,0,0.954-0.12,1.247-0.359
			c0.294-0.239,0.507-0.516,0.639-0.829c0.132-0.312,0.208-0.621,0.229-0.924c0.02-0.304,0.028-0.523,0.028-0.66v-4.063h1.291v7.453
			h-1.292V153.011z"/>
		<path fill="#58595B" d="M408.934,142.741h1.291v1.351h-1.291V142.741z M410.225,145.559v7.453h-1.291v-7.453H410.225z"/>
		<path fill="#58595B" d="M413.599,142.741v10.271h-1.291v-10.271H413.599z"/>
		<path fill="#58595B" d="M422.388,142.741v10.271h-1.203v-1.026h-0.044c-0.06,0.118-0.146,0.255-0.265,0.411
			c-0.118,0.155-0.273,0.301-0.47,0.433c-0.195,0.132-0.436,0.244-0.72,0.338c-0.282,0.093-0.62,0.14-1.012,0.14
			c-0.549,0-1.032-0.099-1.453-0.293c-0.421-0.195-0.771-0.473-1.057-0.829c-0.283-0.356-0.501-0.782-0.652-1.276
			s-0.228-1.039-0.228-1.636c0-0.393,0.039-0.819,0.117-1.284c0.078-0.464,0.239-0.899,0.483-1.306
			c0.244-0.405,0.584-0.743,1.021-1.013c0.436-0.27,1.015-0.403,1.737-0.403c0.499,0,0.956,0.084,1.372,0.25
			s0.775,0.504,1.078,1.012v-3.785h1.294V142.741z M416.651,149.271c0,0.704,0.086,1.265,0.257,1.68
			c0.171,0.416,0.377,0.729,0.616,0.939c0.238,0.21,0.49,0.347,0.756,0.409c0.264,0.064,0.488,0.097,0.675,0.097
			c0.283,0,0.56-0.058,0.829-0.169c0.269-0.112,0.506-0.293,0.711-0.543c0.206-0.249,0.372-0.574,0.499-0.977
			c0.127-0.399,0.19-0.89,0.19-1.467c0-0.538-0.062-1-0.184-1.387c-0.123-0.387-0.291-0.704-0.507-0.953
			c-0.215-0.25-0.462-0.435-0.74-0.551c-0.279-0.117-0.57-0.177-0.873-0.177c-0.312,0-0.604,0.06-0.873,0.177
			c-0.27,0.116-0.504,0.301-0.704,0.551c-0.2,0.249-0.358,0.568-0.477,0.961C416.709,148.253,416.651,148.723,416.651,149.271z"/>
	</g>
</g>
<g>
	<polyline fill="#FFFFFF" stroke="#58595B" stroke-linecap="round" stroke-linejoin="round" stroke-miterlimit="10" points="
		525.764,128.362 540.764,111.418 540.764,156.642 525.764,176.922 	"/>
	<polyline fill="#FFFFFF" stroke="#58595B" stroke-linecap="round" stroke-linejoin="round" stroke-miterlimit="10" points="
		470.764,128.362 491.264,111.418 540.764,111.418 525.764,128.362 	"/>
	
		<line fill="none" stroke="#58595B" stroke-linecap="round" stroke-linejoin="round" stroke-miterlimit="10" x1="515.764" y1="111.418" x2="498.264" y2="128.362"/>
	
		<rect x="470.764" y="128.362" fill="#FFFFFF" stroke="#58595B" stroke-linecap="round" stroke-linejoin="round" stroke-miterlimit="10" width="55" height="48.56"/>
	
		<line fill="none" stroke="#58595B" stroke-linecap="round" stroke-linejoin="round" stroke-miterlimit="10" x1="487.639" y1="141.247" x2="508.889" y2="141.247"/>
</g>
<g>
	<path fill="#58595B" d="M963.12,143.768c0.418,0.056,0.869,0.165,1.354,0.33c0.485,0.165,0.937,0.433,1.354,0.801
		c0.418,0.369,0.768,0.854,1.048,1.461c0.28,0.605,0.421,1.37,0.421,2.294c0,0.858-0.135,1.629-0.404,2.311
		c-0.27,0.684-0.659,1.259-1.172,1.727c-0.512,0.468-1.134,0.828-1.864,1.081c-0.731,0.253-1.561,0.379-2.484,0.379
		c-1.023,0-1.89-0.112-2.6-0.338c-0.71-0.227-1.299-0.513-1.767-0.858s-0.834-0.733-1.098-1.164
		c-0.266-0.429-0.46-0.844-0.586-1.246c-0.127-0.4-0.204-0.768-0.231-1.098c-0.026-0.33-0.041-0.577-0.041-0.742
		c0-0.925,0.121-1.684,0.363-2.278c0.242-0.594,0.553-1.068,0.933-1.428c0.379-0.356,0.8-0.616,1.264-0.774
		c0.462-0.159,0.912-0.263,1.354-0.307v1.552c-0.209,0.022-0.463,0.08-0.76,0.175c-0.297,0.093-0.583,0.256-0.858,0.485
		c-0.273,0.231-0.509,0.554-0.701,0.967c-0.191,0.411-0.288,0.948-0.288,1.608c0,0.728,0.141,1.331,0.421,1.815
		c0.279,0.483,0.651,0.872,1.113,1.164c0.462,0.291,0.99,0.5,1.585,0.627s1.204,0.188,1.832,0.188c0.672,0,1.293-0.088,1.864-0.264
		c0.573-0.176,1.068-0.436,1.486-0.776s0.745-0.751,0.98-1.229c0.237-0.479,0.355-1.025,0.355-1.643
		c0-0.463-0.071-0.889-0.215-1.278c-0.144-0.392-0.345-0.729-0.604-1.017s-0.562-0.514-0.908-0.685
		c-0.346-0.171-0.729-0.268-1.146-0.289L963.12,143.768L963.12,143.768z"/>
	<path fill="#58595B" d="M964.521,134.524c0.299,0.056,0.608,0.157,0.934,0.306s0.622,0.363,0.892,0.645
		c0.271,0.28,0.492,0.642,0.669,1.081s0.265,0.984,0.265,1.634c0,0.692-0.095,1.278-0.28,1.759
		c-0.188,0.479-0.427,0.874-0.719,1.188c-0.291,0.314-0.613,0.56-0.965,0.735c-0.354,0.176-0.693,0.305-1.023,0.388
		c-0.33,0.082-0.63,0.133-0.899,0.148c-0.269,0.016-0.471,0.024-0.603,0.024c-0.188,0-0.432-0.012-0.734-0.033
		s-0.622-0.076-0.958-0.165c-0.335-0.088-0.674-0.22-1.015-0.396c-0.341-0.176-0.649-0.415-0.925-0.718
		c-0.274-0.303-0.497-0.68-0.668-1.131s-0.257-1.001-0.257-1.65c0-0.837,0.146-1.505,0.438-2.006
		c0.291-0.501,0.657-0.886,1.098-1.155c0.441-0.269,0.923-0.45,1.444-0.545c0.521-0.093,1.01-0.15,1.46-0.173
		c0.066,0,0.136-0.003,0.207-0.009c0.071-0.005,0.14-0.008,0.206-0.008v6.453c0.363,0,0.73-0.049,1.104-0.148
		c0.375-0.099,0.714-0.253,1.017-0.462s0.553-0.48,0.751-0.817c0.198-0.335,0.297-0.744,0.297-1.229
		c0-0.341-0.047-0.649-0.141-0.924c-0.094-0.275-0.221-0.509-0.38-0.702c-0.158-0.192-0.344-0.347-0.553-0.462
		s-0.43-0.195-0.661-0.239L964.521,134.524L964.521,134.524z M962.062,135.978c-0.273,0.011-0.576,0.049-0.907,0.114
		c-0.33,0.066-0.636,0.186-0.916,0.354c-0.28,0.171-0.515,0.404-0.701,0.702c-0.188,0.297-0.28,0.682-0.28,1.155
		c0,0.527,0.097,0.963,0.289,1.304s0.432,0.607,0.718,0.801s0.593,0.321,0.916,0.388c0.324,0.067,0.619,0.1,0.884,0.1v-4.918
		H962.062z"/>
	<path fill="#58595B" d="M955.396,131.092h11.554v1.452h-11.554V131.092z"/>
	<path fill="#58595B" d="M955.396,127.263h11.554v1.451h-11.554V127.263z"/>
	<path fill="#58595B" d="M964.521,117.458c0.299,0.057,0.608,0.157,0.934,0.307c0.325,0.147,0.622,0.362,0.892,0.644
		c0.271,0.281,0.492,0.642,0.669,1.081c0.177,0.44,0.265,0.985,0.265,1.634c0,0.693-0.095,1.279-0.28,1.759
		c-0.188,0.479-0.427,0.874-0.719,1.188c-0.291,0.313-0.613,0.559-0.965,0.735c-0.354,0.176-0.693,0.305-1.023,0.388
		c-0.33,0.082-0.63,0.132-0.899,0.147c-0.269,0.017-0.471,0.024-0.603,0.024c-0.188,0-0.432-0.011-0.734-0.033
		c-0.303-0.021-0.622-0.076-0.958-0.165c-0.335-0.088-0.674-0.22-1.015-0.396s-0.649-0.415-0.925-0.719
		c-0.274-0.303-0.497-0.68-0.668-1.131c-0.171-0.45-0.257-1.001-0.257-1.649c0-0.837,0.146-1.505,0.438-2.006
		c0.291-0.501,0.657-0.887,1.098-1.155c0.441-0.27,0.923-0.451,1.444-0.545c0.521-0.093,1.01-0.151,1.46-0.173
		c0.066,0,0.136-0.003,0.207-0.01c0.071-0.005,0.14-0.008,0.206-0.008v6.453c0.363,0,0.73-0.049,1.104-0.147
		c0.375-0.1,0.714-0.253,1.017-0.463c0.303-0.209,0.553-0.48,0.751-0.816c0.198-0.335,0.297-0.745,0.297-1.229
		c0-0.341-0.047-0.648-0.141-0.924c-0.094-0.274-0.221-0.509-0.38-0.702c-0.158-0.191-0.344-0.347-0.553-0.462
		c-0.209-0.114-0.43-0.194-0.661-0.238L964.521,117.458L964.521,117.458z M962.062,118.911c-0.273,0.011-0.576,0.049-0.907,0.115
		c-0.33,0.065-0.636,0.185-0.916,0.354c-0.28,0.171-0.515,0.404-0.701,0.702c-0.188,0.297-0.28,0.683-0.28,1.155
		c0,0.528,0.097,0.963,0.289,1.304s0.432,0.608,0.718,0.801c0.286,0.193,0.593,0.321,0.916,0.389
		c0.324,0.066,0.619,0.099,0.884,0.099v-4.918H962.062z"/>
	<path fill="#58595B" d="M959.258,110.79c0.021,0.495,0.088,0.934,0.198,1.312c0.109,0.379,0.28,0.704,0.512,0.974
		c0.23,0.271,0.527,0.484,0.892,0.644c0.362,0.16,0.809,0.257,1.337,0.289c0.153,0.012,0.303,0.018,0.445,0.018
		c0.144,0,0.291,0,0.445,0h3.862v1.452h-8.385v-1.452h1.616v-0.033c-0.308-0.099-0.58-0.245-0.815-0.438
		c-0.237-0.192-0.436-0.413-0.596-0.66c-0.158-0.248-0.282-0.516-0.37-0.802c-0.088-0.285-0.139-0.576-0.148-0.875l-0.017-0.429
		H959.258z"/>
	<path fill="#58595B" d="M968.913,108.661c0.033-0.218,0.056-0.376,0.065-0.475c0.012-0.099,0.018-0.181,0.018-0.245
		c0-0.208-0.039-0.383-0.115-0.524c-0.077-0.142-0.182-0.262-0.313-0.358c-0.133-0.1-0.283-0.179-0.453-0.237
		c-0.171-0.062-0.351-0.123-0.537-0.19l-0.627-0.197l-8.385,3.615v-1.732l6.783-2.681l-6.783-2.238v-1.452l9.375,3.334
		c0.197,0.065,0.421,0.144,0.669,0.23c0.247,0.089,0.479,0.213,0.692,0.371c0.214,0.159,0.396,0.366,0.544,0.619
		c0.148,0.253,0.224,0.577,0.224,0.975c0,0.23-0.005,0.447-0.017,0.651c-0.012,0.203-0.033,0.382-0.065,0.536L968.913,108.661
		L968.913,108.661z"/>
	<path fill="#58595B" d="M963.285,95.804c0.385,0.011,0.742-0.057,1.072-0.198c0.33-0.143,0.616-0.357,0.857-0.645
		c0.242-0.286,0.434-0.636,0.569-1.049c0.138-0.412,0.207-0.883,0.207-1.411c0-0.517-0.062-0.954-0.183-1.312
		c-0.121-0.358-0.28-0.649-0.479-0.875c-0.198-0.227-0.427-0.392-0.687-0.495c-0.258-0.104-0.524-0.157-0.801-0.157
		c-0.352,0-0.646,0.072-0.883,0.215c-0.236,0.144-0.429,0.324-0.577,0.545s-0.267,0.471-0.354,0.751
		c-0.089,0.28-0.159,0.554-0.215,0.816c-0.144,0.66-0.277,1.291-0.404,1.891c-0.126,0.601-0.306,1.128-0.536,1.584
		c-0.23,0.457-0.542,0.82-0.934,1.091c-0.391,0.27-0.916,0.403-1.575,0.403c-0.539,0-1.019-0.104-1.437-0.312
		s-0.765-0.507-1.04-0.893c-0.274-0.385-0.483-0.848-0.627-1.387s-0.215-1.133-0.215-1.782c0-0.716,0.091-1.334,0.272-1.856
		s0.427-0.957,0.733-1.305c0.308-0.347,0.666-0.609,1.072-0.792c0.407-0.182,0.831-0.289,1.271-0.321v1.552
		c-0.473,0.056-0.848,0.195-1.122,0.421s-0.48,0.481-0.618,0.768c-0.139,0.287-0.224,0.578-0.257,0.875
		c-0.032,0.298-0.05,0.533-0.05,0.71c0,0.804,0.174,1.449,0.521,1.938c0.347,0.49,0.816,0.735,1.412,0.735
		c0.352,0,0.635-0.08,0.85-0.239c0.215-0.16,0.391-0.372,0.528-0.636c0.138-0.266,0.245-0.569,0.32-0.916
		c0.077-0.348,0.154-0.713,0.231-1.099c0.099-0.518,0.212-1.037,0.339-1.56c0.126-0.522,0.316-0.996,0.569-1.42
		s0.591-0.769,1.015-1.031c0.424-0.265,0.982-0.396,1.676-0.396c0.572,0,1.057,0.091,1.452,0.271
		c0.396,0.181,0.725,0.415,0.982,0.701s0.459,0.604,0.603,0.958c0.144,0.352,0.247,0.695,0.313,1.031
		c0.064,0.336,0.104,0.648,0.114,0.939c0.012,0.292,0.018,0.516,0.018,0.669c0,0.407-0.039,0.878-0.115,1.411
		c-0.077,0.534-0.251,1.043-0.521,1.526c-0.271,0.483-0.671,0.898-1.205,1.246c-0.533,0.347-1.257,0.543-2.17,0.586v-1.549H963.285z
		"/>
	<path fill="#58595B" d="M955.396,81.626c0-0.198,0.011-0.471,0.032-0.816c0.021-0.348,0.091-0.725,0.206-1.132
		c0.115-0.406,0.292-0.821,0.528-1.245c0.236-0.425,0.565-0.807,0.99-1.147c0.424-0.341,0.96-0.618,1.608-0.833
		c0.649-0.215,1.441-0.322,2.377-0.322c0.946,0,1.747,0.105,2.401,0.313c0.654,0.21,1.196,0.483,1.626,0.826
		c0.429,0.341,0.765,0.729,1.007,1.163c0.242,0.434,0.421,0.878,0.536,1.328c0.115,0.451,0.186,0.89,0.206,1.312
		c0.022,0.424,0.033,0.801,0.033,1.131v3.664h-11.554v-4.242H955.396z M965.646,84.316v-2.163c0-1.485-0.36-2.585-1.081-3.301
		c-0.722-0.715-1.853-1.073-3.394-1.073c-0.869,0-1.593,0.113-2.17,0.339c-0.578,0.226-1.037,0.522-1.378,0.892
		c-0.342,0.368-0.581,0.786-0.719,1.255c-0.138,0.468-0.206,0.948-0.206,1.443v2.608H965.646z"/>
	<path fill="#58595B" d="M955.396,66.738v-2.097l4.753,4.818l6.801-5.133v2.063l-5.761,4.209l1.8,1.849h3.961V74h-11.554v-1.551
		h5.728L955.396,66.738z"/>
</g>
</svg>
