<?xml version="1.0" encoding="utf-8"?>
<!-- Generator: Adobe Illustrator 16.0.0, SVG Export Plug-In . SVG Version: 6.00 Build 0)  -->
<!DOCTYPE svg PUBLIC "-//W3C//DTD SVG 1.1//EN" "http://www.w3.org/Graphics/SVG/1.1/DTD/svg11.dtd">
<svg version="1.1" id="Layer_1" xmlns="http://www.w3.org/2000/svg" xmlns:xlink="http://www.w3.org/1999/xlink" x="0px" y="0px"
	 width="1030px" height="218.4px" viewBox="0 0 1030 218.4" style="enable-background:new 0 0 1030 218.4;" xml:space="preserve">
<style type="text/css">
<![CDATA[
	.st0{fill:#464646;}
	.st1{fill:none;stroke:#808080;stroke-miterlimit:10;stroke-dasharray:2.3954,1.597;}
	.st2{fill:none;stroke:#58595B;stroke-width:0.917;stroke-miterlimit:10;}
	.st3{fill:#FFFFFF;stroke:#58595B;stroke-width:0.7887;stroke-linecap:round;stroke-linejoin:round;stroke-miterlimit:10;}
	.st4{fill:none;stroke:#DDDDDD;stroke-miterlimit:10;stroke-dasharray:1;}
	.st5{fill:#808080;}
	.st6{fill:#58595B;}
	.st7{fill:#F7F7F7;}
	.st8{fill:#FFFFFF;}
	.st9{fill:none;stroke:#808080;stroke-miterlimit:10;}
	.st10{fill:#69B26D;stroke:#FFFFFF;stroke-width:0.25;stroke-miterlimit:10;}
	.st11{font-family:'Pragmatica';}
	.st12{font-size:16;}
	.st13{fill:#FFFFFF;stroke:#58595B;stroke-width:0.917;stroke-miterlimit:10;}
	.st14{fill:none;stroke:#58595B;stroke-width:0.7887;stroke-linecap:round;stroke-linejoin:round;stroke-miterlimit:10;}
	.st15{fill:#A0A0A0;stroke:#FFFFFF;stroke-width:0.25;stroke-miterlimit:10;}
	.st16{fill:#43AB00;}
]]>
</style>
<rect x="275" y="5" class="st7" width="659.3" height="210.1"/>
<g>
	<g>
		<path class="st5" d="M10.9,22.3V8.8h4.8c2,0,3.7,0.6,4.9,1.8s1.8,2.9,1.8,4.9s-0.6,3.7-1.8,4.9c-1.2,1.2-2.8,1.8-4.9,1.8H10.9z
			 M13.7,19.9h1.9c1.3,0,2.3-0.4,3-1.1c0.7-0.8,1-1.8,1-3.1c0-1.3-0.3-2.4-1-3.2c-0.7-0.8-1.7-1.1-3-1.1h-1.9V19.9z"/>
		<path class="st5" d="M25,22.3V8.8h9.2v2.5h-6.4v3h5.8v2.4h-5.8v3.2h6.4v2.5H25z"/>
		<path class="st5" d="M36,8.8h3l3.5,9.8L46,8.8h2.9l-5.1,13.5h-2.7L36,8.8z"/>
		<path class="st5" d="M51.1,22.3V8.8h9.2v2.5h-6.4v3h5.8v2.4h-5.8v3.2h6.4v2.5H51.1z"/>
		<path class="st5" d="M63.1,22.3V8.8H66v11h6.3v2.5H63.1z"/>
		<path class="st5" d="M73.7,15.6c0-1.3,0.3-2.5,0.8-3.6c0.5-1.1,1.3-1.9,2.3-2.5c1-0.6,2.1-0.9,3.3-0.9s2.3,0.3,3.3,0.9
			c1,0.6,1.7,1.4,2.3,2.5c0.5,1.1,0.8,2.3,0.8,3.6s-0.3,2.5-0.8,3.6c-0.5,1.1-1.3,1.9-2.3,2.5c-1,0.6-2.1,0.9-3.3,0.9
			c-1.2,0-2.3-0.3-3.3-0.9c-1-0.6-1.7-1.4-2.3-2.5C74,18.1,73.7,16.9,73.7,15.6z M77.6,12.3c-0.6,0.8-1,1.9-1,3.2s0.3,2.4,1,3.2
			c0.6,0.8,1.5,1.2,2.6,1.2c1.1,0,1.9-0.4,2.6-1.2c0.7-0.8,1-1.9,1-3.2c0-1.3-0.3-2.4-1-3.2c-0.7-0.8-1.5-1.2-2.6-1.2
			C79.1,11.1,78.2,11.5,77.6,12.3z"/>
		<path class="st5" d="M89.1,22.3V8.8h5.5c1.5,0,2.6,0.4,3.5,1.1c0.9,0.8,1.3,1.9,1.3,3.3c0,1.4-0.4,2.5-1.3,3.2
			c-0.9,0.8-2,1.1-3.5,1.1h-2.7v4.7L89.1,22.3L89.1,22.3z M91.9,15.2h2.5c0.7,0,1.2-0.2,1.6-0.6c0.4-0.4,0.6-0.9,0.6-1.5
			c0-0.6-0.2-1.1-0.5-1.5c-0.4-0.4-0.9-0.5-1.6-0.5h-2.5V15.2z"/>
	</g>
</g>
<g>
	<g>
		<path class="st6" d="M363.4,102.3c0,0.4-0.1,0.8-0.3,1.2c-0.1,0.4-0.4,0.8-0.7,1.2c-0.3,0.4-0.8,0.7-1.3,0.9
			c-0.5,0.2-1.2,0.4-2,0.4c-0.8,0-1.4-0.1-2.1-0.4c-0.6-0.2-1.1-0.6-1.5-1c-0.4-0.5-0.7-1-1-1.7c-0.2-0.7-0.3-1.4-0.3-2.2
			c0-0.9,0.1-1.7,0.3-2.3c0.2-0.6,0.5-1.2,0.8-1.6c0.3-0.4,0.7-0.7,1-1s0.8-0.4,1.1-0.5c0.4-0.1,0.7-0.2,1-0.2c0.3,0,0.5,0,0.7,0
			c0.8,0,1.5,0.1,2,0.3c0.5,0.2,1,0.5,1.3,0.8c0.3,0.3,0.5,0.7,0.7,1.1c0.1,0.4,0.2,0.8,0.3,1.2h-1.4c0-0.2-0.1-0.4-0.2-0.7
			c-0.1-0.3-0.2-0.5-0.4-0.8s-0.5-0.5-0.9-0.6s-0.8-0.3-1.4-0.3c-0.6,0-1.2,0.1-1.6,0.4c-0.4,0.2-0.8,0.6-1,1s-0.4,0.9-0.6,1.4
			s-0.2,1.1-0.2,1.6c0,0.6,0.1,1.1,0.2,1.7c0.2,0.5,0.4,0.9,0.7,1.3c0.3,0.4,0.7,0.7,1.1,0.9c0.4,0.2,0.9,0.3,1.5,0.3
			c0.4,0,0.8-0.1,1.1-0.2c0.3-0.1,0.6-0.3,0.9-0.5c0.3-0.2,0.5-0.5,0.6-0.8c0.2-0.3,0.2-0.6,0.3-1L363.4,102.3L363.4,102.3z"/>
		<path class="st6" d="M371.7,103.5c0,0.3-0.1,0.5-0.3,0.8c-0.1,0.3-0.3,0.6-0.6,0.8c-0.2,0.2-0.6,0.4-1,0.6s-0.9,0.2-1.5,0.2
			c-0.6,0-1.1-0.1-1.6-0.2c-0.4-0.2-0.8-0.4-1.1-0.6c-0.3-0.3-0.5-0.5-0.7-0.9c-0.2-0.3-0.3-0.6-0.3-0.9c-0.1-0.3-0.1-0.6-0.1-0.8
			c0-0.2,0-0.4,0-0.5c0-0.2,0-0.4,0-0.7c0-0.3,0.1-0.6,0.1-0.9c0.1-0.3,0.2-0.6,0.4-0.9s0.4-0.6,0.6-0.8c0.3-0.2,0.6-0.4,1-0.6
			c0.4-0.2,0.9-0.2,1.5-0.2c0.7,0,1.3,0.1,1.8,0.4c0.4,0.3,0.8,0.6,1,1c0.2,0.4,0.4,0.8,0.5,1.3c0.1,0.5,0.1,0.9,0.2,1.3
			c0,0.1,0,0.1,0,0.2c0,0.1,0,0.1,0,0.2H366c0,0.3,0,0.7,0.1,1c0.1,0.3,0.2,0.6,0.4,0.9c0.2,0.3,0.4,0.5,0.7,0.7
			c0.3,0.2,0.7,0.3,1.1,0.3c0.3,0,0.6,0,0.8-0.1c0.2-0.1,0.5-0.2,0.6-0.3c0.2-0.1,0.3-0.3,0.4-0.5c0.1-0.2,0.2-0.4,0.2-0.6
			L371.7,103.5L371.7,103.5z M370.4,101.3c0-0.2,0-0.5-0.1-0.8c-0.1-0.3-0.2-0.6-0.3-0.8c-0.2-0.2-0.4-0.5-0.6-0.6
			c-0.3-0.2-0.6-0.2-1-0.2c-0.5,0-0.9,0.1-1.2,0.3s-0.5,0.4-0.7,0.6c-0.2,0.3-0.3,0.5-0.3,0.8c-0.1,0.3-0.1,0.6-0.1,0.8H370.4z"/>
		<path class="st6" d="M374.7,95.4v10.3h-1.3V95.4H374.7z"/>
		<path class="st6" d="M378.1,95.4v10.3h-1.3V95.4H378.1z"/>
		<path class="st6" d="M387.6,95.4c0.2,0,0.4,0,0.7,0c0.3,0,0.6,0.1,1,0.2c0.4,0.1,0.7,0.3,1.1,0.5c0.4,0.2,0.7,0.5,1,0.9
			c0.3,0.4,0.5,0.9,0.7,1.4c0.2,0.6,0.3,1.3,0.3,2.1c0,0.8-0.1,1.6-0.3,2.1c-0.2,0.6-0.4,1.1-0.7,1.4s-0.6,0.7-1,0.9
			c-0.4,0.2-0.8,0.4-1.2,0.5c-0.4,0.1-0.8,0.2-1.2,0.2c-0.4,0-0.7,0-1,0h-3.3V95.4H387.6z M385.2,104.5h1.9c1.3,0,2.3-0.3,2.9-1
			c0.6-0.6,1-1.6,1-3c0-0.8-0.1-1.4-0.3-1.9c-0.2-0.5-0.5-0.9-0.8-1.2c-0.3-0.3-0.7-0.5-1.1-0.6s-0.8-0.2-1.3-0.2h-2.3V104.5
			L385.2,104.5z"/>
		<path class="st6" d="M400.8,103.5c0,0.3-0.1,0.5-0.3,0.8c-0.1,0.3-0.3,0.6-0.6,0.8c-0.2,0.2-0.6,0.4-1,0.6
			c-0.4,0.2-0.9,0.2-1.5,0.2c-0.6,0-1.1-0.1-1.6-0.2s-0.8-0.4-1.1-0.6c-0.3-0.3-0.5-0.5-0.7-0.9c-0.2-0.3-0.3-0.6-0.3-0.9
			c-0.1-0.3-0.1-0.6-0.1-0.8s0-0.4,0-0.5c0-0.2,0-0.4,0-0.7c0-0.3,0.1-0.6,0.1-0.9c0.1-0.3,0.2-0.6,0.4-0.9c0.2-0.3,0.4-0.6,0.6-0.8
			c0.3-0.2,0.6-0.4,1-0.6c0.4-0.2,0.9-0.2,1.5-0.2c0.7,0,1.3,0.1,1.8,0.4c0.4,0.3,0.8,0.6,1,1c0.2,0.4,0.4,0.8,0.5,1.3
			c0.1,0.5,0.1,0.9,0.2,1.3c0,0.1,0,0.1,0,0.2c0,0.1,0,0.1,0,0.2h-5.7c0,0.3,0,0.7,0.1,1c0.1,0.3,0.2,0.6,0.4,0.9
			c0.2,0.3,0.4,0.5,0.7,0.7c0.3,0.2,0.7,0.3,1.1,0.3c0.3,0,0.6,0,0.8-0.1c0.2-0.1,0.5-0.2,0.6-0.3c0.2-0.1,0.3-0.3,0.4-0.5
			c0.1-0.2,0.2-0.4,0.2-0.6L400.8,103.5L400.8,103.5z M399.5,101.3c0-0.2,0-0.5-0.1-0.8c-0.1-0.3-0.2-0.6-0.3-0.8
			c-0.2-0.2-0.4-0.5-0.6-0.6c-0.3-0.2-0.6-0.2-1-0.2c-0.5,0-0.9,0.1-1.2,0.3s-0.5,0.4-0.7,0.6c-0.2,0.3-0.3,0.5-0.3,0.8
			c-0.1,0.3-0.1,0.6-0.1,0.8H399.5z"/>
		<path class="st6" d="M403.3,103.5c0,0.3,0.1,0.5,0.2,0.7c0.1,0.2,0.3,0.4,0.5,0.5c0.2,0.1,0.4,0.2,0.6,0.3
			c0.2,0.1,0.5,0.1,0.7,0.1c0.4,0,0.8-0.1,1-0.2c0.2-0.1,0.4-0.3,0.5-0.4c0.1-0.2,0.2-0.3,0.2-0.5c0-0.2,0-0.3,0-0.4
			c0-0.1,0-0.2,0-0.3c0-0.1-0.1-0.2-0.2-0.3c-0.1-0.1-0.3-0.2-0.5-0.3s-0.5-0.2-0.9-0.3l-0.8-0.2c-0.3-0.1-0.6-0.1-0.9-0.2
			c-0.3-0.1-0.5-0.2-0.7-0.4s-0.4-0.4-0.5-0.6s-0.2-0.6-0.2-1c0-0.4,0.1-0.8,0.2-1c0.2-0.3,0.4-0.5,0.7-0.7c0.3-0.2,0.6-0.3,0.9-0.3
			c0.3-0.1,0.7-0.1,1-0.1c0.6,0,1.1,0.1,1.5,0.2c0.4,0.2,0.7,0.4,0.9,0.6c0.2,0.2,0.4,0.5,0.4,0.7c0.1,0.3,0.1,0.5,0.1,0.7H407
			c0-0.1,0-0.2-0.1-0.4c0-0.2-0.1-0.3-0.3-0.4c-0.1-0.1-0.3-0.3-0.5-0.4c-0.2-0.1-0.5-0.1-0.9-0.1c0,0-0.1,0-0.3,0s-0.3,0.1-0.5,0.1
			c-0.2,0.1-0.3,0.2-0.5,0.4c-0.1,0.2-0.2,0.4-0.2,0.7c0,0.3,0.1,0.5,0.2,0.6c0.1,0.2,0.3,0.3,0.5,0.4c0.2,0.1,0.4,0.2,0.7,0.2
			c0.2,0.1,0.5,0.1,0.8,0.2c0.4,0.1,0.7,0.2,1.1,0.3c0.3,0.1,0.6,0.2,0.8,0.4c0.2,0.2,0.4,0.3,0.6,0.6c0.1,0.2,0.2,0.6,0.2,0.9
			c0,0.4-0.1,0.7-0.2,1c-0.1,0.3-0.3,0.5-0.5,0.7c-0.2,0.2-0.4,0.3-0.7,0.4s-0.5,0.2-0.7,0.2c-0.2,0-0.4,0.1-0.6,0.1s-0.3,0-0.3,0
			c-0.6,0-1-0.1-1.4-0.2c-0.4-0.1-0.7-0.3-1-0.5c-0.3-0.2-0.5-0.5-0.6-0.8c-0.1-0.3-0.2-0.6-0.2-1H403.3z"/>
		<path class="st6" d="M416.4,103c0,0.2-0.1,0.5-0.2,0.8c-0.1,0.3-0.3,0.7-0.5,1c-0.2,0.3-0.6,0.6-1,0.8c-0.4,0.2-1,0.3-1.6,0.3
			c-0.1,0-0.3,0-0.5,0c-0.2,0-0.5-0.1-0.7-0.1c-0.3-0.1-0.5-0.2-0.8-0.4c-0.3-0.2-0.5-0.4-0.8-0.7s-0.4-0.7-0.6-1.1
			c-0.1-0.5-0.2-1-0.2-1.7c0-0.4,0-0.9,0.1-1.4c0.1-0.5,0.3-0.9,0.5-1.3c0.3-0.4,0.6-0.7,1.1-1c0.5-0.2,1.1-0.4,1.8-0.4
			c0.5,0,1,0.1,1.4,0.2s0.7,0.3,1,0.6c0.3,0.2,0.5,0.5,0.6,0.8c0.2,0.3,0.2,0.6,0.3,1h-1.2c-0.1-0.4-0.2-0.7-0.4-1
			c-0.2-0.2-0.4-0.4-0.6-0.5c-0.2-0.1-0.4-0.2-0.6-0.2c-0.2,0-0.4,0-0.5,0c-0.4,0-0.7,0.1-1,0.2s-0.5,0.4-0.7,0.7
			c-0.2,0.3-0.3,0.6-0.4,1c-0.1,0.4-0.1,0.8-0.1,1.2s0,0.8,0.1,1.2c0.1,0.4,0.2,0.7,0.4,1c0.2,0.3,0.4,0.5,0.7,0.7
			c0.3,0.2,0.6,0.3,1.1,0.3c0.4,0,0.7-0.1,0.9-0.2s0.5-0.3,0.6-0.5c0.2-0.2,0.3-0.4,0.3-0.7c0.1-0.2,0.1-0.5,0.1-0.7H416.4z"/>
		<path class="st6" d="M422.2,98.8c-0.4,0-0.8,0.1-1.2,0.2c-0.3,0.1-0.6,0.2-0.9,0.5s-0.4,0.5-0.6,0.8c-0.1,0.3-0.2,0.7-0.3,1.2
			c0,0.1,0,0.3,0,0.4s0,0.3,0,0.4v3.4H418v-7.5h1.3v1.4h0c0.1-0.3,0.2-0.5,0.4-0.7c0.2-0.2,0.4-0.4,0.6-0.5c0.2-0.1,0.5-0.3,0.7-0.3
			s0.5-0.1,0.8-0.1l0.4,0L422.2,98.8L422.2,98.8z"/>
		<path class="st6" d="M423.4,95.4h1.3v1.4h-1.3V95.4z M424.7,98.2v7.5h-1.3v-7.5H424.7z"/>
		<path class="st6" d="M428,98.2v1h0c0.2-0.3,0.4-0.5,0.6-0.7c0.2-0.2,0.4-0.3,0.7-0.4c0.2-0.1,0.4-0.2,0.6-0.2c0.2,0,0.4,0,0.6,0
			c0.5,0,0.9,0.1,1.3,0.2c0.4,0.2,0.8,0.4,1.1,0.7c0.3,0.3,0.5,0.7,0.7,1.3c0.2,0.5,0.3,1.1,0.3,1.8c0,0.7-0.1,1.3-0.3,1.8
			c-0.2,0.5-0.4,0.9-0.7,1.2c-0.3,0.3-0.7,0.6-1.1,0.7c-0.4,0.1-0.8,0.2-1.2,0.2c-0.1,0-0.2,0-0.4,0c-0.2,0-0.4-0.1-0.7-0.2
			c-0.2-0.1-0.5-0.2-0.7-0.4c-0.2-0.2-0.5-0.4-0.6-0.8v3.8h-1.3V98.2H428z M428,102c0,0.6,0.1,1.1,0.2,1.5c0.1,0.4,0.3,0.7,0.6,1
			c0.2,0.2,0.5,0.4,0.7,0.5c0.3,0.1,0.5,0.2,0.8,0.2c0.3,0,0.5-0.1,0.8-0.2c0.3-0.1,0.5-0.3,0.7-0.5c0.2-0.2,0.4-0.6,0.5-1
			c0.1-0.4,0.2-0.9,0.2-1.5c0-1-0.2-1.7-0.6-2.3c-0.4-0.6-1-0.8-1.7-0.8c-0.2,0-0.4,0-0.6,0.1c-0.3,0.1-0.5,0.2-0.7,0.4
			c-0.2,0.2-0.4,0.5-0.6,0.9S428,101.3,428,102z"/>
		<path class="st6" d="M436,98.2V96h1.3v2.2h1.6v0.9h-1.6v4.7c0,0.1,0,0.3,0,0.4c0,0.1,0,0.2,0.1,0.3c0,0.1,0.1,0.2,0.2,0.2
			c0.1,0.1,0.3,0.1,0.5,0.1c0.1,0,0.3,0,0.4,0c0.1,0,0.3-0.1,0.4-0.1v0.9c-0.2,0.1-0.4,0.2-0.7,0.2c-0.2,0.1-0.5,0.1-0.7,0.1
			c-0.4,0-0.7-0.1-0.9-0.2c-0.2-0.1-0.4-0.3-0.5-0.4c-0.1-0.2-0.1-0.4-0.2-0.6s0-0.4,0-0.6v-5h-1.3v-0.9H436z"/>
		<path class="st6" d="M440.2,95.4h1.3v1.4h-1.3V95.4z M441.5,98.2v7.5h-1.3v-7.5H441.5z"/>
		<path class="st6" d="M443.1,102c0-0.5,0.1-1,0.2-1.5c0.1-0.5,0.3-0.9,0.6-1.3c0.3-0.4,0.7-0.7,1.1-0.9s1-0.4,1.7-0.4
			s1.2,0.1,1.7,0.4c0.5,0.2,0.8,0.5,1.1,0.9c0.3,0.4,0.5,0.8,0.6,1.3c0.1,0.5,0.2,1,0.2,1.5s-0.1,1-0.2,1.5
			c-0.1,0.5-0.3,0.9-0.6,1.3s-0.7,0.7-1.1,0.9c-0.5,0.2-1,0.4-1.7,0.4s-1.2-0.1-1.7-0.4c-0.5-0.2-0.8-0.5-1.1-0.9
			c-0.3-0.4-0.5-0.8-0.6-1.3C443.2,102.9,443.1,102.5,443.1,102z M444.5,102c0,0.7,0.1,1.3,0.3,1.7c0.2,0.4,0.4,0.7,0.7,0.9
			c0.3,0.2,0.5,0.3,0.8,0.4s0.5,0.1,0.6,0.1s0.3,0,0.6-0.1c0.3,0,0.5-0.2,0.8-0.4c0.3-0.2,0.5-0.5,0.7-0.9c0.2-0.4,0.3-1,0.3-1.7
			s-0.1-1.3-0.3-1.7c-0.2-0.4-0.4-0.7-0.7-0.9c-0.3-0.2-0.5-0.3-0.8-0.4c-0.3,0-0.5-0.1-0.6-0.1c-0.1,0-0.3,0-0.6,0.1
			s-0.5,0.2-0.8,0.4c-0.3,0.2-0.5,0.5-0.7,0.9C444.6,100.6,444.5,101.2,444.5,102z"/>
		<path class="st6" d="M453.5,98.2v1c0.3-0.4,0.6-0.7,1-0.9c0.4-0.3,0.9-0.4,1.5-0.4c0.5,0,0.9,0.1,1.2,0.2c0.3,0.2,0.6,0.4,0.7,0.6
			c0.2,0.3,0.3,0.5,0.4,0.9c0.1,0.3,0.1,0.7,0.1,1.1v5h-1.3v-4.6c0-0.2,0-0.4,0-0.7c0-0.3-0.1-0.5-0.2-0.7c-0.1-0.2-0.2-0.4-0.5-0.6
			s-0.5-0.2-0.9-0.2c-0.2,0-0.4,0-0.6,0.1c-0.2,0.1-0.5,0.2-0.7,0.4c-0.2,0.2-0.4,0.5-0.6,0.8c-0.2,0.4-0.2,0.9-0.2,1.5v4.1h-1.3
			v-7.5L453.5,98.2L453.5,98.2z"/>
	</g>
</g>
<g>
	<g>
		<path class="st8" d="M412.1,20.5c-0.8-0.7-2.2-1.2-3.2-1.2h-24.1c-1,0-1.8,0.8-1.8,1.8V75c0,1,0.8,1.8,1.8,1.8h43.4
			c1,0,1.8-0.8,1.8-1.8V37.9c0-1-0.6-2.4-1.4-3L412.1,20.5z"/>
		<path class="st2" d="M412.1,20.5c-0.8-0.7-2.2-1.2-3.2-1.2h-24.1c-1,0-1.8,0.8-1.8,1.8V75c0,1,0.8,1.8,1.8,1.8h43.4
			c1,0,1.8-0.8,1.8-1.8V37.9c0-1-0.6-2.4-1.4-3L412.1,20.5z"/>
	</g>
	<rect x="392.9" y="48.1" class="st13" width="27.2" height="5.2"/>
	<rect x="392.9" y="60.6" class="st13" width="27.2" height="5.2"/>
	<polyline class="st2" points="430.1,36 410.7,36 410.7,19.3 	"/>
</g>
<g>
	<g>
		<path class="st6" d="M500.7,187.4c0,0.4-0.1,0.8-0.3,1.2c-0.1,0.4-0.4,0.8-0.7,1.2c-0.3,0.4-0.8,0.7-1.3,0.9
			c-0.5,0.2-1.2,0.4-2,0.4c-0.8,0-1.4-0.1-2.1-0.4c-0.6-0.2-1.1-0.6-1.5-1c-0.4-0.5-0.7-1-1-1.7c-0.2-0.6-0.3-1.4-0.3-2.2
			c0-0.9,0.1-1.7,0.3-2.3s0.5-1.2,0.8-1.6c0.3-0.4,0.7-0.7,1-1c0.4-0.2,0.8-0.4,1.1-0.5c0.4-0.1,0.7-0.2,1-0.2c0.3,0,0.5,0,0.7,0
			c0.8,0,1.5,0.1,2,0.3c0.5,0.2,1,0.5,1.3,0.8c0.3,0.3,0.5,0.7,0.7,1.1c0.1,0.4,0.2,0.8,0.3,1.2h-1.4c0-0.2-0.1-0.4-0.2-0.7
			s-0.2-0.5-0.4-0.8c-0.2-0.2-0.5-0.5-0.9-0.6c-0.4-0.2-0.8-0.3-1.4-0.3c-0.6,0-1.2,0.1-1.6,0.4c-0.4,0.2-0.8,0.6-1,1
			c-0.3,0.4-0.4,0.9-0.6,1.4s-0.2,1.1-0.2,1.6c0,0.6,0.1,1.1,0.2,1.7c0.2,0.5,0.4,0.9,0.7,1.3s0.7,0.7,1.1,0.9
			c0.4,0.2,0.9,0.3,1.5,0.3c0.4,0,0.8-0.1,1.1-0.2c0.3-0.1,0.6-0.3,0.9-0.5c0.3-0.2,0.5-0.5,0.6-0.8c0.2-0.3,0.2-0.6,0.3-1
			L500.7,187.4L500.7,187.4z"/>
		<path class="st6" d="M508.9,188.7c0,0.3-0.1,0.5-0.3,0.8c-0.1,0.3-0.3,0.6-0.6,0.8c-0.2,0.2-0.6,0.4-1,0.6
			c-0.4,0.2-0.9,0.2-1.5,0.2c-0.6,0-1.1-0.1-1.6-0.2s-0.8-0.4-1.1-0.6c-0.3-0.3-0.5-0.5-0.7-0.9c-0.2-0.3-0.3-0.6-0.3-0.9
			c-0.1-0.3-0.1-0.6-0.1-0.8c0-0.2,0-0.4,0-0.5c0-0.2,0-0.4,0-0.7c0-0.3,0.1-0.6,0.1-0.9s0.2-0.6,0.4-0.9c0.2-0.3,0.4-0.6,0.6-0.8
			s0.6-0.4,1-0.6c0.4-0.2,0.9-0.2,1.5-0.2c0.7,0,1.3,0.1,1.8,0.4c0.4,0.3,0.8,0.6,1,1c0.2,0.4,0.4,0.8,0.5,1.3
			c0.1,0.5,0.1,0.9,0.2,1.3c0,0.1,0,0.1,0,0.2c0,0.1,0,0.1,0,0.2h-5.7c0,0.3,0,0.7,0.1,1c0.1,0.3,0.2,0.6,0.4,0.9
			c0.2,0.3,0.4,0.5,0.7,0.7c0.3,0.2,0.7,0.3,1.1,0.3c0.3,0,0.6,0,0.8-0.1c0.2-0.1,0.5-0.2,0.6-0.3c0.2-0.1,0.3-0.3,0.4-0.5
			c0.1-0.2,0.2-0.4,0.2-0.6L508.9,188.7L508.9,188.7z M507.6,186.5c0-0.2,0-0.5-0.1-0.8c-0.1-0.3-0.2-0.6-0.3-0.8
			c-0.2-0.2-0.4-0.5-0.6-0.6c-0.3-0.2-0.6-0.2-1-0.2c-0.5,0-0.9,0.1-1.2,0.3c-0.3,0.2-0.5,0.4-0.7,0.6c-0.2,0.3-0.3,0.5-0.3,0.8
			c-0.1,0.3-0.1,0.6-0.1,0.8H507.6L507.6,186.5z"/>
		<path class="st6" d="M511.9,180.6v10.3h-1.3v-10.3H511.9z"/>
		<path class="st6" d="M515.3,180.6v10.3H514v-10.3H515.3z"/>
		<path class="st6" d="M522.4,180.6v10.3h-1.4v-10.3H522.4z"/>
		<path class="st6" d="M526,183.4v1l0,0.1c0.1-0.2,0.2-0.4,0.4-0.6c0.2-0.2,0.4-0.3,0.6-0.4c0.2-0.1,0.4-0.2,0.7-0.3
			c0.2-0.1,0.5-0.1,0.7-0.1c0.3,0,0.6,0,0.9,0.1c0.2,0.1,0.5,0.2,0.6,0.4c0.2,0.2,0.3,0.3,0.4,0.5c0.1,0.2,0.2,0.4,0.2,0.6
			c0.1-0.1,0.2-0.3,0.3-0.5c0.1-0.2,0.3-0.4,0.5-0.5c0.2-0.2,0.5-0.3,0.7-0.4c0.3-0.1,0.6-0.2,1-0.2c0.6,0,1,0.1,1.3,0.3
			c0.3,0.2,0.6,0.5,0.7,0.8c0.2,0.3,0.3,0.6,0.3,1c0,0.3,0.1,0.6,0.1,0.8v4.8h-1.3v-4.7c0-0.2,0-0.4,0-0.7c0-0.2-0.1-0.5-0.2-0.7
			c-0.1-0.2-0.2-0.4-0.4-0.5c-0.2-0.1-0.5-0.2-0.8-0.2c-0.2,0-0.4,0-0.7,0.1s-0.4,0.2-0.6,0.4c-0.2,0.2-0.3,0.4-0.5,0.7
			c-0.1,0.3-0.2,0.7-0.2,1.2v4.4h-1.3v-4.7c0-0.3,0-0.5-0.1-0.8c0-0.3-0.1-0.5-0.2-0.7c-0.1-0.2-0.3-0.4-0.4-0.5
			c-0.2-0.1-0.4-0.2-0.7-0.2c-0.3,0-0.5,0.1-0.8,0.2c-0.2,0.1-0.5,0.3-0.6,0.5c-0.2,0.2-0.3,0.5-0.4,0.8c-0.1,0.3-0.2,0.6-0.2,1v4.4
			h-1.3v-7.5L526,183.4L526,183.4z"/>
		<path class="st6" d="M537.3,185.6c0-0.2,0-0.5,0.1-0.8c0.1-0.3,0.2-0.6,0.5-0.8c0.2-0.2,0.6-0.5,1-0.6c0.4-0.2,1-0.2,1.6-0.2
			c0.3,0,0.6,0,1,0.1c0.3,0.1,0.7,0.2,1,0.4s0.5,0.4,0.7,0.8c0.2,0.3,0.3,0.8,0.3,1.3l-0.1,3.4c0,0.1,0,0.3,0,0.4
			c0,0.1,0,0.2,0.1,0.3c0,0.1,0.1,0.1,0.2,0.2c0.1,0,0.3,0.1,0.5,0v0.9c-0.1,0-0.2,0-0.3,0c-0.1,0-0.2,0-0.3,0c-0.2,0-0.3,0-0.5,0
			c-0.2,0-0.3-0.1-0.4-0.1c-0.1-0.1-0.2-0.2-0.3-0.3c-0.1-0.1-0.1-0.3-0.2-0.6c-0.1,0.2-0.3,0.4-0.5,0.6c-0.2,0.2-0.4,0.3-0.6,0.4
			c-0.2,0.1-0.5,0.2-0.7,0.2c-0.2,0-0.5,0.1-0.8,0.1c-0.8,0-1.4-0.2-1.9-0.5c-0.5-0.4-0.7-0.9-0.7-1.7c0-0.3,0-0.6,0.1-0.9
			c0.1-0.3,0.3-0.5,0.6-0.7c0.3-0.2,0.6-0.4,1.1-0.5c0.5-0.1,1.1-0.2,1.8-0.3c0.3,0,0.5,0,0.7-0.1c0.2,0,0.3-0.1,0.4-0.1
			c0.1-0.1,0.2-0.2,0.2-0.3c0-0.1,0.1-0.3,0.1-0.6c0-0.1,0-0.2,0-0.4c0-0.2-0.1-0.3-0.2-0.5c-0.1-0.2-0.3-0.3-0.5-0.4
			c-0.2-0.1-0.5-0.2-1-0.2c-0.1,0-0.3,0-0.5,0c-0.2,0-0.4,0.1-0.7,0.2c-0.2,0.1-0.4,0.3-0.6,0.5c-0.2,0.2-0.2,0.5-0.2,0.9H537.3
			L537.3,185.6z M542.1,187c-0.1,0.1-0.2,0.1-0.3,0.2s-0.2,0.1-0.3,0.1c-0.1,0-0.3,0-0.4,0.1c-0.2,0-0.3,0-0.5,0.1
			c-0.3,0-0.6,0.1-0.8,0.1s-0.5,0.1-0.7,0.2c-0.2,0.1-0.3,0.2-0.5,0.4c-0.1,0.2-0.2,0.4-0.2,0.7c0,0.4,0.1,0.8,0.4,1
			c0.3,0.2,0.6,0.4,1,0.4c0.3,0,0.5,0,0.8-0.1c0.3-0.1,0.5-0.2,0.7-0.4c0.2-0.2,0.4-0.5,0.5-0.8c0.1-0.3,0.2-0.8,0.3-1.3L542.1,187z
			"/>
		<path class="st6" d="M547,191.7c0.1,0.2,0.2,0.4,0.3,0.5c0.1,0.1,0.3,0.2,0.5,0.3c0.2,0.1,0.4,0.1,0.6,0.2c0.2,0,0.4,0,0.6,0
			c0.5,0,0.9-0.1,1.2-0.3c0.3-0.2,0.5-0.4,0.6-0.7c0.1-0.3,0.2-0.5,0.2-0.8c0-0.3,0-0.4,0-0.5v-0.8c-0.2,0.3-0.3,0.5-0.5,0.7
			c-0.2,0.2-0.3,0.3-0.5,0.5c-0.2,0.1-0.4,0.2-0.6,0.3c-0.2,0.1-0.5,0.1-0.7,0.1c-0.4,0-0.9-0.1-1.3-0.2s-0.8-0.4-1.1-0.7
			c-0.3-0.3-0.6-0.7-0.7-1.3c-0.2-0.5-0.3-1.1-0.3-1.9c0-0.1,0-0.3,0-0.5c0-0.2,0-0.5,0.1-0.8c0.1-0.3,0.2-0.6,0.3-0.9
			c0.1-0.3,0.3-0.6,0.6-0.9c0.2-0.3,0.5-0.5,0.9-0.6c0.4-0.2,0.8-0.2,1.4-0.2c0.6,0,1.1,0.1,1.6,0.3c0.4,0.2,0.8,0.6,1,1h0v-1h1.2
			v7.3c0,0.5-0.1,0.9-0.2,1.2c-0.1,0.3-0.3,0.6-0.5,0.8c-0.2,0.2-0.4,0.4-0.7,0.5s-0.5,0.2-0.8,0.3c-0.2,0.1-0.5,0.1-0.7,0.1
			s-0.4,0-0.5,0c-0.2,0-0.4,0-0.7,0c-0.3,0-0.6-0.1-1-0.2c-0.3-0.1-0.6-0.3-0.9-0.6c-0.3-0.3-0.5-0.7-0.6-1.2H547z M548.9,190.2
			c0.1,0,0.3,0,0.5-0.1c0.2-0.1,0.5-0.2,0.7-0.4c0.2-0.2,0.5-0.5,0.6-1c0.2-0.4,0.3-1,0.3-1.7c0-0.9-0.2-1.7-0.6-2.2
			c-0.4-0.5-1-0.8-1.7-0.8c-0.4,0-0.7,0.1-0.9,0.2s-0.5,0.3-0.6,0.5c-0.2,0.2-0.3,0.4-0.4,0.6c-0.1,0.2-0.1,0.5-0.2,0.7
			c0,0.2-0.1,0.4-0.1,0.6c0,0.2,0,0.3,0,0.4c0,0.8,0.1,1.3,0.3,1.8c0.2,0.4,0.4,0.8,0.6,1c0.2,0.2,0.5,0.3,0.8,0.4
			C548.6,190.2,548.8,190.2,548.9,190.2z"/>
		<path class="st6" d="M561,188.7c0,0.3-0.1,0.5-0.3,0.8c-0.1,0.3-0.3,0.6-0.6,0.8c-0.2,0.2-0.6,0.4-1,0.6c-0.4,0.2-0.9,0.2-1.5,0.2
			c-0.6,0-1.1-0.1-1.6-0.2s-0.8-0.4-1.1-0.6c-0.3-0.3-0.5-0.5-0.7-0.9c-0.2-0.3-0.3-0.6-0.3-0.9c-0.1-0.3-0.1-0.6-0.1-0.8
			c0-0.2,0-0.4,0-0.5c0-0.2,0-0.4,0-0.7c0-0.3,0.1-0.6,0.1-0.9s0.2-0.6,0.4-0.9c0.2-0.3,0.4-0.6,0.6-0.8c0.3-0.2,0.6-0.4,1-0.6
			c0.4-0.2,0.9-0.2,1.5-0.2c0.7,0,1.3,0.1,1.8,0.4c0.4,0.3,0.8,0.6,1,1c0.2,0.4,0.4,0.8,0.5,1.3c0.1,0.5,0.1,0.9,0.2,1.3
			c0,0.1,0,0.1,0,0.2c0,0.1,0,0.1,0,0.2h-5.7c0,0.3,0,0.7,0.1,1c0.1,0.3,0.2,0.6,0.4,0.9c0.2,0.3,0.4,0.5,0.7,0.7
			c0.3,0.2,0.7,0.3,1.1,0.3c0.3,0,0.6,0,0.8-0.1c0.2-0.1,0.5-0.2,0.6-0.3c0.2-0.1,0.3-0.3,0.4-0.5c0.1-0.2,0.2-0.4,0.2-0.6
			L561,188.7L561,188.7z M559.8,186.5c0-0.2,0-0.5-0.1-0.8c-0.1-0.3-0.2-0.6-0.3-0.8c-0.2-0.2-0.4-0.5-0.6-0.6
			c-0.3-0.2-0.6-0.2-1-0.2c-0.5,0-0.9,0.1-1.2,0.3c-0.3,0.2-0.5,0.4-0.7,0.6c-0.2,0.3-0.3,0.5-0.3,0.8c-0.1,0.3-0.1,0.6-0.1,0.8
			H559.8L559.8,186.5z"/>
	</g>
</g>
<g>
	<g>
		<path class="st16" d="M749.9,94.1c-0.1-0.1-0.3-0.1-0.4,0l-2.4,2.4c-0.1,0.1-0.3,0.2-0.4,0.3c0,0-0.4,0.3-0.7,0.4
			c-0.4,0.2-0.9,0.2-0.9,0.2c-0.1,0-0.4,0-0.5,0h-5c-0.1,0-0.4,0-0.5,0c0,0-0.6-0.1-1-0.3c-0.3-0.2-0.6-0.4-0.6-0.4
			c-0.1-0.1-0.3-0.2-0.4-0.3l-3.5-3.5c-0.1-0.1-0.2-0.3-0.3-0.4c0,0-0.2-0.3-0.4-0.6c-0.2-0.4-0.3-1-0.3-1c0-0.1,0-0.4,0-0.5v-5
			c0-0.1,0-0.4,0-0.5c0,0,0.1-0.5,0.2-0.9c0.2-0.4,0.5-0.8,0.5-0.8c0.1-0.1,0.2-0.3,0.3-0.4l3.5-3.5c0.1-0.1,0.3-0.2,0.4-0.3
			c0,0,0.3-0.3,0.7-0.4c0.4-0.2,1-0.3,1-0.3c0.1,0,0.4,0,0.5,0h5c0.1,0,0.4,0,0.5,0c0,0,0.5,0.1,0.9,0.2c0.4,0.2,0.8,0.5,0.8,0.5
			c0.1,0.1,0.3,0.2,0.4,0.3l2.2,2.2c0.1,0.1,0.3,0.1,0.4,0l1.1-1.1c0.1-0.1,0.1-0.3,0-0.4l-2.8-2.8c-0.1-0.1-0.3-0.2-0.4-0.3
			c0,0-0.4-0.3-0.8-0.5s-0.9-0.2-0.9-0.2c-0.1,0-0.4,0-0.5,0h-6.7c-0.1,0-0.4,0-0.5,0c0,0-0.5,0.1-0.9,0.2c-0.4,0.2-0.8,0.5-0.8,0.5
			c-0.1,0.1-0.3,0.2-0.4,0.3l-4.7,4.7c-0.1,0.1-0.2,0.3-0.3,0.4c0,0-0.3,0.3-0.4,0.7c-0.2,0.4-0.3,1-0.3,1c0,0.1,0,0.4,0,0.5v6.7
			c0,0.1,0,0.4,0,0.5c0,0,0.1,0.5,0.2,0.9c0.2,0.4,0.5,0.8,0.5,0.8c0.1,0.1,0.2,0.3,0.3,0.4l4.7,4.7c0.1,0.1,0.3,0.2,0.4,0.3
			c0,0,0.4,0.3,0.7,0.4c0.4,0.2,0.9,0.3,0.9,0.3c0.1,0,0.4,0,0.5,0h6.7c0.1,0,0.4,0,0.5,0c0,0,0.5-0.1,0.8-0.2
			c0.4-0.2,0.8-0.5,0.8-0.5c0.1-0.1,0.3-0.2,0.4-0.3l3-3c0.1-0.1,0.1-0.3,0-0.4L749.9,94.1z"/>
	</g>
	<path class="st0" d="M746.1,90.4c-0.1-0.1-0.3-0.1-0.4,0c0,0-1.3,2.1-3.7,2.1c-2.5,0-4.5-2.1-4.5-4.7c0-2.6,2-4.7,4.5-4.7
		c2.6,0,3.7,2.1,3.7,2.1c0.1,0.1,0.3,0.1,0.4,0l1.4-1.5c0.1-0.1,0.1-0.3,0-0.4c0,0-1.8-2.8-5.5-2.8c-3.9,0-7,3.3-7,7.3
		c0,4,3.1,7.3,7,7.3c3.7,0,5.5-2.8,5.5-2.8c0.1-0.1,0.1-0.3,0-0.4L746.1,90.4z"/>
	<g>
		<path class="st0" d="M758.5,89.3c-0.5,2.1-2.1,3.3-4.5,3.3c-2.9,0-4.9-1.8-4.9-4.8s2.1-5,4.9-5c3,0,4.6,2.1,4.6,4.6v0.8h-7
			c0.1,1.5,1.2,2.4,2.5,2.4c1.2,0,2-0.5,2.4-1.6L758.5,89.3z M756.1,87c0-1.2-0.7-2.3-2.1-2.3c-1.4,0-2.2,1-2.3,2.3H756.1z"/>
		<path class="st0" d="M785.8,85.9c-0.5-0.3-0.9-0.4-1.5-0.4c-1.3,0-2.2,0.9-2.2,2.6v4.6h-2.5v-9.3h2.5v1.8c0.3-1.1,1.3-2,2.6-2
			c0.6,0,1,0.1,1.3,0.4L785.8,85.9z"/>
		<path class="st0" d="M777.9,89.3c-0.5,2.1-2.1,3.3-4.5,3.3c-2.9,0-4.9-1.8-4.9-4.8s2.1-5,4.9-5c3,0,4.6,2.1,4.6,4.6v0.8h-7
			c0.1,1.5,1.2,2.4,2.5,2.4c1.2,0,2-0.5,2.4-1.6L777.9,89.3z M775.5,87c0-1.2-0.7-2.3-2.1-2.3c-1.4,0-2.2,1-2.3,2.3H775.5z"/>
		<rect x="764.3" y="80.8" class="st0" width="2.5" height="11.9"/>
		<rect x="760.2" y="80.8" class="st0" width="2.5" height="11.9"/>
		<path class="st0" d="M794.2,83.1v4.6c0,1.5-0.8,2.7-2,2.7c-1.2,0-1.8-0.8-1.8-2.2v-5.2h-2.5v5.7c0,2,0.9,3.7,3.3,3.7
			c1.4,0,2.5-0.4,3-1.4v0.8c0,1.3-0.5,2.7-2.2,2.7c-0.6,0-1.6-0.5-1.9-1.3l-2.5,0.3c0.6,1.8,2.3,2.8,4,2.9c2.6,0.2,5.1-1.1,5.1-5.9
			v-7.4H794.2z"/>
	</g>
</g>
<g>
	<g>
		<path class="st13" d="M740.9,114.9v63.7c0,4.7,17.8,8.5,39.7,8.5s39.7-3.8,39.7-8.5v-63.7H740.9z"/>
		<ellipse class="st13" cx="780.6" cy="114.9" rx="39.7" ry="8.5"/>
	</g>
	<circle class="st4" cx="778.2" cy="157.1" r="13.8"/>
	<g>
		<g>
			<path class="st15" d="M778.4,130.2c-2.3,0-4.2,1.9-4.2,4.2s1.9,4.2,4.2,4.2s4.2-1.9,4.2-4.2S780.8,130.2,778.4,130.2z
				 M778.4,137.3c-1.6,0-2.8-1.3-2.8-2.8s1.3-2.8,2.8-2.8s2.8,1.3,2.8,2.8S780,137.3,778.4,137.3z"/>
		</g>
	</g>
	<g>
		<g>
			<path class="st15" d="M782.6,138.6h-3.1l-1.1,1.1l-1.1-1.1h-3.1c-1.2,0-2.1,0.9-2.1,2.1v5.6c0,1.2,0.9,2.1,2.1,2.1h8.4
				c1.2,0,2.1-0.9,2.1-2.1v-5.6C784.8,139.5,783.8,138.6,782.6,138.6z M783.4,146.3c0,0.4-0.3,0.7-0.7,0.7h-8.4
				c-0.4,0-0.7-0.3-0.7-0.7v-5.6c0-0.4,0.3-0.7,0.7-0.7h2.5l1.7,1.7l1.7-1.7h2.5c0.4,0,0.7,0.3,0.7,0.7V146.3z"/>
		</g>
	</g>
	<g>
		<g>
			<path class="st15" d="M793.2,153.4c-2.3,0-4.2,1.9-4.2,4.2c0,2.3,1.9,4.2,4.2,4.2c2.3,0,4.2-1.9,4.2-4.2
				C797.4,155.3,795.5,153.4,793.2,153.4z M793.2,160.4c-1.6,0-2.8-1.3-2.8-2.8c0-1.6,1.3-2.8,2.8-2.8c1.6,0,2.8,1.3,2.8,2.8
				C796,159.1,794.8,160.4,793.2,160.4z"/>
		</g>
	</g>
	<g>
		<g>
			<path class="st15" d="M797.4,161.8h-3.1l-1.1,1.1l-1.1-1.1H789c-1.2,0-2.1,0.9-2.1,2.1v5.6c0,1.2,0.9,2.1,2.1,2.1h8.4
				c1.2,0,2.1-0.9,2.1-2.1v-5.6C799.5,162.7,798.6,161.8,797.4,161.8z M798.1,169.5c0,0.4-0.3,0.7-0.7,0.7H789
				c-0.4,0-0.7-0.3-0.7-0.7v-5.6c0-0.4,0.3-0.7,0.7-0.7h2.5l1.7,1.7l1.7-1.7h2.5c0.4,0,0.7,0.3,0.7,0.7L798.1,169.5L798.1,169.5z"/>
		</g>
	</g>
	<g>
		<g>
			<path class="st15" d="M763.6,153.5c-2.3,0-4.2,1.9-4.2,4.2c0,2.3,1.9,4.2,4.2,4.2c2.3,0,4.2-1.9,4.2-4.2
				C767.9,155.3,766,153.5,763.6,153.5z M763.6,160.5c-1.6,0-2.8-1.3-2.8-2.8s1.3-2.8,2.8-2.8c1.6,0,2.8,1.3,2.8,2.8
				S765.2,160.5,763.6,160.5z"/>
		</g>
	</g>
	<g>
		<g>
			<path class="st15" d="M767.9,161.8h-3.1l-1.1,1.1l-1.1-1.1h-3.1c-1.2,0-2.1,0.9-2.1,2.1v5.6c0,1.2,0.9,2.1,2.1,2.1h8.4
				c1.2,0,2.1-0.9,2.1-2.1v-5.6C770,162.7,769,161.8,767.9,161.8z M768.6,169.5c0,0.4-0.3,0.7-0.7,0.7h-8.4c-0.4,0-0.7-0.3-0.7-0.7
				v-5.6c0-0.4,0.3-0.7,0.7-0.7h2.5l1.7,1.7l1.7-1.7h2.5c0.4,0,0.7,0.3,0.7,0.7L768.6,169.5L768.6,169.5z"/>
		</g>
	</g>
	<g>
		<g>
			<g id="_x38__1_">
				<g>
					<path class="st10" d="M778.5,151.1c-3.2,0-5.9,2.6-5.9,5.9c0,3.2,2.6,5.9,5.9,5.9c3.2,0,5.9-2.6,5.9-5.9
						C784.4,153.8,781.8,151.1,778.5,151.1z M778.5,162.1c-2.8,0-5.1-2.3-5.1-5.1s2.3-5.1,5.1-5.1c2.8,0,5.1,2.3,5.1,5.1
						S781.4,162.1,778.5,162.1z M780.7,156.6h-1.8v-1.8c0-0.2-0.2-0.4-0.4-0.4s-0.4,0.2-0.4,0.4v1.8h-1.8c-0.2,0-0.4,0.2-0.4,0.4
						c0,0.2,0.2,0.4,0.4,0.4h1.8v1.8c0,0.2,0.2,0.4,0.4,0.4s0.4-0.2,0.4-0.4v-1.8h1.8c0.2,0,0.4-0.2,0.4-0.4
						C781.1,156.8,780.9,156.6,780.7,156.6z"/>
				</g>
			</g>
		</g>
	</g>
	<polygon class="st8" points="774.2,142.1 783.4,142.1 783.4,144.7 773.5,144.7 	"/>
	<polygon class="st8" points="763.6,154.9 765.5,155.6 765.5,159.8 763.6,160.5 	"/>
	<polygon class="st8" points="765.5,164.3 767.9,163.2 768.6,167.4 	"/>
	<polygon class="st8" points="789,167.4 791.5,163.2 789,163.2 788.3,165.9 	"/>
	<polygon class="st8" points="793.2,159.9 790.7,158.4 791.5,154.9 793.2,154.3 	"/>
</g>
<g>
	<g>
		<polyline class="st2" points="401,116.8 401,147.1 487.9,147.1 		"/>
		<g>
			<polygon class="st6" points="486.9,150.8 493.2,147.1 486.9,143.5 			"/>
		</g>
	</g>
</g>
<g>
	<g>
		<line class="st2" x1="570.4" y1="148.8" x2="721.1" y2="148.8"/>
		<g>
			<polygon class="st6" points="720.1,152.4 726.4,148.8 720.1,145.1 			"/>
		</g>
	</g>
</g>
<rect x="620.9" y="137.2" class="st7" width="48.5" height="24.4"/>
<g>
	<g>
		<path class="st6" d="M633.9,142.7c0.5,0,1,0.1,1.4,0.2c0.4,0.1,0.8,0.3,1.1,0.5c0.3,0.2,0.5,0.5,0.7,0.9c0.2,0.4,0.2,0.8,0.2,1.4
			c0,0.5-0.1,0.9-0.2,1.3c-0.1,0.4-0.3,0.7-0.6,1c-0.3,0.3-0.7,0.5-1.1,0.7c-0.5,0.2-1,0.2-1.7,0.2h-2.7v4.1h-1.4v-10.3L633.9,142.7
			L633.9,142.7z M631.1,147.8h2.5c0.8,0,1.4-0.2,1.8-0.5c0.4-0.3,0.6-0.9,0.6-1.5c0-0.6-0.2-1.1-0.6-1.4c-0.4-0.3-1-0.4-1.8-0.4
			h-2.5V147.8z"/>
		<path class="st6" d="M643.6,153V152h0c-0.2,0.3-0.4,0.6-0.7,0.8c-0.3,0.2-0.5,0.3-0.8,0.4c-0.2,0.1-0.5,0.1-0.7,0.2
			c-0.2,0-0.3,0-0.4,0c-0.5,0-1-0.1-1.3-0.3c-0.3-0.2-0.6-0.4-0.7-0.7s-0.3-0.6-0.3-0.9c0-0.3-0.1-0.6-0.1-0.9v-4.9h1.3v4.6
			c0,0.5,0,0.9,0.1,1.1c0.1,0.3,0.2,0.5,0.3,0.7s0.3,0.3,0.5,0.3c0.2,0.1,0.4,0.1,0.6,0.1c0.5,0,1-0.1,1.2-0.4
			c0.3-0.2,0.5-0.5,0.6-0.8c0.1-0.3,0.2-0.6,0.2-0.9c0-0.3,0-0.5,0-0.7v-4.1h1.3v7.5L643.6,153L643.6,153z"/>
		<path class="st6" d="M647.8,150.8c0,0.3,0.1,0.5,0.2,0.7c0.1,0.2,0.3,0.4,0.5,0.5c0.2,0.1,0.4,0.2,0.6,0.3
			c0.2,0.1,0.5,0.1,0.7,0.1c0.4,0,0.8-0.1,1-0.2c0.2-0.1,0.4-0.3,0.5-0.4c0.1-0.2,0.2-0.3,0.2-0.5c0-0.2,0-0.3,0-0.4
			c0-0.1,0-0.2,0-0.3c0-0.1-0.1-0.2-0.2-0.3c-0.1-0.1-0.3-0.2-0.5-0.3s-0.5-0.2-0.9-0.3l-0.8-0.2c-0.3-0.1-0.6-0.1-0.9-0.2
			c-0.3-0.1-0.5-0.2-0.7-0.4c-0.2-0.2-0.4-0.4-0.5-0.6s-0.2-0.6-0.2-1c0-0.4,0.1-0.8,0.2-1c0.2-0.3,0.4-0.5,0.7-0.7
			c0.3-0.2,0.6-0.3,0.9-0.3c0.3-0.1,0.7-0.1,1-0.1c0.6,0,1.1,0.1,1.5,0.2c0.4,0.2,0.7,0.4,0.9,0.6c0.2,0.2,0.4,0.5,0.4,0.7
			c0.1,0.3,0.1,0.5,0.1,0.7h-1.2c0-0.1,0-0.2-0.1-0.4c0-0.2-0.1-0.3-0.3-0.4c-0.1-0.1-0.3-0.3-0.5-0.4c-0.2-0.1-0.5-0.1-0.9-0.1
			c0,0-0.1,0-0.3,0c-0.2,0-0.3,0.1-0.5,0.1c-0.2,0.1-0.3,0.2-0.5,0.4c-0.1,0.2-0.2,0.4-0.2,0.7c0,0.3,0.1,0.5,0.2,0.6
			c0.1,0.2,0.3,0.3,0.5,0.4c0.2,0.1,0.4,0.2,0.7,0.2c0.2,0.1,0.5,0.1,0.8,0.2c0.4,0.1,0.7,0.2,1.1,0.3c0.3,0.1,0.6,0.2,0.8,0.4
			c0.2,0.2,0.4,0.3,0.6,0.6c0.1,0.2,0.2,0.6,0.2,0.9c0,0.4-0.1,0.7-0.2,1c-0.1,0.3-0.3,0.5-0.5,0.7c-0.2,0.2-0.4,0.3-0.7,0.4
			c-0.2,0.1-0.5,0.2-0.7,0.2c-0.2,0-0.4,0.1-0.6,0.1c-0.2,0-0.3,0-0.3,0c-0.6,0-1-0.1-1.4-0.2c-0.4-0.1-0.7-0.3-1-0.5
			c-0.3-0.2-0.5-0.5-0.6-0.8s-0.2-0.6-0.2-1H647.8z"/>
		<path class="st6" d="M655.8,142.7v3.9c0.3-0.5,0.7-0.8,1.1-1c0.4-0.2,0.9-0.3,1.4-0.3c0.4,0,0.8,0.1,1,0.2
			c0.3,0.1,0.5,0.2,0.7,0.4c0.2,0.2,0.3,0.4,0.4,0.6c0.1,0.2,0.2,0.4,0.2,0.6c0,0.2,0.1,0.4,0.1,0.6c0,0.2,0,0.3,0,0.4v5h-1.3v-4.6
			c0-0.2,0-0.5,0-0.7s-0.1-0.5-0.2-0.7c-0.1-0.2-0.3-0.4-0.5-0.6c-0.2-0.2-0.5-0.2-0.9-0.2c-0.2,0-0.4,0-0.6,0.1
			c-0.2,0.1-0.5,0.2-0.7,0.4c-0.2,0.2-0.4,0.5-0.6,0.8c-0.2,0.4-0.2,0.9-0.2,1.5v4.1h-1.3v-10.3H655.8z"/>
	</g>
</g>
<rect x="651.2" y="175.8" class="st7" width="66.3" height="20.4"/>
<g>
	<g>
		<path class="st8" d="M404.9,25.3c-0.8-0.7-2.2-1.2-3.2-1.2h-24.1c-1,0-1.8,0.8-1.8,1.8v53.9c0,1,0.8,1.8,1.8,1.8H421
			c1,0,1.8-0.8,1.8-1.8V42.7c0-1-0.6-2.4-1.4-3L404.9,25.3z"/>
		<path class="st2" d="M404.9,25.3c-0.8-0.7-2.2-1.2-3.2-1.2h-24.1c-1,0-1.8,0.8-1.8,1.8v53.9c0,1,0.8,1.8,1.8,1.8H421
			c1,0,1.8-0.8,1.8-1.8V42.7c0-1-0.6-2.4-1.4-3L404.9,25.3z"/>
	</g>
	<polyline class="st2" points="422.9,40.8 403.5,40.8 403.5,24.1 	"/>
	<text transform="matrix(1 0 0 1 380.9817 49.0662)" class="st6 st11 st12">{ --</text>
	<text transform="matrix(1 0 0 1 394.4231 72.7537)" class="st6 st11 st12">-- }</text>
	<g>
		<text transform="matrix(1 0 0 1 390.4231 60.783)" class="st6 st11 st12">---</text>
	</g>
</g>
<rect x="412.2" y="135.9" class="st7" width="48.5" height="24.4"/>
<g>
	<g>
		<path class="st6" d="M425.6,142.7c0.6,0,1.1,0.1,1.5,0.2c0.4,0.2,0.7,0.4,0.9,0.6c0.2,0.2,0.4,0.5,0.5,0.8
			c0.1,0.3,0.1,0.6,0.1,0.9c0,0.3,0,0.5-0.1,0.8c-0.1,0.2-0.2,0.5-0.4,0.7c-0.2,0.2-0.3,0.4-0.5,0.5s-0.4,0.2-0.7,0.3v0
			c0.2,0,0.4,0.1,0.7,0.2c0.2,0.1,0.5,0.2,0.7,0.4c0.2,0.2,0.4,0.4,0.5,0.8c0.1,0.3,0.2,0.7,0.2,1.2c0,0.4-0.1,0.7-0.2,1.1
			c-0.1,0.3-0.3,0.6-0.6,0.9c-0.3,0.3-0.7,0.5-1.1,0.6c-0.5,0.2-1.1,0.2-1.8,0.2h-4.3v-10.3L425.6,142.7L425.6,142.7z M422.4,147.1
			h2.8c0.4,0,0.7,0,1-0.1c0.3-0.1,0.5-0.2,0.6-0.4c0.2-0.1,0.3-0.3,0.3-0.5c0.1-0.2,0.1-0.4,0.1-0.6c0-0.1,0-0.3-0.1-0.5
			c0-0.2-0.1-0.4-0.3-0.5c-0.1-0.2-0.3-0.3-0.6-0.4s-0.6-0.2-1-0.2h-2.8L422.4,147.1L422.4,147.1z M422.4,151.9h2.9
			c0.2,0,0.5,0,0.8-0.1c0.3,0,0.5-0.1,0.8-0.2c0.2-0.1,0.4-0.3,0.6-0.5c0.2-0.2,0.2-0.6,0.2-1c0-0.3-0.1-0.6-0.2-0.8
			s-0.3-0.4-0.5-0.5c-0.2-0.1-0.5-0.2-0.7-0.3c-0.3-0.1-0.6-0.1-1-0.1h-2.9V151.9L422.4,151.9z"/>
		<path class="st6" d="M436,153V152h0c-0.2,0.3-0.4,0.6-0.7,0.8c-0.3,0.2-0.5,0.3-0.8,0.4s-0.5,0.1-0.7,0.2c-0.2,0-0.3,0-0.4,0
			c-0.5,0-1-0.1-1.3-0.3c-0.3-0.2-0.6-0.4-0.7-0.7c-0.2-0.3-0.3-0.6-0.3-0.9c0-0.3-0.1-0.6-0.1-0.9v-4.9h1.3v4.6
			c0,0.5,0,0.9,0.1,1.1c0.1,0.3,0.2,0.5,0.3,0.7s0.3,0.3,0.5,0.3c0.2,0.1,0.4,0.1,0.6,0.1c0.5,0,1-0.1,1.2-0.4
			c0.3-0.2,0.5-0.5,0.6-0.8c0.1-0.3,0.2-0.6,0.2-0.9c0-0.3,0-0.5,0-0.7v-4.1h1.3v7.5L436,153L436,153z"/>
		<path class="st6" d="M439.4,142.7h1.3v1.4h-1.3V142.7z M440.7,145.6v7.5h-1.3v-7.5H440.7z"/>
		<path class="st6" d="M444,142.7V153h-1.3v-10.3H444z"/>
		<path class="st6" d="M452.8,142.7V153h-1.2v-1h0c-0.1,0.1-0.1,0.3-0.3,0.4c-0.1,0.2-0.3,0.3-0.5,0.4c-0.2,0.1-0.4,0.2-0.7,0.3
			c-0.3,0.1-0.6,0.1-1,0.1c-0.5,0-1-0.1-1.5-0.3c-0.4-0.2-0.8-0.5-1.1-0.8c-0.3-0.4-0.5-0.8-0.7-1.3c-0.2-0.5-0.2-1-0.2-1.6
			c0-0.4,0-0.8,0.1-1.3c0.1-0.5,0.2-0.9,0.5-1.3c0.2-0.4,0.6-0.7,1-1c0.4-0.3,1-0.4,1.7-0.4c0.5,0,1,0.1,1.4,0.2s0.8,0.5,1.1,1v-3.8
			L452.8,142.7L452.8,142.7z M447.1,149.3c0,0.7,0.1,1.3,0.3,1.7c0.2,0.4,0.4,0.7,0.6,0.9c0.2,0.2,0.5,0.3,0.8,0.4
			c0.3,0.1,0.5,0.1,0.7,0.1c0.3,0,0.6-0.1,0.8-0.2c0.3-0.1,0.5-0.3,0.7-0.5c0.2-0.2,0.4-0.6,0.5-1c0.1-0.4,0.2-0.9,0.2-1.5
			c0-0.5-0.1-1-0.2-1.4c-0.1-0.4-0.3-0.7-0.5-1c-0.2-0.2-0.5-0.4-0.7-0.6c-0.3-0.1-0.6-0.2-0.9-0.2c-0.3,0-0.6,0.1-0.9,0.2
			c-0.3,0.1-0.5,0.3-0.7,0.6c-0.2,0.2-0.4,0.6-0.5,1C447.1,148.3,447.1,148.7,447.1,149.3z"/>
	</g>
</g>
<g>
	<path class="st6" d="M963.1,143.8c0.4,0.1,0.9,0.2,1.4,0.3s0.9,0.4,1.4,0.8c0.4,0.4,0.8,0.9,1,1.5c0.3,0.6,0.4,1.4,0.4,2.3
		c0,0.9-0.1,1.6-0.4,2.3c-0.3,0.7-0.7,1.3-1.2,1.7s-1.1,0.8-1.9,1.1c-0.7,0.3-1.6,0.4-2.5,0.4c-1,0-1.9-0.1-2.6-0.3
		c-0.7-0.2-1.3-0.5-1.8-0.9c-0.5-0.3-0.8-0.7-1.1-1.2c-0.3-0.4-0.5-0.8-0.6-1.2c-0.1-0.4-0.2-0.8-0.2-1.1c0-0.3,0-0.6,0-0.7
		c0-0.9,0.1-1.7,0.4-2.3c0.2-0.6,0.6-1.1,0.9-1.4c0.4-0.4,0.8-0.6,1.3-0.8c0.5-0.2,0.9-0.3,1.4-0.3v1.6c-0.2,0-0.5,0.1-0.8,0.2
		c-0.3,0.1-0.6,0.3-0.9,0.5c-0.3,0.2-0.5,0.6-0.7,1c-0.2,0.4-0.3,0.9-0.3,1.6c0,0.7,0.1,1.3,0.4,1.8c0.3,0.5,0.7,0.9,1.1,1.2
		c0.5,0.3,1,0.5,1.6,0.6c0.6,0.1,1.2,0.2,1.8,0.2c0.7,0,1.3-0.1,1.9-0.3c0.6-0.2,1.1-0.4,1.5-0.8s0.7-0.8,1-1.2
		c0.2-0.5,0.4-1,0.4-1.6c0-0.5-0.1-0.9-0.2-1.3c-0.1-0.4-0.3-0.7-0.6-1c-0.3-0.3-0.6-0.5-0.9-0.7s-0.7-0.3-1.1-0.3L963.1,143.8
		L963.1,143.8z"/>
	<path class="st6" d="M964.5,134.5c0.3,0.1,0.6,0.2,0.9,0.3c0.3,0.1,0.6,0.4,0.9,0.6c0.3,0.3,0.5,0.6,0.7,1.1c0.2,0.4,0.3,1,0.3,1.6
		c0,0.7-0.1,1.3-0.3,1.8c-0.2,0.5-0.4,0.9-0.7,1.2c-0.3,0.3-0.6,0.6-1,0.7s-0.7,0.3-1,0.4c-0.3,0.1-0.6,0.1-0.9,0.1
		c-0.3,0-0.5,0-0.6,0c-0.2,0-0.4,0-0.7,0c-0.3,0-0.6-0.1-1-0.2c-0.3-0.1-0.7-0.2-1-0.4c-0.3-0.2-0.6-0.4-0.9-0.7
		c-0.3-0.3-0.5-0.7-0.7-1.1s-0.3-1-0.3-1.7c0-0.8,0.1-1.5,0.4-2s0.7-0.9,1.1-1.2c0.4-0.3,0.9-0.5,1.4-0.5c0.5-0.1,1-0.2,1.5-0.2
		c0.1,0,0.1,0,0.2,0c0.1,0,0.1,0,0.2,0v6.5c0.4,0,0.7,0,1.1-0.1c0.4-0.1,0.7-0.3,1-0.5c0.3-0.2,0.6-0.5,0.8-0.8
		c0.2-0.3,0.3-0.7,0.3-1.2c0-0.3,0-0.6-0.1-0.9c-0.1-0.3-0.2-0.5-0.4-0.7c-0.2-0.2-0.3-0.3-0.6-0.5s-0.4-0.2-0.7-0.2L964.5,134.5
		L964.5,134.5z M962.1,136c-0.3,0-0.6,0-0.9,0.1c-0.3,0.1-0.6,0.2-0.9,0.4c-0.3,0.2-0.5,0.4-0.7,0.7c-0.2,0.3-0.3,0.7-0.3,1.2
		c0,0.5,0.1,1,0.3,1.3c0.2,0.3,0.4,0.6,0.7,0.8s0.6,0.3,0.9,0.4c0.3,0.1,0.6,0.1,0.9,0.1L962.1,136L962.1,136z"/>
	<path class="st6" d="M955.4,131.1h11.6v1.5h-11.6V131.1z"/>
	<path class="st6" d="M955.4,127.3h11.6v1.5h-11.6V127.3z"/>
	<path class="st6" d="M964.5,117.5c0.3,0.1,0.6,0.2,0.9,0.3c0.3,0.1,0.6,0.4,0.9,0.6c0.3,0.3,0.5,0.6,0.7,1.1c0.2,0.4,0.3,1,0.3,1.6
		c0,0.7-0.1,1.3-0.3,1.8c-0.2,0.5-0.4,0.9-0.7,1.2c-0.3,0.3-0.6,0.6-1,0.7c-0.4,0.2-0.7,0.3-1,0.4c-0.3,0.1-0.6,0.1-0.9,0.1
		c-0.3,0-0.5,0-0.6,0c-0.2,0-0.4,0-0.7,0c-0.3,0-0.6-0.1-1-0.2c-0.3-0.1-0.7-0.2-1-0.4c-0.3-0.2-0.6-0.4-0.9-0.7
		c-0.3-0.3-0.5-0.7-0.7-1.1c-0.2-0.5-0.3-1-0.3-1.6c0-0.8,0.1-1.5,0.4-2s0.7-0.9,1.1-1.2c0.4-0.3,0.9-0.5,1.4-0.5
		c0.5-0.1,1-0.2,1.5-0.2c0.1,0,0.1,0,0.2,0c0.1,0,0.1,0,0.2,0v6.5c0.4,0,0.7,0,1.1-0.1c0.4-0.1,0.7-0.3,1-0.5
		c0.3-0.2,0.6-0.5,0.8-0.8c0.2-0.3,0.3-0.7,0.3-1.2c0-0.3,0-0.6-0.1-0.9c-0.1-0.3-0.2-0.5-0.4-0.7c-0.2-0.2-0.3-0.3-0.6-0.5
		c-0.2-0.1-0.4-0.2-0.7-0.2L964.5,117.5L964.5,117.5z M962.1,118.9c-0.3,0-0.6,0-0.9,0.1c-0.3,0.1-0.6,0.2-0.9,0.4
		c-0.3,0.2-0.5,0.4-0.7,0.7c-0.2,0.3-0.3,0.7-0.3,1.2c0,0.5,0.1,1,0.3,1.3c0.2,0.3,0.4,0.6,0.7,0.8c0.3,0.2,0.6,0.3,0.9,0.4
		c0.3,0.1,0.6,0.1,0.9,0.1L962.1,118.9L962.1,118.9z"/>
	<path class="st6" d="M959.3,110.8c0,0.5,0.1,0.9,0.2,1.3s0.3,0.7,0.5,1c0.2,0.3,0.5,0.5,0.9,0.6c0.4,0.2,0.8,0.3,1.3,0.3
		c0.2,0,0.3,0,0.4,0c0.1,0,0.3,0,0.4,0h3.9v1.5h-8.4V114h1.6v0c-0.3-0.1-0.6-0.2-0.8-0.4s-0.4-0.4-0.6-0.7c-0.2-0.2-0.3-0.5-0.4-0.8
		c-0.1-0.3-0.1-0.6-0.1-0.9l0-0.4H959.3z"/>
	<path class="st6" d="M968.9,108.7c0-0.2,0.1-0.4,0.1-0.5c0-0.1,0-0.2,0-0.2c0-0.2,0-0.4-0.1-0.5c-0.1-0.1-0.2-0.3-0.3-0.4
		c-0.1-0.1-0.3-0.2-0.5-0.2c-0.2-0.1-0.3-0.1-0.5-0.2l-0.6-0.2l-8.4,3.6v-1.7l6.8-2.7l-6.8-2.2v-1.5l9.4,3.3
		c0.2,0.1,0.4,0.1,0.7,0.2c0.2,0.1,0.5,0.2,0.7,0.4c0.2,0.2,0.4,0.4,0.5,0.6c0.1,0.3,0.2,0.6,0.2,1c0,0.2,0,0.4,0,0.7
		c0,0.2,0,0.4-0.1,0.5L968.9,108.7L968.9,108.7z"/>
	<path class="st6" d="M963.3,95.8c0.4,0,0.7-0.1,1.1-0.2c0.3-0.1,0.6-0.4,0.9-0.6c0.2-0.3,0.4-0.6,0.6-1c0.1-0.4,0.2-0.9,0.2-1.4
		c0-0.5-0.1-1-0.2-1.3c-0.1-0.4-0.3-0.6-0.5-0.9c-0.2-0.2-0.4-0.4-0.7-0.5c-0.3-0.1-0.5-0.2-0.8-0.2c-0.4,0-0.6,0.1-0.9,0.2
		c-0.2,0.1-0.4,0.3-0.6,0.5c-0.1,0.2-0.3,0.5-0.4,0.8s-0.2,0.6-0.2,0.8c-0.1,0.7-0.3,1.3-0.4,1.9c-0.1,0.6-0.3,1.1-0.5,1.6
		c-0.2,0.5-0.5,0.8-0.9,1.1c-0.4,0.3-0.9,0.4-1.6,0.4c-0.5,0-1-0.1-1.4-0.3s-0.8-0.5-1-0.9c-0.3-0.4-0.5-0.8-0.6-1.4
		c-0.1-0.5-0.2-1.1-0.2-1.8c0-0.7,0.1-1.3,0.3-1.9c0.2-0.5,0.4-1,0.7-1.3c0.3-0.3,0.7-0.6,1.1-0.8c0.4-0.2,0.8-0.3,1.3-0.3v1.6
		c-0.5,0.1-0.8,0.2-1.1,0.4c-0.3,0.2-0.5,0.5-0.6,0.8c-0.1,0.3-0.2,0.6-0.3,0.9c0,0.3,0,0.5,0,0.7c0,0.8,0.2,1.4,0.5,1.9
		c0.3,0.5,0.8,0.7,1.4,0.7c0.4,0,0.6-0.1,0.8-0.2c0.2-0.2,0.4-0.4,0.5-0.6c0.1-0.3,0.2-0.6,0.3-0.9c0.1-0.3,0.2-0.7,0.2-1.1
		c0.1-0.5,0.2-1,0.3-1.6c0.1-0.5,0.3-1,0.6-1.4s0.6-0.8,1-1c0.4-0.3,1-0.4,1.7-0.4c0.6,0,1.1,0.1,1.5,0.3c0.4,0.2,0.7,0.4,1,0.7
		s0.5,0.6,0.6,1c0.1,0.4,0.2,0.7,0.3,1s0.1,0.6,0.1,0.9c0,0.3,0,0.5,0,0.7c0,0.4,0,0.9-0.1,1.4c-0.1,0.5-0.3,1-0.5,1.5
		c-0.3,0.5-0.7,0.9-1.2,1.2c-0.5,0.3-1.3,0.5-2.2,0.6L963.3,95.8L963.3,95.8z"/>
	<path class="st6" d="M955.4,81.6c0-0.2,0-0.5,0-0.8c0-0.3,0.1-0.7,0.2-1.1c0.1-0.4,0.3-0.8,0.5-1.2c0.2-0.4,0.6-0.8,1-1.1
		s1-0.6,1.6-0.8c0.6-0.2,1.4-0.3,2.4-0.3c0.9,0,1.7,0.1,2.4,0.3c0.7,0.2,1.2,0.5,1.6,0.8c0.4,0.3,0.8,0.7,1,1.2
		c0.2,0.4,0.4,0.9,0.5,1.3c0.1,0.5,0.2,0.9,0.2,1.3c0,0.4,0,0.8,0,1.1v3.7h-11.6L955.4,81.6L955.4,81.6z M965.6,84.3v-2.2
		c0-1.5-0.4-2.6-1.1-3.3c-0.7-0.7-1.9-1.1-3.4-1.1c-0.9,0-1.6,0.1-2.2,0.3c-0.6,0.2-1,0.5-1.4,0.9c-0.3,0.4-0.6,0.8-0.7,1.3
		c-0.1,0.5-0.2,0.9-0.2,1.4v2.6H965.6z"/>
	<path class="st6" d="M955.4,66.7v-2.1l4.8,4.8l6.8-5.1v2.1l-5.8,4.2l1.8,1.8h4V74h-11.6v-1.6h5.7L955.4,66.7z"/>
</g>
<g>
	<rect x="503.1" y="132.1" class="st3" width="41.5" height="38.8"/>
	<polygon class="st3" points="544.6,132.1 557.1,123.9 557.1,159.6 544.6,170.9 	"/>
	<polygon class="st3" points="503.1,132.1 517.3,123.9 557.1,123.9 544.6,132.1 	"/>
	<polyline class="st14" points="523.8,151.5 523.8,132.1 536.6,124.2 	"/>
</g>
<g>
	<path class="st5" d="M343.2,22.1c-0.6-0.4-1.9-0.5-2.9-0.3c-0.1-1-0.7-1.8-1.6-2.6l-0.6-0.4l-0.4,0.6c-0.5,0.7-0.7,1.7-0.6,2.7
		c0,0.3,0.1,0.9,0.5,1.5c-0.3,0.2-1,0.4-1.9,0.4h-17.5l0,0.2c-0.2,1-0.2,4,1.8,6.3c1.5,1.8,3.7,2.7,6.6,2.7c6.3,0,11-2.9,13.2-8.2
		c0.9,0,2.7,0,3.7-1.8c0,0,0.1-0.2,0.2-0.5l0.1-0.2L343.2,22.1z M329.4,17.7h2.7v-2.4h-2.7V17.7z M329.4,20.6h2.7v-2.4h-2.7V20.6z
		 M326.2,20.6h2.7v-2.4h-2.7V20.6z M323.1,20.6h2.7v-2.4h-2.7V20.6z M320,23.5h2.7v-2.4H320V23.5z M323.1,23.5h2.7v-2.4h-2.7V23.5z
		 M326.2,23.5h2.7v-2.4h-2.7V23.5z M329.4,23.5h2.7v-2.4h-2.7V23.5z M332.5,23.5h2.7v-2.4h-2.7V23.5z"/>
	<path class="st5" d="M343.2,43c-0.6-0.4-1.9-0.5-2.9-0.3c-0.1-1-0.7-1.8-1.6-2.6l-0.6-0.4l-0.4,0.6c-0.5,0.7-0.7,1.7-0.6,2.7
		c0,0.3,0.1,0.9,0.5,1.5c-0.3,0.2-1,0.4-1.9,0.4h-17.5l0,0.2c-0.2,1-0.2,4,1.8,6.3c1.5,1.8,3.7,2.7,6.6,2.7c6.3,0,11-2.9,13.2-8.2
		c0.9,0,2.7,0,3.7-1.8c0,0,0.1-0.2,0.2-0.5l0.1-0.2L343.2,43z M329.4,38.6h2.7v-2.4h-2.7V38.6z M329.4,41.5h2.7v-2.4h-2.7V41.5z
		 M326.2,41.5h2.7v-2.4h-2.7V41.5z M323.1,41.5h2.7v-2.4h-2.7V41.5z M320,44.4h2.7V42H320V44.4z M323.1,44.4h2.7V42h-2.7V44.4z
		 M326.2,44.4h2.7V42h-2.7V44.4z M329.4,44.4h2.7V42h-2.7V44.4z M332.5,44.4h2.7V42h-2.7V44.4z"/>
	<path class="st5" d="M343.2,75.7c-0.6-0.4-1.9-0.5-2.9-0.3c-0.1-1-0.7-1.8-1.6-2.6l-0.6-0.4l-0.4,0.6c-0.5,0.7-0.7,1.7-0.6,2.7
		c0,0.3,0.1,0.9,0.5,1.5c-0.3,0.2-1,0.4-1.9,0.4h-17.5l0,0.2c-0.2,1-0.2,4,1.8,6.3c1.5,1.8,3.7,2.7,6.6,2.7c6.3,0,11-2.9,13.2-8.2
		c0.9,0,2.7,0,3.7-1.8c0,0,0.1-0.2,0.2-0.5l0.1-0.2L343.2,75.7z M329.4,71.3h2.7v-2.4h-2.7V71.3z M329.4,74.2h2.7v-2.4h-2.7V74.2z
		 M326.2,74.2h2.7v-2.4h-2.7V74.2z M323.1,74.2h2.7v-2.4h-2.7V74.2z M320,77.1h2.7v-2.4H320V77.1z M323.1,77.1h2.7v-2.4h-2.7V77.1z
		 M326.2,77.1h2.7v-2.4h-2.7V77.1z M329.4,77.1h2.7v-2.4h-2.7V77.1z M332.5,77.1h2.7v-2.4h-2.7V77.1z"/>
	<g>
		<g>
			<line class="st9" x1="327.9" y1="55.7" x2="327.9" y2="57.2"/>
			<line class="st1" x1="327.9" y1="58.8" x2="327.9" y2="66"/>
			<line class="st9" x1="327.9" y1="66.8" x2="327.9" y2="68.3"/>
		</g>
	</g>
</g>
<line class="st9" x1="370.5" y1="68.2" x2="347.4" y2="75.4"/>
<line class="st9" x1="347.2" y1="26" x2="370.4" y2="35.9"/>
<line class="st9" x1="346.2" y1="49.1" x2="369.7" y2="50.7"/>
<g>
	<path class="st16" d="M802.1,84.2c0.7-0.8,1.5-1.2,2.5-1.2c1.9,0,2.9,1.1,3,3.3v5.9h-2v-5.9c0-0.6-0.1-1.1-0.4-1.3
		c-0.3-0.3-0.7-0.4-1.2-0.4c-0.8,0-1.4,0.4-1.8,1.1v6.5h-2V79.3h2V84.2z"/>
	<path class="st16" d="M815.2,91.4c-0.6,0.7-1.5,1.1-2.6,1.1c-1,0-1.7-0.3-2.2-0.9c-0.5-0.6-0.8-1.4-0.8-2.5v-5.9h2V89
		c0,1.2,0.5,1.7,1.4,1.7c1,0,1.7-0.4,2-1.1v-6.5h2v9.1h-1.9L815.2,91.4z"/>
	<path class="st16" d="M827.2,87.8c0,1.4-0.3,2.5-0.9,3.4c-0.6,0.8-1.5,1.3-2.6,1.3c-1.1,0-1.9-0.4-2.5-1.2l-0.1,1h-1.9V79.3h2V84
		c0.6-0.7,1.4-1,2.4-1c1.1,0,2,0.4,2.6,1.2c0.6,0.8,1,2,1,3.5V87.8z M825.2,87.6c0-1-0.2-1.7-0.5-2.2c-0.3-0.5-0.9-0.7-1.5-0.7
		c-0.9,0-1.5,0.4-1.9,1.2v3.8c0.4,0.8,1,1.2,1.9,1.2c0.6,0,1.1-0.2,1.5-0.7s0.5-1.2,0.5-2.2V87.6z"/>
</g>
</svg>
