<?xml version="1.0" encoding="utf-8"?>
<!-- Generator: Adobe Illustrator 16.0.4, SVG Export Plug-In . SVG Version: 6.00 Build 0)  -->
<!DOCTYPE svg PUBLIC "-//W3C//DTD SVG 1.1//EN" "http://www.w3.org/Graphics/SVG/1.1/DTD/svg11.dtd">
<svg version="1.1" id="Layer_1" xmlns="http://www.w3.org/2000/svg" xmlns:xlink="http://www.w3.org/1999/xlink" x="0px" y="0px"
	 width="1030px" height="146px" viewBox="0 0 1030 146" enable-background="new 0 0 1030 146" xml:space="preserve">
<rect x="274.577" y="11.559" fill="#E0E0E0" width="659.301" height="129"/>
<line fill="#FFFFFF" stroke="#B3B3B3" stroke-miterlimit="10" stroke-dasharray="4,4" x1="9.22" y1="3.559" x2="1024.899" y2="3.559"/>
<g>
	<g>
		<path fill="#808080" d="M10.52,29.321V15.813h3.342l3.611,9.521l3.589-9.521h3.278v13.508h-2.645v-8.822l-3.277,8.822h-1.912
			l-3.342-8.822v8.822H10.52z"/>
		<path fill="#808080" d="M26.644,29.321l5.169-13.508h2.794l5.169,13.508h-2.859l-1.213-3.256h-5.062l-1.182,3.256H26.644z
			 M31.522,23.69h3.31l-1.654-4.492L31.522,23.69z"/>
		<path fill="#808080" d="M42.068,29.321V15.813h2.664l5.954,8.532v-8.532h2.729v13.508h-2.242l-6.376-9.005v9.005H42.068z"/>
		<path fill="#808080" d="M55.666,29.321l5.17-13.508h2.793l5.169,13.508h-2.858l-1.214-3.256h-5.062l-1.182,3.256H55.666z
			 M60.545,23.69h3.311L62.2,19.198L60.545,23.69z"/>
		<path fill="#808080" d="M69.791,22.556c0-1.016,0.166-1.959,0.495-2.829c0.329-0.869,0.778-1.606,1.349-2.211
			c0.569-0.605,1.252-1.077,2.047-1.417c0.795-0.341,1.648-0.511,2.558-0.511c1.583,0,2.869,0.414,3.858,1.241
			c0.988,0.827,1.611,1.939,1.869,3.337H79.13c-0.251-0.674-0.606-1.186-1.069-1.537c-0.462-0.351-1.069-0.526-1.821-0.526
			c-1.097,0-1.966,0.413-2.611,1.239c-0.645,0.826-0.968,1.897-0.968,3.214c0,1.341,0.33,2.43,0.989,3.266s1.548,1.254,2.665,1.254
			c0.846,0,1.537-0.236,2.074-0.71s0.885-1.118,1.042-1.934h-2.568V22.24h5.319v1.182c0,1.849-0.547,3.329-1.639,4.443
			c-1.093,1.114-2.502,1.671-4.229,1.671c-1.246,0-2.364-0.292-3.353-0.876c-0.989-0.585-1.765-1.409-2.327-2.475
			C70.072,25.121,69.791,23.911,69.791,22.556z"/>
		<path fill="#808080" d="M84.775,29.321V15.813h9.178v2.461h-6.404v2.977h5.812v2.375h-5.812v3.234h6.404v2.461H84.775z"/>
	</g>
</g>
<g>
	<g>
		<g>
			
				<rect x="375.769" y="36.994" fill="none" stroke="#FFFFFF" stroke-width="1.0402" stroke-miterlimit="10" width="58.747" height="58.117"/>
			
				<line fill="none" stroke="#FFFFFF" stroke-width="1.1659" stroke-miterlimit="10" x1="375.769" y1="64.73" x2="434.516" y2="64.73"/>
			
				<line fill="none" stroke="#FFFFFF" stroke-width="1.1659" stroke-miterlimit="10" x1="416.213" y1="64.73" x2="416.213" y2="95.111"/>
			<rect x="381.561" y="44.719" fill="#FFFFFF" width="3.66" height="15.865"/>
			<rect x="387.867" y="42.523" fill="#FFFFFF" width="3.661" height="18.061"/>
			<rect x="394.176" y="50.576" fill="#FFFFFF" width="3.66" height="10.008"/>
			<rect x="400.483" y="47.16" fill="#FFFFFF" width="3.66" height="13.424"/>
			<rect x="406.791" y="44.719" fill="#FFFFFF" width="3.662" height="15.865"/>
			<rect x="413.1" y="50.576" fill="#FFFFFF" width="3.662" height="10.008"/>
			<rect x="419.408" y="54.604" fill="#FFFFFF" width="3.66" height="5.98"/>
			<rect x="425.716" y="53.139" fill="#FFFFFF" width="3.661" height="7.445"/>
			<rect x="420.104" y="68.018" fill="#FFFFFF" width="11.361" height="3.66"/>
			<rect x="420.035" y="74.771" fill="#FFFFFF" width="8.624" height="3.66"/>
			<rect x="420.035" y="80.564" fill="#FFFFFF" width="4.718" height="3.66"/>
			<rect x="420.037" y="86.207" fill="#FFFFFF" width="9.342" height="3.658"/>
			<path fill="#FFFFFF" d="M390.133,78.906l-5.863-3.887c2.623-3.365,6.604-5.623,11.117-5.959v7.027
				C393.307,76.371,391.461,77.404,390.133,78.906z"/>
			<path fill="#FFFFFF" d="M398.283,69.061v7.027c0.291,0.037,0.576,0.096,0.856,0.164l4.081-5.285l1.998,1.166l-2.514,5.965
				c0.293,0.252,0.574,0.518,0.83,0.809l5.863-3.887C406.775,71.654,402.798,69.396,398.283,69.061z"/>
			<path fill="#FFFFFF" d="M404.144,71.678l-8.757,11.342c0,0-1.233,1.572,0.619,2.699c1.409,0.854,2.715-1.162,2.715-1.162
				L404.144,71.678z"/>
			<g>
				<path fill="#FFFFFF" d="M404.824,88.262l6.301,3.029c0.982-2.039,1.549-4.318,1.549-6.734c0-2.76-0.732-5.342-1.994-7.588
					l-5.852,3.879c0.543,1.123,0.85,2.379,0.85,3.709C405.678,85.885,405.365,87.139,404.824,88.262z"/>
				<path fill="#FFFFFF" d="M389.34,88.119c-0.498-1.086-0.784-2.289-0.784-3.562c0-1.256,0.279-2.447,0.767-3.525l-5.955-3.744
					c-1.149,2.17-1.807,4.643-1.807,7.27c0,2.314,0.518,4.5,1.422,6.475L389.34,88.119z"/>
			</g>
		</g>
		<g>
			<g>
				<path fill="#5A5A5E" d="M378.783,108.186h-0.033l0.033,0.445v9.26h-1.553v-11.554h2.328l3.615,9.507l3.614-9.507h2.327v11.554
					h-1.552v-9.26l0.033-0.445h-0.05l-3.746,9.705h-1.255L378.783,108.186z"/>
				<path fill="#5A5A5E" d="M391.229,113.699c0-0.562,0.07-1.111,0.214-1.65s0.377-1.021,0.702-1.444
					c0.324-0.424,0.75-0.768,1.278-1.031c0.528-0.265,1.172-0.396,1.931-0.396c0.76,0,1.404,0.132,1.932,0.396
					c0.528,0.264,0.955,0.607,1.279,1.031s0.559,0.905,0.701,1.444s0.215,1.089,0.215,1.65s-0.072,1.111-0.215,1.65
					s-0.377,1.021-0.701,1.444s-0.751,0.768-1.279,1.031c-0.527,0.265-1.172,0.396-1.932,0.396c-0.759,0-1.402-0.132-1.931-0.396
					c-0.528-0.264-0.954-0.607-1.278-1.031c-0.325-0.424-0.559-0.905-0.702-1.444S391.229,114.26,391.229,113.699z M392.763,113.699
					c0,0.832,0.104,1.484,0.313,1.955s0.457,0.821,0.743,1.051c0.286,0.23,0.571,0.37,0.858,0.42
					c0.285,0.049,0.512,0.073,0.676,0.073c0.166,0,0.391-0.024,0.678-0.073c0.285-0.05,0.572-0.189,0.857-0.42
					c0.287-0.229,0.534-0.58,0.743-1.051s0.313-1.123,0.313-1.955s-0.104-1.484-0.313-1.955s-0.456-0.821-0.743-1.052
					c-0.285-0.229-0.572-0.369-0.857-0.418c-0.287-0.05-0.512-0.074-0.678-0.074c-0.164,0-0.391,0.024-0.676,0.074
					c-0.287,0.049-0.572,0.188-0.858,0.418c-0.286,0.23-0.534,0.581-0.743,1.052S392.763,112.867,392.763,113.699z"/>
				<path fill="#5A5A5E" d="M402.832,109.506v1.172c0.285-0.418,0.67-0.773,1.154-1.064c0.484-0.292,1.057-0.438,1.717-0.438
					c0.551,0,1.004,0.085,1.361,0.256s0.639,0.398,0.842,0.685c0.204,0.286,0.348,0.619,0.43,0.999s0.124,0.778,0.124,1.196v5.579
					h-1.452v-5.133c0-0.221-0.009-0.479-0.025-0.776s-0.077-0.577-0.182-0.842c-0.104-0.264-0.277-0.486-0.52-0.668
					s-0.589-0.272-1.04-0.272c-0.198,0-0.435,0.033-0.71,0.099c-0.275,0.066-0.539,0.206-0.792,0.421s-0.468,0.528-0.644,0.941
					c-0.176,0.412-0.264,0.965-0.264,1.658v4.572h-1.453v-8.385H402.832z"/>
				<path fill="#5A5A5E" d="M410.803,106.337h1.453v1.519h-1.453V106.337z M412.256,109.506v8.385h-1.453v-8.385H412.256z"/>
				<path fill="#5A5A5E" d="M415.128,109.506v-2.509h1.452v2.509h1.783v1.023h-1.783v5.331c0,0.154,0.003,0.3,0.008,0.438
					c0.006,0.138,0.033,0.262,0.083,0.371c0.05,0.11,0.135,0.195,0.256,0.256s0.298,0.091,0.528,0.091
					c0.154,0,0.309-0.014,0.462-0.041c0.154-0.027,0.303-0.063,0.446-0.107v1.023c-0.231,0.099-0.479,0.179-0.743,0.239
					s-0.522,0.091-0.776,0.091c-0.429,0-0.762-0.066-0.998-0.198s-0.407-0.3-0.512-0.503c-0.104-0.204-0.165-0.427-0.182-0.669
					s-0.024-0.473-0.024-0.693v-5.628h-1.503v-1.023H415.128z"/>
				<path fill="#5A5A5E" d="M419.402,113.699c0-0.562,0.072-1.111,0.215-1.65s0.377-1.021,0.701-1.444s0.752-0.768,1.279-1.031
					c0.528-0.265,1.172-0.396,1.932-0.396c0.759,0,1.402,0.132,1.931,0.396c0.528,0.264,0.954,0.607,1.279,1.031
					s0.559,0.905,0.702,1.444c0.143,0.539,0.214,1.089,0.214,1.65s-0.071,1.111-0.214,1.65c-0.144,0.539-0.377,1.021-0.702,1.444
					s-0.751,0.768-1.279,1.031c-0.528,0.265-1.172,0.396-1.931,0.396c-0.76,0-1.403-0.132-1.932-0.396
					c-0.527-0.264-0.955-0.607-1.279-1.031s-0.559-0.905-0.701-1.444S419.402,114.26,419.402,113.699z M420.938,113.699
					c0,0.832,0.104,1.484,0.314,1.955c0.208,0.471,0.455,0.821,0.742,1.051c0.285,0.23,0.572,0.37,0.857,0.42
					c0.287,0.049,0.512,0.073,0.678,0.073c0.164,0,0.391-0.024,0.676-0.073c0.287-0.05,0.572-0.189,0.859-0.42
					c0.285-0.229,0.533-0.58,0.742-1.051s0.314-1.123,0.314-1.955s-0.105-1.484-0.314-1.955s-0.457-0.821-0.742-1.052
					c-0.287-0.229-0.572-0.369-0.859-0.418c-0.285-0.05-0.512-0.074-0.676-0.074c-0.166,0-0.391,0.024-0.678,0.074
					c-0.285,0.049-0.572,0.188-0.857,0.418c-0.287,0.23-0.534,0.581-0.742,1.052C421.042,112.214,420.938,112.867,420.938,113.699z"
					/>
				<path fill="#5A5A5E" d="M434.241,110.2c-0.495,0.021-0.933,0.088-1.312,0.198c-0.381,0.109-0.705,0.28-0.975,0.512
					c-0.27,0.23-0.484,0.527-0.644,0.891s-0.256,0.809-0.289,1.337c-0.011,0.154-0.017,0.303-0.017,0.446c0,0.143,0,0.291,0,0.445
					v3.862h-1.452v-8.385h1.452v1.617h0.033c0.1-0.308,0.244-0.58,0.438-0.816c0.192-0.237,0.412-0.435,0.66-0.595
					c0.248-0.159,0.514-0.283,0.801-0.371c0.285-0.088,0.578-0.138,0.875-0.148l0.429-0.017V110.2z"/>
			</g>
		</g>
	</g>
	<g>
		<g>
			<path fill="#FFFFFF" d="M543.962,95.111c-1.206-2.16-3.513-3.623-6.161-3.623c-2.649,0-4.955,1.463-6.161,3.623H543.962z"/>
			<path fill="#FFFFFF" d="M570.868,36.994h-66.136c-2.553,0-4.641,2.088-4.641,4.641v43.16c0,2.553,2.088,4.643,4.641,4.643h66.136
				c2.553,0,4.642-2.09,4.642-4.643v-43.16C575.51,39.082,573.421,36.994,570.868,36.994z M537.801,86.684
				c-1.152,0-2.087-0.936-2.087-2.088s0.935-2.086,2.087-2.086s2.086,0.934,2.086,2.086S538.953,86.684,537.801,86.684z
				 M572.608,78.359c0,0.943-0.797,1.74-1.74,1.74h-66.136c-0.943,0-1.74-0.797-1.74-1.74V41.635c0-0.943,0.797-1.74,1.74-1.74
				h66.136c0.943,0,1.74,0.797,1.74,1.74V78.359z"/>
			<polyline fill="none" stroke="#FFFFFF" stroke-width="1.459" stroke-miterlimit="10" points="513.702,63.215 522.942,51.48 
				532.517,69.686 544.474,52.469 553.139,68.256 563.204,54.922 			"/>
			<circle fill="#FFFFFF" cx="513.89" cy="63.068" r="2.486"/>
			<circle fill="#FFFFFF" cx="522.942" cy="51.535" r="2.486"/>
			<circle fill="#FFFFFF" cx="532.647" cy="69.686" r="2.486"/>
			<circle fill="#FFFFFF" cx="544.223" cy="52.469" r="2.486"/>
			<circle fill="#FFFFFF" cx="553.466" cy="68.621" r="2.486"/>
			<path fill="#FFFFFF" d="M565.69,54.955c0,1.371-1.113,2.484-2.486,2.484s-2.486-1.113-2.486-2.484
				c0-1.375,1.113-2.488,2.486-2.488S565.69,53.58,565.69,54.955z"/>
		</g>
		<g>
			<g>
				<path fill="#5A5A5E" d="M517.219,107.641v-1.304h9.062v1.304h-3.748v10.25h-1.551v-10.25H517.219z"/>
				<path fill="#5A5A5E" d="M531.381,110.2c-0.496,0.021-0.934,0.088-1.312,0.198c-0.379,0.109-0.705,0.28-0.975,0.512
					c-0.27,0.23-0.484,0.527-0.643,0.891c-0.16,0.363-0.256,0.809-0.289,1.337c-0.012,0.154-0.018,0.303-0.018,0.446
					c0,0.143,0,0.291,0,0.445v3.862h-1.451v-8.385h1.451v1.617h0.033c0.1-0.308,0.246-0.58,0.438-0.816
					c0.193-0.237,0.414-0.435,0.66-0.595c0.248-0.159,0.516-0.283,0.801-0.371c0.287-0.088,0.578-0.138,0.875-0.148l0.43-0.017
					V110.2z"/>
				<path fill="#5A5A5E" d="M531.926,111.982c0-0.274,0.047-0.577,0.141-0.907s0.27-0.636,0.527-0.916
					c0.26-0.281,0.623-0.515,1.09-0.702c0.467-0.187,1.07-0.28,1.807-0.28c0.342,0,0.707,0.033,1.098,0.099
					c0.391,0.066,0.754,0.198,1.09,0.396s0.613,0.481,0.834,0.85c0.221,0.369,0.324,0.861,0.314,1.478l-0.084,3.879
					c0,0.165,0.004,0.311,0.008,0.438c0.006,0.127,0.037,0.231,0.092,0.313c0.055,0.083,0.143,0.146,0.264,0.189
					c0.121,0.045,0.291,0.061,0.512,0.05v1.023c-0.1,0.021-0.195,0.038-0.289,0.05c-0.094,0.011-0.217,0.017-0.371,0.017
					c-0.197,0-0.383-0.015-0.553-0.042s-0.318-0.082-0.445-0.165c-0.127-0.082-0.23-0.203-0.314-0.363
					c-0.082-0.159-0.145-0.376-0.189-0.651c-0.143,0.264-0.318,0.489-0.527,0.677s-0.441,0.341-0.693,0.462
					c-0.254,0.121-0.52,0.209-0.801,0.265c-0.281,0.055-0.564,0.082-0.85,0.082c-0.881,0-1.594-0.201-2.139-0.603
					s-0.816-1.042-0.816-1.923c0-0.363,0.055-0.69,0.164-0.982c0.111-0.291,0.32-0.55,0.629-0.775
					c0.307-0.226,0.725-0.413,1.254-0.562c0.527-0.148,1.215-0.261,2.062-0.338c0.309-0.022,0.566-0.044,0.775-0.066
					c0.209-0.021,0.377-0.068,0.504-0.14c0.127-0.072,0.217-0.179,0.273-0.322c0.055-0.143,0.082-0.352,0.082-0.627
					c0-0.1-0.012-0.242-0.033-0.43c-0.021-0.187-0.094-0.374-0.215-0.561c-0.121-0.188-0.309-0.35-0.561-0.487
					c-0.254-0.138-0.611-0.206-1.074-0.206c-0.131,0-0.32,0.011-0.568,0.033c-0.248,0.021-0.492,0.091-0.734,0.206
					s-0.451,0.292-0.627,0.528c-0.178,0.236-0.26,0.575-0.248,1.015H531.926z M537.373,113.6c-0.109,0.088-0.225,0.151-0.344,0.189
					c-0.121,0.039-0.252,0.068-0.395,0.091c-0.141,0.022-0.303,0.041-0.482,0.058s-0.385,0.041-0.613,0.074
					c-0.316,0.056-0.621,0.107-0.91,0.157c-0.289,0.049-0.543,0.126-0.762,0.23c-0.217,0.104-0.389,0.256-0.516,0.454
					c-0.125,0.198-0.188,0.462-0.188,0.792c0,0.495,0.15,0.878,0.449,1.147c0.301,0.27,0.686,0.404,1.156,0.404
					c0.283,0,0.57-0.041,0.859-0.124c0.289-0.082,0.557-0.23,0.803-0.445c0.244-0.215,0.449-0.509,0.613-0.883
					s0.262-0.853,0.295-1.437L537.373,113.6z"/>
				<path fill="#5A5A5E" d="M548.596,114.904c-0.021,0.253-0.086,0.566-0.189,0.94c-0.105,0.374-0.287,0.737-0.545,1.09
					c-0.258,0.352-0.621,0.654-1.09,0.907c-0.467,0.253-1.074,0.38-1.824,0.38c-0.143,0-0.34-0.011-0.594-0.033
					c-0.252-0.021-0.533-0.077-0.842-0.165s-0.619-0.229-0.932-0.421c-0.314-0.192-0.598-0.456-0.85-0.792
					c-0.254-0.336-0.463-0.762-0.629-1.279c-0.164-0.517-0.246-1.149-0.246-1.898c0-0.483,0.055-0.99,0.164-1.519
					c0.109-0.527,0.314-1.009,0.611-1.444c0.297-0.435,0.703-0.792,1.221-1.072s1.184-0.421,1.998-0.421
					c0.594,0,1.111,0.08,1.551,0.239s0.809,0.377,1.105,0.652c0.297,0.274,0.531,0.588,0.703,0.94
					c0.17,0.353,0.277,0.727,0.32,1.122h-1.387c-0.076-0.462-0.213-0.825-0.412-1.089c-0.197-0.265-0.412-0.457-0.643-0.578
					c-0.232-0.121-0.461-0.195-0.686-0.223c-0.227-0.027-0.398-0.041-0.52-0.041c-0.451,0-0.838,0.091-1.156,0.272
					s-0.578,0.426-0.775,0.734c-0.199,0.308-0.342,0.671-0.43,1.089c-0.088,0.419-0.131,0.864-0.131,1.337
					c0,0.474,0.049,0.925,0.148,1.354c0.098,0.43,0.25,0.809,0.453,1.14c0.203,0.33,0.471,0.591,0.801,0.783
					c0.33,0.193,0.727,0.289,1.188,0.289c0.408,0,0.752-0.077,1.033-0.23c0.279-0.154,0.508-0.345,0.684-0.57
					c0.176-0.225,0.303-0.473,0.381-0.742c0.076-0.27,0.121-0.521,0.131-0.751H548.596z"/>
				<path fill="#5A5A5E" d="M557.807,115.464c-0.057,0.298-0.158,0.608-0.307,0.933c-0.148,0.325-0.363,0.622-0.643,0.892
					c-0.281,0.27-0.643,0.492-1.082,0.669c-0.439,0.176-0.984,0.264-1.633,0.264c-0.693,0-1.279-0.094-1.76-0.28
					c-0.479-0.188-0.873-0.427-1.188-0.719c-0.314-0.291-0.559-0.613-0.734-0.965c-0.176-0.353-0.305-0.693-0.389-1.023
					c-0.082-0.33-0.131-0.63-0.148-0.899c-0.016-0.27-0.023-0.471-0.023-0.603c0-0.188,0.01-0.432,0.033-0.734
					c0.021-0.303,0.076-0.622,0.164-0.958c0.088-0.335,0.221-0.674,0.396-1.015s0.414-0.649,0.717-0.925
					c0.303-0.274,0.68-0.497,1.131-0.668s1.002-0.256,1.65-0.256c0.838,0,1.506,0.146,2.006,0.438
					c0.502,0.291,0.887,0.657,1.156,1.098s0.451,0.922,0.545,1.444c0.092,0.522,0.15,1.01,0.172,1.46
					c0,0.066,0.004,0.136,0.01,0.207c0.004,0.071,0.008,0.14,0.008,0.206h-6.453c0,0.363,0.049,0.731,0.148,1.105
					c0.098,0.375,0.252,0.713,0.461,1.016s0.482,0.553,0.818,0.751c0.334,0.198,0.744,0.297,1.229,0.297
					c0.342,0,0.65-0.047,0.924-0.141c0.275-0.093,0.51-0.22,0.703-0.379c0.191-0.159,0.346-0.344,0.461-0.553s0.195-0.43,0.24-0.661
					H557.807z M556.354,113.005c-0.012-0.274-0.049-0.577-0.115-0.908c-0.066-0.33-0.186-0.635-0.355-0.916
					c-0.17-0.28-0.404-0.514-0.701-0.701c-0.297-0.187-0.682-0.28-1.156-0.28c-0.527,0-0.963,0.097-1.303,0.289
					c-0.342,0.192-0.609,0.432-0.801,0.718c-0.193,0.286-0.322,0.592-0.389,0.916s-0.098,0.619-0.098,0.883H556.354z"/>
			</g>
		</g>
	</g>
	<g>
		<path fill="#FFFFFF" d="M689.016,49.771c-1.016,0.129-2.046,0.215-3.103,0.215c-7.643,0-14.316-3.451-18.021-8.605
			c-3.705,5.154-10.378,8.605-18.021,8.605c-1.058,0-2.087-0.086-3.103-0.213c-0.224,1.719-0.352,3.469-0.352,5.252
			c0,15.475,8.702,28.91,21.477,35.697c12.773-6.787,21.475-20.223,21.475-35.697C689.367,53.242,689.24,51.492,689.016,49.771z
			 M666.193,75.68l-8.825-9.527l3.898-3.613l4.88,5.266l8.351-9.227l3.941,3.566L666.193,75.68z"/>
		<g>
			<g>
				<path fill="#5A5A5E" d="M643.381,114.227c-0.011,0.385,0.056,0.742,0.198,1.072s0.357,0.617,0.644,0.858
					c0.286,0.242,0.636,0.433,1.049,0.569c0.412,0.138,0.883,0.207,1.411,0.207c0.517,0,0.954-0.061,1.312-0.182
					s0.649-0.281,0.875-0.479c0.226-0.198,0.391-0.427,0.495-0.686c0.104-0.258,0.157-0.525,0.157-0.801
					c0-0.352-0.072-0.646-0.215-0.883c-0.143-0.236-0.324-0.429-0.545-0.577c-0.22-0.148-0.47-0.267-0.751-0.355
					c-0.28-0.088-0.553-0.159-0.816-0.214c-0.66-0.144-1.291-0.278-1.891-0.405c-0.6-0.126-1.128-0.305-1.584-0.536
					c-0.457-0.23-0.82-0.542-1.09-0.933s-0.404-0.916-0.404-1.576c0-0.539,0.104-1.018,0.313-1.436s0.507-0.765,0.892-1.04
					s0.848-0.484,1.387-0.627c0.539-0.144,1.133-0.215,1.782-0.215c0.716,0,1.334,0.091,1.857,0.272
					c0.522,0.182,0.957,0.427,1.304,0.734s0.61,0.666,0.792,1.072c0.182,0.407,0.289,0.831,0.322,1.271h-1.552
					c-0.056-0.473-0.195-0.848-0.421-1.122c-0.226-0.275-0.481-0.481-0.768-0.619s-0.578-0.223-0.875-0.256s-0.533-0.05-0.71-0.05
					c-0.803,0-1.449,0.174-1.938,0.52c-0.49,0.347-0.735,0.817-0.735,1.412c0,0.352,0.08,0.635,0.239,0.85
					c0.16,0.215,0.372,0.391,0.636,0.528c0.265,0.138,0.569,0.245,0.916,0.321c0.347,0.077,0.713,0.154,1.098,0.231
					c0.518,0.099,1.037,0.212,1.56,0.339c0.522,0.126,0.996,0.316,1.42,0.569s0.768,0.591,1.031,1.015
					c0.265,0.424,0.396,0.982,0.396,1.676c0,0.572-0.091,1.056-0.272,1.452s-0.415,0.724-0.701,0.982s-0.605,0.459-0.958,0.603
					c-0.352,0.143-0.695,0.247-1.031,0.313c-0.336,0.065-0.649,0.104-0.94,0.115c-0.292,0.011-0.515,0.017-0.669,0.017
					c-0.407,0-0.878-0.039-1.411-0.115c-0.534-0.077-1.043-0.251-1.526-0.521c-0.484-0.27-0.899-0.671-1.246-1.205
					c-0.347-0.533-0.543-1.257-0.586-2.17H643.381z"/>
				<path fill="#5A5A5E" d="M660.53,115.464c-0.056,0.298-0.157,0.608-0.306,0.933c-0.148,0.325-0.363,0.622-0.644,0.892
					s-0.642,0.492-1.081,0.669c-0.44,0.176-0.985,0.264-1.634,0.264c-0.693,0-1.279-0.094-1.759-0.28
					c-0.479-0.188-0.874-0.427-1.188-0.719c-0.314-0.291-0.559-0.613-0.735-0.965c-0.176-0.353-0.305-0.693-0.388-1.023
					c-0.082-0.33-0.132-0.63-0.148-0.899s-0.024-0.471-0.024-0.603c0-0.188,0.011-0.432,0.033-0.734
					c0.021-0.303,0.076-0.622,0.165-0.958c0.088-0.335,0.22-0.674,0.396-1.015s0.415-0.649,0.718-0.925
					c0.303-0.274,0.68-0.497,1.131-0.668s1.001-0.256,1.65-0.256c0.837,0,1.505,0.146,2.006,0.438
					c0.501,0.291,0.886,0.657,1.155,1.098s0.451,0.922,0.545,1.444c0.093,0.522,0.151,1.01,0.173,1.46
					c0,0.066,0.003,0.136,0.009,0.207c0.005,0.071,0.008,0.14,0.008,0.206h-6.453c0,0.363,0.049,0.731,0.148,1.105
					c0.099,0.375,0.253,0.713,0.462,1.016s0.481,0.553,0.817,0.751c0.335,0.198,0.745,0.297,1.229,0.297
					c0.341,0,0.649-0.047,0.924-0.141c0.275-0.093,0.509-0.22,0.702-0.379c0.192-0.159,0.347-0.344,0.462-0.553
					s0.195-0.43,0.239-0.661H660.53z M659.077,113.005c-0.011-0.274-0.049-0.577-0.115-0.908c-0.066-0.33-0.185-0.635-0.354-0.916
					c-0.171-0.28-0.404-0.514-0.702-0.701c-0.297-0.187-0.682-0.28-1.155-0.28c-0.528,0-0.963,0.097-1.304,0.289
					s-0.608,0.432-0.801,0.718s-0.321,0.592-0.388,0.916s-0.099,0.619-0.099,0.883H659.077z"/>
				<path fill="#5A5A5E" d="M669.773,114.904c-0.022,0.253-0.086,0.566-0.19,0.94s-0.286,0.737-0.544,1.09
					c-0.259,0.352-0.622,0.654-1.09,0.907s-1.075,0.38-1.824,0.38c-0.143,0-0.341-0.011-0.594-0.033
					c-0.253-0.021-0.534-0.077-0.842-0.165c-0.309-0.088-0.619-0.229-0.933-0.421s-0.597-0.456-0.85-0.792
					c-0.254-0.336-0.463-0.762-0.628-1.279c-0.165-0.517-0.247-1.149-0.247-1.898c0-0.483,0.055-0.99,0.165-1.519
					c0.109-0.527,0.313-1.009,0.61-1.444c0.297-0.435,0.704-0.792,1.222-1.072c0.517-0.28,1.183-0.421,1.997-0.421
					c0.594,0,1.111,0.08,1.552,0.239c0.439,0.159,0.809,0.377,1.105,0.652c0.297,0.274,0.531,0.588,0.702,0.94
					c0.17,0.353,0.277,0.727,0.321,1.122h-1.387c-0.077-0.462-0.214-0.825-0.412-1.089c-0.198-0.265-0.413-0.457-0.644-0.578
					c-0.231-0.121-0.46-0.195-0.686-0.223s-0.398-0.041-0.52-0.041c-0.451,0-0.837,0.091-1.155,0.272
					c-0.319,0.182-0.578,0.426-0.776,0.734c-0.198,0.308-0.341,0.671-0.429,1.089c-0.088,0.419-0.132,0.864-0.132,1.337
					c0,0.474,0.049,0.925,0.148,1.354c0.099,0.43,0.25,0.809,0.454,1.14c0.203,0.33,0.47,0.591,0.8,0.783
					c0.33,0.193,0.727,0.289,1.188,0.289c0.407,0,0.751-0.077,1.032-0.23c0.28-0.154,0.509-0.345,0.685-0.57
					c0.176-0.225,0.303-0.473,0.38-0.742c0.076-0.27,0.121-0.521,0.132-0.751H669.773z"/>
				<path fill="#5A5A5E" d="M677.184,117.891v-1.188h-0.032c-0.21,0.363-0.463,0.646-0.76,0.851
					c-0.297,0.203-0.586,0.354-0.866,0.453c-0.281,0.1-0.534,0.16-0.76,0.182c-0.226,0.022-0.377,0.033-0.453,0.033
					c-0.617,0-1.109-0.104-1.478-0.313c-0.369-0.209-0.646-0.473-0.834-0.792c-0.187-0.319-0.308-0.66-0.363-1.023
					c-0.055-0.363-0.082-0.704-0.082-1.023v-5.562h1.452v5.133c0,0.528,0.044,0.958,0.132,1.288c0.089,0.33,0.209,0.592,0.363,0.784
					s0.339,0.321,0.554,0.388c0.214,0.065,0.453,0.099,0.718,0.099c0.604,0,1.072-0.135,1.402-0.404s0.57-0.58,0.719-0.933
					c0.148-0.352,0.233-0.698,0.256-1.04c0.021-0.341,0.032-0.588,0.032-0.742v-4.572h1.453v8.385H677.184z"/>
				<path fill="#5A5A5E" d="M685.701,110.2c-0.495,0.021-0.933,0.088-1.312,0.198c-0.379,0.109-0.704,0.28-0.974,0.512
					c-0.27,0.23-0.484,0.527-0.644,0.891c-0.16,0.363-0.256,0.809-0.289,1.337c-0.011,0.154-0.017,0.303-0.017,0.446
					c0,0.143,0,0.291,0,0.445v3.862h-1.452v-8.385h1.452v1.617h0.033c0.099-0.308,0.245-0.58,0.438-0.816
					c0.192-0.237,0.413-0.435,0.66-0.595c0.248-0.159,0.515-0.283,0.801-0.371s0.577-0.138,0.875-0.148l0.429-0.017V110.2z"/>
				<path fill="#5A5A5E" d="M693.904,115.464c-0.056,0.298-0.157,0.608-0.306,0.933c-0.148,0.325-0.363,0.622-0.644,0.892
					s-0.642,0.492-1.081,0.669c-0.44,0.176-0.985,0.264-1.634,0.264c-0.693,0-1.279-0.094-1.759-0.28
					c-0.479-0.188-0.874-0.427-1.188-0.719c-0.314-0.291-0.559-0.613-0.735-0.965c-0.176-0.353-0.305-0.693-0.388-1.023
					c-0.082-0.33-0.132-0.63-0.148-0.899s-0.024-0.471-0.024-0.603c0-0.188,0.011-0.432,0.033-0.734
					c0.021-0.303,0.076-0.622,0.165-0.958c0.088-0.335,0.22-0.674,0.396-1.015s0.415-0.649,0.718-0.925
					c0.303-0.274,0.68-0.497,1.131-0.668s1.001-0.256,1.65-0.256c0.837,0,1.505,0.146,2.006,0.438
					c0.501,0.291,0.886,0.657,1.155,1.098s0.451,0.922,0.545,1.444c0.093,0.522,0.151,1.01,0.173,1.46
					c0,0.066,0.003,0.136,0.009,0.207c0.005,0.071,0.008,0.14,0.008,0.206h-6.453c0,0.363,0.049,0.731,0.148,1.105
					c0.099,0.375,0.253,0.713,0.462,1.016s0.481,0.553,0.817,0.751c0.335,0.198,0.745,0.297,1.229,0.297
					c0.341,0,0.649-0.047,0.924-0.141c0.275-0.093,0.509-0.22,0.702-0.379c0.192-0.159,0.347-0.344,0.462-0.553
					s0.195-0.43,0.239-0.661H693.904z M692.451,113.005c-0.011-0.274-0.049-0.577-0.115-0.908c-0.066-0.33-0.185-0.635-0.354-0.916
					c-0.171-0.28-0.404-0.514-0.702-0.701c-0.297-0.187-0.682-0.28-1.155-0.28c-0.528,0-0.963,0.097-1.304,0.289
					s-0.608,0.432-0.801,0.718s-0.321,0.592-0.388,0.916s-0.099,0.619-0.099,0.883H692.451z"/>
			</g>
		</g>
	</g>
	<g>
		<path fill="#FFFFFF" d="M772.065,55.768h-4.338v33.229h-3.123V55.768h-4.331v-5.893h4.331v-6.768h3.123v6.768h4.338V55.768z
			 M787.218,71.949h-4.33v17.047h-3.124V71.949h-4.33v-5.896h4.33V43.107h3.124v22.945h4.33V71.949z M802.379,61.215h-4.333v27.781
			h-3.122V61.215h-4.336V55.32h4.336V43.107h3.122V55.32h4.333V61.215z M817.531,71.949h-4.33v17.047h-3.123V71.949h-4.331v-5.896
			h4.331V43.107h3.123v22.945h4.33V71.949z M832.687,55.768h-4.327v33.229h-3.127V55.768h-4.331v-5.893h4.331v-6.768h3.127v6.768
			h4.327V55.768z"/>
		<g>
			<g>
				<path fill="#5A5A5E" d="M779.934,114.062c-0.056,0.418-0.165,0.869-0.33,1.354s-0.433,0.936-0.801,1.354
					c-0.369,0.418-0.855,0.768-1.461,1.048s-1.37,0.421-2.294,0.421c-0.858,0-1.629-0.135-2.311-0.404
					c-0.683-0.27-1.258-0.66-1.726-1.172s-0.828-1.134-1.081-1.865s-0.379-1.56-0.379-2.484c0-1.023,0.112-1.89,0.338-2.6
					s0.512-1.298,0.858-1.766s0.734-0.834,1.164-1.098c0.429-0.265,0.844-0.46,1.246-0.586c0.401-0.127,0.768-0.204,1.098-0.231
					s0.577-0.041,0.742-0.041c0.925,0,1.684,0.121,2.278,0.363c0.594,0.242,1.069,0.553,1.428,0.933
					c0.357,0.379,0.616,0.8,0.775,1.263c0.159,0.462,0.262,0.913,0.306,1.354h-1.552c-0.022-0.209-0.08-0.463-0.174-0.76
					c-0.093-0.297-0.256-0.583-0.486-0.858c-0.231-0.274-0.553-0.509-0.966-0.701c-0.412-0.192-0.949-0.289-1.609-0.289
					c-0.727,0-1.331,0.141-1.815,0.421s-0.872,0.652-1.164,1.114c-0.291,0.462-0.5,0.99-0.627,1.585
					c-0.127,0.594-0.189,1.204-0.189,1.832c0,0.671,0.088,1.293,0.264,1.864c0.176,0.573,0.435,1.068,0.776,1.486
					c0.341,0.418,0.751,0.745,1.229,0.981c0.479,0.237,1.025,0.355,1.642,0.355c0.463,0,0.889-0.071,1.279-0.215
					c0.391-0.143,0.729-0.344,1.016-0.603s0.514-0.562,0.685-0.908c0.171-0.346,0.267-0.729,0.289-1.146H779.934z"/>
				<path fill="#5A5A5E" d="M781.271,113.699c0-0.562,0.071-1.111,0.214-1.65c0.144-0.539,0.377-1.021,0.702-1.444
					c0.324-0.424,0.751-0.768,1.279-1.031c0.528-0.265,1.172-0.396,1.931-0.396c0.76,0,1.403,0.132,1.932,0.396
					c0.528,0.264,0.954,0.607,1.279,1.031c0.324,0.424,0.558,0.905,0.701,1.444c0.143,0.539,0.215,1.089,0.215,1.65
					s-0.072,1.111-0.215,1.65c-0.144,0.539-0.377,1.021-0.701,1.444c-0.325,0.424-0.751,0.768-1.279,1.031
					c-0.528,0.265-1.172,0.396-1.932,0.396c-0.759,0-1.402-0.132-1.931-0.396c-0.528-0.264-0.955-0.607-1.279-1.031
					c-0.325-0.424-0.559-0.905-0.702-1.444C781.342,114.81,781.271,114.26,781.271,113.699z M782.806,113.699
					c0,0.832,0.104,1.484,0.313,1.955s0.456,0.821,0.742,1.051c0.286,0.23,0.572,0.37,0.858,0.42
					c0.286,0.049,0.512,0.073,0.677,0.073s0.391-0.024,0.677-0.073c0.286-0.05,0.572-0.189,0.858-0.42
					c0.286-0.229,0.533-0.58,0.743-1.051c0.209-0.471,0.313-1.123,0.313-1.955s-0.104-1.484-0.313-1.955
					c-0.21-0.471-0.457-0.821-0.743-1.052c-0.286-0.229-0.572-0.369-0.858-0.418c-0.286-0.05-0.512-0.074-0.677-0.074
					s-0.391,0.024-0.677,0.074c-0.286,0.049-0.572,0.188-0.858,0.418c-0.286,0.23-0.533,0.581-0.742,1.052
					S782.806,112.867,782.806,113.699z"/>
				<path fill="#5A5A5E" d="M792.873,109.506v1.172c0.286-0.418,0.671-0.773,1.155-1.064c0.484-0.292,1.057-0.438,1.717-0.438
					c0.55,0,1.004,0.085,1.362,0.256c0.357,0.171,0.638,0.398,0.842,0.685c0.203,0.286,0.347,0.619,0.429,0.999
					c0.083,0.38,0.124,0.778,0.124,1.196v5.579h-1.453v-5.133c0-0.221-0.008-0.479-0.024-0.776s-0.077-0.577-0.182-0.842
					c-0.104-0.264-0.278-0.486-0.52-0.668c-0.242-0.182-0.589-0.272-1.04-0.272c-0.198,0-0.435,0.033-0.71,0.099
					c-0.275,0.066-0.539,0.206-0.792,0.421s-0.468,0.528-0.644,0.941c-0.177,0.412-0.265,0.965-0.265,1.658v4.572h-1.452v-8.385
					H792.873z"/>
				<path fill="#5A5A5E" d="M801.407,109.506v-2.509h1.452v2.509h1.783v1.023h-1.783v5.331c0,0.154,0.003,0.3,0.009,0.438
					c0.005,0.138,0.032,0.262,0.082,0.371c0.05,0.11,0.135,0.195,0.256,0.256s0.297,0.091,0.528,0.091
					c0.154,0,0.308-0.014,0.462-0.041s0.303-0.063,0.446-0.107v1.023c-0.231,0.099-0.479,0.179-0.743,0.239
					s-0.522,0.091-0.775,0.091c-0.43,0-0.763-0.066-0.999-0.198s-0.407-0.3-0.512-0.503c-0.104-0.204-0.165-0.427-0.182-0.669
					s-0.024-0.473-0.024-0.693v-5.628h-1.502v-1.023H801.407z"/>
				<path fill="#5A5A5E" d="M810.848,110.2c-0.495,0.021-0.933,0.088-1.312,0.198c-0.379,0.109-0.704,0.28-0.974,0.512
					c-0.27,0.23-0.484,0.527-0.644,0.891c-0.16,0.363-0.256,0.809-0.289,1.337c-0.011,0.154-0.017,0.303-0.017,0.446
					c0,0.143,0,0.291,0,0.445v3.862h-1.452v-8.385h1.452v1.617h0.033c0.099-0.308,0.245-0.58,0.438-0.816
					c0.192-0.237,0.413-0.435,0.66-0.595c0.248-0.159,0.515-0.283,0.801-0.371s0.577-0.138,0.875-0.148l0.429-0.017V110.2z"/>
				<path fill="#5A5A5E" d="M811.36,113.699c0-0.562,0.071-1.111,0.214-1.65c0.144-0.539,0.377-1.021,0.702-1.444
					c0.324-0.424,0.751-0.768,1.279-1.031c0.528-0.265,1.172-0.396,1.931-0.396c0.76,0,1.403,0.132,1.932,0.396
					c0.528,0.264,0.954,0.607,1.279,1.031c0.324,0.424,0.558,0.905,0.701,1.444c0.143,0.539,0.215,1.089,0.215,1.65
					s-0.072,1.111-0.215,1.65c-0.144,0.539-0.377,1.021-0.701,1.444c-0.325,0.424-0.751,0.768-1.279,1.031
					c-0.528,0.265-1.172,0.396-1.932,0.396c-0.759,0-1.402-0.132-1.931-0.396c-0.528-0.264-0.955-0.607-1.279-1.031
					c-0.325-0.424-0.559-0.905-0.702-1.444C811.432,114.81,811.36,114.26,811.36,113.699z M812.896,113.699
					c0,0.832,0.104,1.484,0.313,1.955s0.456,0.821,0.742,1.051c0.286,0.23,0.572,0.37,0.858,0.42
					c0.286,0.049,0.512,0.073,0.677,0.073s0.391-0.024,0.677-0.073c0.286-0.05,0.572-0.189,0.858-0.42
					c0.286-0.229,0.533-0.58,0.743-1.051c0.209-0.471,0.313-1.123,0.313-1.955s-0.104-1.484-0.313-1.955
					c-0.21-0.471-0.457-0.821-0.743-1.052c-0.286-0.229-0.572-0.369-0.858-0.418c-0.286-0.05-0.512-0.074-0.677-0.074
					s-0.391,0.024-0.677,0.074c-0.286,0.049-0.572,0.188-0.858,0.418c-0.286,0.23-0.533,0.581-0.742,1.052
					S812.896,112.867,812.896,113.699z"/>
				<path fill="#5A5A5E" d="M822.963,106.337v11.554h-1.452v-11.554H822.963z"/>
			</g>
		</g>
	</g>
</g>
<g>
	<path fill="#58595B" d="M962.734,91.408c0.418,0.056,0.869,0.165,1.354,0.33s0.936,0.433,1.354,0.801
		c0.418,0.369,0.768,0.855,1.048,1.461s0.421,1.37,0.421,2.294c0,0.858-0.135,1.629-0.404,2.311c-0.27,0.683-0.66,1.258-1.172,1.726
		s-1.134,0.828-1.865,1.081s-1.56,0.379-2.484,0.379c-1.023,0-1.89-0.112-2.6-0.338s-1.298-0.512-1.766-0.858
		s-0.834-0.734-1.098-1.164c-0.265-0.429-0.46-0.844-0.586-1.246c-0.127-0.401-0.204-0.768-0.231-1.098s-0.041-0.577-0.041-0.742
		c0-0.925,0.121-1.684,0.363-2.278c0.242-0.594,0.553-1.069,0.933-1.428c0.379-0.357,0.8-0.616,1.263-0.775
		c0.462-0.159,0.913-0.262,1.354-0.306v1.552c-0.209,0.022-0.463,0.08-0.76,0.174c-0.297,0.093-0.583,0.256-0.858,0.486
		c-0.274,0.231-0.509,0.553-0.701,0.966c-0.192,0.412-0.289,0.949-0.289,1.609c0,0.727,0.141,1.331,0.421,1.815
		s0.652,0.872,1.114,1.164c0.462,0.291,0.99,0.5,1.585,0.627c0.594,0.127,1.204,0.189,1.832,0.189c0.671,0,1.293-0.088,1.864-0.264
		c0.573-0.176,1.068-0.435,1.486-0.776c0.418-0.341,0.745-0.751,0.981-1.229c0.237-0.479,0.355-1.025,0.355-1.642
		c0-0.463-0.071-0.889-0.215-1.279c-0.143-0.391-0.344-0.729-0.603-1.016s-0.562-0.514-0.908-0.685
		c-0.346-0.171-0.729-0.267-1.146-0.289V91.408z"/>
	<path fill="#58595B" d="M964.137,82.165c0.298,0.056,0.608,0.157,0.933,0.306c0.325,0.148,0.622,0.363,0.892,0.644
		s0.492,0.642,0.669,1.081c0.176,0.44,0.264,0.985,0.264,1.634c0,0.693-0.094,1.279-0.28,1.759
		c-0.188,0.479-0.427,0.874-0.719,1.188c-0.291,0.314-0.613,0.559-0.965,0.735c-0.353,0.176-0.693,0.305-1.023,0.388
		c-0.33,0.082-0.63,0.132-0.899,0.148s-0.471,0.024-0.603,0.024c-0.188,0-0.432-0.011-0.734-0.033
		c-0.303-0.021-0.622-0.076-0.958-0.165c-0.335-0.088-0.674-0.22-1.015-0.396s-0.649-0.415-0.925-0.718
		c-0.274-0.303-0.497-0.68-0.668-1.131s-0.256-1.001-0.256-1.65c0-0.837,0.146-1.505,0.438-2.006
		c0.291-0.501,0.657-0.886,1.098-1.155s0.922-0.451,1.444-0.545c0.522-0.093,1.01-0.151,1.46-0.173c0.066,0,0.136-0.003,0.207-0.009
		c0.071-0.005,0.14-0.008,0.206-0.008v6.453c0.363,0,0.731-0.049,1.105-0.148c0.375-0.099,0.713-0.253,1.016-0.462
		s0.553-0.481,0.751-0.817c0.198-0.335,0.297-0.745,0.297-1.229c0-0.341-0.047-0.649-0.141-0.924
		c-0.093-0.275-0.22-0.509-0.379-0.702c-0.159-0.192-0.344-0.347-0.553-0.462s-0.43-0.195-0.661-0.239V82.165z M961.678,83.618
		c-0.274,0.011-0.577,0.049-0.908,0.115c-0.33,0.066-0.635,0.185-0.916,0.354c-0.28,0.171-0.514,0.404-0.701,0.702
		c-0.187,0.297-0.28,0.682-0.28,1.155c0,0.528,0.097,0.963,0.289,1.304s0.432,0.608,0.718,0.801s0.592,0.321,0.916,0.388
		s0.619,0.099,0.883,0.099V83.618z"/>
	<path fill="#58595B" d="M955.01,78.732h11.554v1.452H955.01V78.732z"/>
	<path fill="#58595B" d="M955.01,74.903h11.554v1.452H955.01V74.903z"/>
	<path fill="#58595B" d="M964.137,65.099c0.298,0.056,0.608,0.157,0.933,0.306c0.325,0.148,0.622,0.363,0.892,0.644
		s0.492,0.642,0.669,1.081c0.176,0.44,0.264,0.985,0.264,1.634c0,0.693-0.094,1.279-0.28,1.759
		c-0.188,0.479-0.427,0.874-0.719,1.188c-0.291,0.314-0.613,0.559-0.965,0.735c-0.353,0.176-0.693,0.305-1.023,0.388
		c-0.33,0.082-0.63,0.132-0.899,0.148s-0.471,0.024-0.603,0.024c-0.188,0-0.432-0.011-0.734-0.033
		c-0.303-0.021-0.622-0.076-0.958-0.165c-0.335-0.088-0.674-0.22-1.015-0.396s-0.649-0.415-0.925-0.718
		c-0.274-0.303-0.497-0.68-0.668-1.131s-0.256-1.001-0.256-1.65c0-0.837,0.146-1.505,0.438-2.006
		c0.291-0.501,0.657-0.886,1.098-1.155s0.922-0.451,1.444-0.545c0.522-0.093,1.01-0.151,1.46-0.173c0.066,0,0.136-0.003,0.207-0.009
		c0.071-0.005,0.14-0.008,0.206-0.008v6.453c0.363,0,0.731-0.049,1.105-0.148c0.375-0.099,0.713-0.253,1.016-0.462
		s0.553-0.481,0.751-0.817c0.198-0.335,0.297-0.745,0.297-1.229c0-0.341-0.047-0.649-0.141-0.924
		c-0.093-0.275-0.22-0.509-0.379-0.702c-0.159-0.192-0.344-0.347-0.553-0.462s-0.43-0.195-0.661-0.239V65.099z M961.678,66.552
		c-0.274,0.011-0.577,0.049-0.908,0.115c-0.33,0.066-0.635,0.185-0.916,0.354c-0.28,0.171-0.514,0.404-0.701,0.702
		c-0.187,0.297-0.28,0.682-0.28,1.155c0,0.528,0.097,0.963,0.289,1.304s0.432,0.608,0.718,0.801s0.592,0.321,0.916,0.388
		s0.619,0.099,0.883,0.099V66.552z"/>
	<path fill="#58595B" d="M958.872,58.431c0.021,0.495,0.088,0.933,0.198,1.312c0.109,0.379,0.28,0.704,0.512,0.974
		c0.23,0.27,0.527,0.484,0.891,0.644c0.363,0.16,0.809,0.256,1.337,0.289c0.154,0.011,0.303,0.017,0.446,0.017
		c0.143,0,0.291,0,0.445,0h3.862v1.452h-8.385v-1.452h1.617v-0.033c-0.308-0.099-0.58-0.245-0.816-0.438
		c-0.237-0.192-0.435-0.413-0.595-0.66c-0.159-0.248-0.283-0.515-0.371-0.801s-0.138-0.577-0.148-0.875l-0.017-0.429H958.872z"/>
	<path fill="#58595B" d="M968.527,56.302c0.033-0.218,0.056-0.376,0.066-0.475c0.011-0.098,0.017-0.18,0.017-0.245
		c0-0.208-0.039-0.383-0.115-0.524c-0.077-0.142-0.182-0.262-0.314-0.359c-0.132-0.099-0.283-0.178-0.453-0.237
		c-0.171-0.061-0.35-0.123-0.537-0.19l-0.627-0.198l-8.385,3.616v-1.733l6.784-2.68l-6.784-2.239v-1.452l9.375,3.334
		c0.198,0.066,0.421,0.144,0.669,0.231c0.247,0.088,0.479,0.212,0.693,0.371c0.214,0.159,0.396,0.366,0.544,0.619
		s0.223,0.577,0.223,0.974c0,0.231-0.005,0.448-0.016,0.652c-0.012,0.203-0.033,0.382-0.066,0.536H968.527z"/>
	<path fill="#58595B" d="M982.794,127.679c-1.012,0-1.9-0.137-2.665-0.412s-1.403-0.654-1.915-1.139s-0.896-1.065-1.155-1.741
		c-0.259-0.677-0.388-1.417-0.388-2.221c0-0.638,0.099-1.284,0.297-1.939c0.198-0.654,0.531-1.246,0.999-1.774
		s1.095-0.96,1.881-1.295c0.787-0.336,1.77-0.504,2.946-0.504c1.002,0,1.852,0.121,2.551,0.363c0.698,0.242,1.273,0.548,1.725,0.916
		c0.451,0.369,0.801,0.773,1.048,1.213c0.248,0.44,0.433,0.864,0.553,1.271c0.121,0.407,0.192,0.77,0.215,1.089
		s0.033,0.539,0.033,0.66s-0.011,0.345-0.033,0.669s-0.094,0.69-0.215,1.098c-0.12,0.407-0.305,0.831-0.553,1.271
		c-0.247,0.44-0.597,0.845-1.048,1.213c-0.451,0.369-1.023,0.672-1.717,0.908S983.807,127.679,982.794,127.679z M982.794,126.028
		c0.463,0,0.975-0.047,1.535-0.14c0.562-0.094,1.087-0.278,1.576-0.554c0.49-0.274,0.897-0.665,1.222-1.172
		c0.325-0.506,0.487-1.172,0.487-1.997c0-0.132-0.011-0.318-0.033-0.561s-0.083-0.507-0.182-0.793s-0.25-0.577-0.454-0.875
		c-0.203-0.297-0.481-0.566-0.833-0.809c-0.353-0.241-0.798-0.439-1.337-0.594s-1.199-0.231-1.981-0.231
		c-0.682,0-1.317,0.077-1.906,0.231c-0.588,0.154-1.098,0.388-1.526,0.701c-0.43,0.313-0.768,0.716-1.016,1.205
		c-0.247,0.49-0.371,1.064-0.371,1.725c0,0.584,0.091,1.087,0.272,1.511s0.415,0.778,0.701,1.064s0.608,0.515,0.966,0.685
		c0.357,0.171,0.716,0.3,1.073,0.389c0.357,0.088,0.695,0.146,1.015,0.173S982.585,126.028,982.794,126.028z"/>
	<path fill="#58595B" d="M977.018,113.271h4.258c-0.495-0.231-0.855-0.597-1.081-1.098c-0.225-0.501-0.338-1.054-0.338-1.659
		c0-0.604,0.088-1.119,0.264-1.543c0.177-0.424,0.402-0.776,0.677-1.057c0.275-0.28,0.584-0.503,0.925-0.668s0.68-0.286,1.015-0.363
		c0.336-0.077,0.646-0.127,0.933-0.148c0.286-0.022,0.518-0.033,0.693-0.033c0.913,0,1.664,0.126,2.253,0.38
		c0.589,0.253,1.051,0.572,1.387,0.957s0.569,0.803,0.701,1.254c0.132,0.452,0.198,0.87,0.198,1.255
		c0,0.353-0.041,0.668-0.124,0.949c-0.082,0.28-0.192,0.533-0.33,0.759s-0.294,0.427-0.47,0.603
		c-0.177,0.177-0.363,0.33-0.562,0.462v0.05h1.155v1.354h-11.554V113.271z M984.329,113.369c0.66,0,1.216-0.071,1.667-0.215
		c0.451-0.143,0.817-0.332,1.098-0.569c0.281-0.236,0.481-0.503,0.603-0.8c0.121-0.298,0.182-0.605,0.182-0.925
		c0-0.341-0.061-0.671-0.182-0.99s-0.318-0.6-0.594-0.842s-0.639-0.435-1.09-0.578c-0.451-0.143-1.001-0.214-1.65-0.214
		c-0.627,0-1.161,0.068-1.601,0.206c-0.44,0.138-0.801,0.322-1.081,0.553c-0.281,0.231-0.484,0.501-0.611,0.809
		c-0.126,0.309-0.189,0.633-0.189,0.975c0,0.352,0.065,0.685,0.198,0.998c0.132,0.313,0.335,0.589,0.61,0.825
		c0.275,0.237,0.633,0.424,1.073,0.562C983.201,113.301,983.725,113.369,984.329,113.369z"/>
	<path fill="#58595B" d="M986.079,103.944c0.33-0.011,0.61-0.082,0.842-0.213c0.23-0.131,0.418-0.303,0.561-0.516
		c0.144-0.213,0.245-0.453,0.306-0.721s0.091-0.537,0.091-0.811c0-0.48-0.065-0.852-0.198-1.113
		c-0.132-0.263-0.286-0.453-0.462-0.573s-0.352-0.188-0.528-0.205c-0.176-0.017-0.308-0.024-0.396-0.024
		c-0.133,0-0.262,0.014-0.389,0.041c-0.126,0.027-0.247,0.102-0.362,0.222c-0.116,0.12-0.226,0.298-0.331,0.533
		c-0.104,0.235-0.206,0.555-0.305,0.959l-0.198,0.886c-0.077,0.351-0.165,0.684-0.264,1.001c-0.1,0.317-0.237,0.596-0.413,0.836
		c-0.176,0.241-0.404,0.433-0.685,0.574c-0.281,0.143-0.642,0.214-1.081,0.214c-0.463,0-0.851-0.094-1.164-0.281
		c-0.313-0.187-0.562-0.435-0.743-0.742c-0.182-0.309-0.311-0.649-0.388-1.023s-0.115-0.754-0.115-1.139
		c0-0.716,0.088-1.29,0.264-1.726c0.177-0.435,0.394-0.772,0.652-1.015s0.534-0.407,0.825-0.495
		c0.292-0.088,0.553-0.143,0.784-0.165v1.387c-0.121,0.011-0.267,0.041-0.438,0.091s-0.336,0.144-0.495,0.282
		c-0.159,0.138-0.294,0.334-0.404,0.588c-0.11,0.255-0.165,0.592-0.165,1.012c0,0.044,0.006,0.16,0.017,0.348
		c0.011,0.188,0.058,0.385,0.14,0.589c0.083,0.205,0.215,0.39,0.396,0.556s0.438,0.249,0.768,0.249c0.297,0,0.534-0.063,0.71-0.19
		s0.313-0.299,0.412-0.514c0.1-0.215,0.18-0.463,0.239-0.745c0.061-0.281,0.124-0.571,0.19-0.869c0.099-0.431,0.2-0.828,0.305-1.192
		c0.105-0.364,0.242-0.682,0.413-0.952s0.394-0.479,0.668-0.629c0.275-0.149,0.628-0.224,1.057-0.224
		c0.44,0,0.812,0.077,1.114,0.231s0.556,0.347,0.759,0.577c0.204,0.231,0.361,0.487,0.471,0.768c0.11,0.281,0.192,0.551,0.248,0.809
		c0.055,0.259,0.088,0.484,0.099,0.677c0.011,0.193,0.017,0.322,0.017,0.389c0,0.627-0.074,1.169-0.223,1.625
		c-0.148,0.457-0.353,0.84-0.611,1.147c-0.258,0.309-0.558,0.539-0.899,0.693c-0.341,0.154-0.704,0.236-1.089,0.248V103.944z"/>
	<path fill="#58595B" d="M986.145,89.022c0.298,0.056,0.608,0.157,0.933,0.306c0.325,0.148,0.622,0.363,0.892,0.644
		s0.492,0.642,0.669,1.081c0.176,0.44,0.264,0.985,0.264,1.634c0,0.693-0.094,1.279-0.28,1.759
		c-0.188,0.479-0.427,0.874-0.719,1.188c-0.291,0.314-0.613,0.559-0.965,0.735c-0.353,0.176-0.693,0.305-1.023,0.388
		c-0.33,0.082-0.63,0.132-0.899,0.148s-0.471,0.024-0.603,0.024c-0.188,0-0.432-0.011-0.734-0.033
		c-0.303-0.021-0.622-0.076-0.958-0.165c-0.335-0.088-0.674-0.22-1.015-0.396s-0.649-0.415-0.925-0.718
		c-0.274-0.303-0.497-0.68-0.668-1.131s-0.256-1.001-0.256-1.65c0-0.837,0.146-1.505,0.438-2.006
		c0.291-0.501,0.657-0.886,1.098-1.155s0.922-0.451,1.444-0.545c0.522-0.093,1.01-0.151,1.46-0.173c0.066,0,0.136-0.003,0.207-0.009
		c0.071-0.005,0.14-0.008,0.206-0.008v6.453c0.363,0,0.731-0.049,1.105-0.148c0.375-0.099,0.713-0.253,1.016-0.462
		s0.553-0.481,0.751-0.817c0.198-0.335,0.297-0.745,0.297-1.229c0-0.341-0.047-0.649-0.141-0.924
		c-0.093-0.275-0.22-0.509-0.379-0.702c-0.159-0.192-0.344-0.347-0.553-0.462s-0.43-0.195-0.661-0.239V89.022z M983.686,90.476
		c-0.274,0.011-0.577,0.049-0.908,0.115c-0.33,0.066-0.635,0.185-0.916,0.354c-0.28,0.171-0.514,0.404-0.701,0.702
		c-0.187,0.297-0.28,0.682-0.28,1.155c0,0.528,0.097,0.963,0.289,1.304s0.432,0.608,0.718,0.801s0.592,0.321,0.916,0.388
		s0.619,0.099,0.883,0.099V90.476z"/>
	<path fill="#58595B" d="M980.88,82.355c0.021,0.495,0.088,0.933,0.198,1.312c0.109,0.379,0.28,0.704,0.512,0.974
		c0.23,0.27,0.527,0.484,0.891,0.644c0.363,0.16,0.809,0.256,1.337,0.289c0.154,0.011,0.303,0.017,0.446,0.017
		c0.143,0,0.291,0,0.445,0h3.862v1.452h-8.385v-1.452h1.617v-0.033c-0.308-0.099-0.58-0.245-0.816-0.438
		c-0.237-0.192-0.435-0.413-0.595-0.66c-0.159-0.248-0.283-0.515-0.371-0.801s-0.138-0.577-0.148-0.875l-0.017-0.429H980.88z"/>
	<path fill="#58595B" d="M980.187,75.489v-1.552l8.385,3.104v1.65l-8.385,3.104v-1.552l6.933-2.377L980.187,75.489z"/>
	<path fill="#58595B" d="M986.145,65.354c0.298,0.056,0.608,0.157,0.933,0.306c0.325,0.148,0.622,0.363,0.892,0.644
		s0.492,0.642,0.669,1.081c0.176,0.44,0.264,0.985,0.264,1.634c0,0.693-0.094,1.279-0.28,1.759
		c-0.188,0.479-0.427,0.874-0.719,1.188c-0.291,0.314-0.613,0.559-0.965,0.735c-0.353,0.176-0.693,0.305-1.023,0.388
		c-0.33,0.082-0.63,0.132-0.899,0.148s-0.471,0.024-0.603,0.024c-0.188,0-0.432-0.011-0.734-0.033
		c-0.303-0.021-0.622-0.076-0.958-0.165c-0.335-0.088-0.674-0.22-1.015-0.396s-0.649-0.415-0.925-0.718
		c-0.274-0.303-0.497-0.68-0.668-1.131s-0.256-1.001-0.256-1.65c0-0.837,0.146-1.505,0.438-2.006
		c0.291-0.501,0.657-0.886,1.098-1.155s0.922-0.451,1.444-0.545c0.522-0.093,1.01-0.151,1.46-0.173c0.066,0,0.136-0.003,0.207-0.009
		c0.071-0.005,0.14-0.008,0.206-0.008v6.453c0.363,0,0.731-0.049,1.105-0.148c0.375-0.099,0.713-0.253,1.016-0.462
		s0.553-0.481,0.751-0.817c0.198-0.335,0.297-0.745,0.297-1.229c0-0.341-0.047-0.649-0.141-0.924
		c-0.093-0.275-0.22-0.509-0.379-0.702c-0.159-0.192-0.344-0.347-0.553-0.462s-0.43-0.195-0.661-0.239V65.354z M983.686,66.808
		c-0.274,0.011-0.577,0.049-0.908,0.115c-0.33,0.066-0.635,0.185-0.916,0.354c-0.28,0.171-0.514,0.404-0.701,0.702
		c-0.187,0.297-0.28,0.682-0.28,1.155c0,0.528,0.097,0.963,0.289,1.304s0.432,0.608,0.718,0.801s0.592,0.321,0.916,0.388
		s0.619,0.099,0.883,0.099V66.808z"/>
	<path fill="#58595B" d="M980.88,58.687c0.021,0.495,0.088,0.933,0.198,1.312c0.109,0.379,0.28,0.704,0.512,0.974
		c0.23,0.27,0.527,0.484,0.891,0.644c0.363,0.16,0.809,0.256,1.337,0.289c0.154,0.011,0.303,0.017,0.446,0.017
		c0.143,0,0.291,0,0.445,0h3.862v1.452h-8.385v-1.452h1.617v-0.033c-0.308-0.099-0.58-0.245-0.816-0.438
		c-0.237-0.192-0.435-0.413-0.595-0.66c-0.159-0.248-0.283-0.515-0.371-0.801s-0.138-0.577-0.148-0.875l-0.017-0.429H980.88z"/>
	<path fill="#58595B" d="M977.018,55.832h4.258c-0.495-0.231-0.855-0.597-1.081-1.098c-0.225-0.501-0.338-1.054-0.338-1.659
		c0-0.604,0.088-1.119,0.264-1.543c0.177-0.424,0.402-0.776,0.677-1.057c0.275-0.28,0.584-0.503,0.925-0.668s0.68-0.286,1.015-0.363
		c0.336-0.077,0.646-0.127,0.933-0.148c0.286-0.022,0.518-0.033,0.693-0.033c0.913,0,1.664,0.126,2.253,0.38
		c0.589,0.253,1.051,0.572,1.387,0.957s0.569,0.803,0.701,1.254c0.132,0.452,0.198,0.87,0.198,1.255
		c0,0.353-0.041,0.668-0.124,0.949c-0.082,0.28-0.192,0.533-0.33,0.759s-0.294,0.427-0.47,0.603
		c-0.177,0.177-0.363,0.33-0.562,0.462v0.05h1.155v1.354h-11.554V55.832z M984.329,55.931c0.66,0,1.216-0.071,1.667-0.215
		c0.451-0.143,0.817-0.332,1.098-0.569c0.281-0.236,0.481-0.503,0.603-0.8c0.121-0.298,0.182-0.605,0.182-0.925
		c0-0.341-0.061-0.671-0.182-0.99s-0.318-0.6-0.594-0.842s-0.639-0.435-1.09-0.578c-0.451-0.143-1.001-0.214-1.65-0.214
		c-0.627,0-1.161,0.068-1.601,0.206c-0.44,0.138-0.801,0.322-1.081,0.553c-0.281,0.231-0.484,0.501-0.611,0.809
		c-0.126,0.309-0.189,0.633-0.189,0.975c0,0.352,0.065,0.685,0.198,0.998c0.132,0.313,0.335,0.589,0.61,0.825
		c0.275,0.237,0.633,0.424,1.073,0.562C983.201,55.862,983.725,55.931,984.329,55.931z"/>
	<path fill="#58595B" d="M977.018,47.397v-1.452h1.519v1.452H977.018z M980.187,45.945h8.385v1.452h-8.385V45.945z"/>
	<path fill="#58595B" d="M977.018,42.148h11.554v1.452h-11.554V42.148z"/>
	<path fill="#58595B" d="M977.018,39.805v-1.452h1.519v1.452H977.018z M980.187,38.353h8.385v1.452h-8.385V38.353z"/>
	<path fill="#58595B" d="M980.187,35.479h-2.509v-1.452h2.509v-1.783h1.023v1.783h5.331c0.154,0,0.3-0.003,0.438-0.009
		c0.138-0.005,0.262-0.032,0.371-0.082c0.11-0.05,0.195-0.135,0.256-0.256s0.091-0.297,0.091-0.528c0-0.154-0.014-0.308-0.041-0.462
		s-0.063-0.303-0.107-0.446h1.023c0.099,0.231,0.179,0.479,0.239,0.743s0.091,0.522,0.091,0.775c0,0.43-0.066,0.763-0.198,0.999
		s-0.3,0.407-0.503,0.512c-0.204,0.104-0.427,0.165-0.669,0.182s-0.473,0.024-0.693,0.024h-5.628v1.502h-1.023V35.479z"/>
	<path fill="#58595B" d="M990.535,30.413c0.033-0.218,0.056-0.376,0.066-0.475c0.011-0.098,0.017-0.18,0.017-0.245
		c0-0.208-0.039-0.383-0.115-0.524c-0.077-0.142-0.182-0.262-0.314-0.359c-0.132-0.099-0.283-0.178-0.453-0.237
		c-0.171-0.061-0.35-0.123-0.537-0.19l-0.627-0.198l-8.385,3.616v-1.733l6.784-2.68l-6.784-2.239v-1.452l9.375,3.334
		c0.198,0.066,0.421,0.144,0.669,0.231c0.247,0.088,0.479,0.212,0.693,0.371c0.214,0.159,0.396,0.366,0.544,0.619
		s0.223,0.577,0.223,0.974c0,0.231-0.005,0.448-0.016,0.652c-0.012,0.203-0.033,0.382-0.066,0.536H990.535z"/>
</g>
</svg>
