<?xml version="1.0" encoding="utf-8"?>
<!-- Generator: Adobe Illustrator 16.0.0, SVG Export Plug-In . SVG Version: 6.00 Build 0)  -->
<!DOCTYPE svg PUBLIC "-//W3C//DTD SVG 1.1//EN" "http://www.w3.org/Graphics/SVG/1.1/DTD/svg11.dtd">
<svg version="1.1" id="Layer_1" xmlns="http://www.w3.org/2000/svg" xmlns:xlink="http://www.w3.org/1999/xlink" x="0px" y="0px"
	 width="1030px" height="146px" viewBox="0 0 1030 146" style="enable-background:new 0 0 1030 146;" xml:space="preserve">
<style type="text/css">
<![CDATA[
	.st0{fill:#E0E0E0;}
	.st1{fill:#808080;}
	.st2{fill:none;stroke:#FFFFFF;stroke-width:1.459;stroke-miterlimit:10;}
	.st3{fill:none;stroke:#FFFFFF;stroke-width:1.0402;stroke-miterlimit:10;}
	.st4{fill:none;stroke:#FFFFFF;stroke-width:1.1659;stroke-miterlimit:10;}
	.st5{fill:#58595B;}
	.st6{fill:#5A5A5E;}
	.st7{fill:#FFFFFF;}
	.st8{fill:none;stroke:#B3B3B3;stroke-miterlimit:10;stroke-dasharray:4,4;}
]]>
</style>
<rect x="274.6" y="11.6" class="st0" width="659.3" height="129"/>
<line class="st8" x1="9.2" y1="3.6" x2="1024.9" y2="3.6"/>
<g>
	<g>
		<path class="st1" d="M10.5,29.3V15.8h3.3l3.6,9.5l3.6-9.5h3.3v13.5h-2.6v-8.8l-3.3,8.8h-1.9l-3.3-8.8v8.8H10.5z"/>
		<path class="st1" d="M26.6,29.3l5.2-13.5h2.8l5.2,13.5h-2.9l-1.2-3.3h-5.1l-1.2,3.3H26.6z M31.5,23.7h3.3l-1.7-4.5L31.5,23.7z"/>
		<path class="st1" d="M42.1,29.3V15.8h2.7l6,8.5v-8.5h2.7v13.5h-2.2l-6.4-9v9H42.1z"/>
		<path class="st1" d="M55.7,29.3l5.2-13.5h2.8l5.2,13.5h-2.9l-1.2-3.3h-5.1l-1.2,3.3H55.7z M60.5,23.7h3.3l-1.7-4.5L60.5,23.7z"/>
		<path class="st1" d="M69.8,22.6c0-1,0.2-2,0.5-2.8c0.3-0.9,0.8-1.6,1.3-2.2c0.6-0.6,1.3-1.1,2-1.4c0.8-0.3,1.6-0.5,2.6-0.5
			c1.6,0,2.9,0.4,3.9,1.2c1,0.8,1.6,1.9,1.9,3.3h-2.8c-0.3-0.7-0.6-1.2-1.1-1.5c-0.5-0.4-1.1-0.5-1.8-0.5c-1.1,0-2,0.4-2.6,1.2
			c-0.6,0.8-1,1.9-1,3.2c0,1.3,0.3,2.4,1,3.3c0.7,0.8,1.5,1.3,2.7,1.3c0.8,0,1.5-0.2,2.1-0.7c0.5-0.5,0.9-1.1,1-1.9h-2.6v-2.2h5.3
			v1.2c0,1.8-0.5,3.3-1.6,4.4c-1.1,1.1-2.5,1.7-4.2,1.7c-1.2,0-2.4-0.3-3.4-0.9c-1-0.6-1.8-1.4-2.3-2.5
			C70.1,25.1,69.8,23.9,69.8,22.6z"/>
		<path class="st1" d="M84.8,29.3V15.8H94v2.5h-6.4v3h5.8v2.4h-5.8v3.2H94v2.5H84.8z"/>
	</g>
</g>
<g>
	<g>
		<g>
			<rect x="375.8" y="37" class="st3" width="58.7" height="58.1"/>
			<line class="st4" x1="375.8" y1="64.7" x2="434.5" y2="64.7"/>
			<line class="st4" x1="416.2" y1="64.7" x2="416.2" y2="95.1"/>
			<rect x="381.6" y="44.7" class="st7" width="3.7" height="15.9"/>
			<rect x="387.9" y="42.5" class="st7" width="3.7" height="18.1"/>
			<rect x="394.2" y="50.6" class="st7" width="3.7" height="10"/>
			<rect x="400.5" y="47.2" class="st7" width="3.7" height="13.4"/>
			<rect x="406.8" y="44.7" class="st7" width="3.7" height="15.9"/>
			<rect x="413.1" y="50.6" class="st7" width="3.7" height="10"/>
			<rect x="419.4" y="54.6" class="st7" width="3.7" height="6"/>
			<rect x="425.7" y="53.1" class="st7" width="3.7" height="7.4"/>
			<rect x="420.1" y="68" class="st7" width="11.4" height="3.7"/>
			<rect x="420" y="74.8" class="st7" width="8.6" height="3.7"/>
			<rect x="420" y="80.6" class="st7" width="4.7" height="3.7"/>
			<rect x="420" y="86.2" class="st7" width="9.3" height="3.7"/>
			<path class="st7" d="M390.1,78.9l-5.9-3.9c2.6-3.4,6.6-5.6,11.1-6v7C393.3,76.4,391.5,77.4,390.1,78.9z"/>
			<path class="st7" d="M398.3,69.1v7c0.3,0,0.6,0.1,0.9,0.2l4.1-5.3l2,1.2l-2.5,6c0.3,0.3,0.6,0.5,0.8,0.8l5.9-3.9
				C406.8,71.7,402.8,69.4,398.3,69.1z"/>
			<path class="st7" d="M404.1,71.7L395.4,83c0,0-1.2,1.6,0.6,2.7c1.4,0.9,2.7-1.2,2.7-1.2L404.1,71.7z"/>
			<g>
				<path class="st7" d="M404.8,88.3l6.3,3c1-2,1.5-4.3,1.5-6.7c0-2.8-0.7-5.3-2-7.6l-5.9,3.9c0.5,1.1,0.8,2.4,0.8,3.7
					C405.7,85.9,405.4,87.1,404.8,88.3z"/>
				<path class="st7" d="M389.3,88.1c-0.5-1.1-0.8-2.3-0.8-3.6c0-1.3,0.3-2.4,0.8-3.5l-6-3.7c-1.1,2.2-1.8,4.6-1.8,7.3
					c0,2.3,0.5,4.5,1.4,6.5L389.3,88.1z"/>
			</g>
		</g>
		<g>
			<g>
				<path class="st6" d="M378.8,108.2L378.8,108.2v0.4v9.3h-1.6v-11.6h2.3l3.6,9.5l3.6-9.5h2.3v11.6h-1.6v-9.3l0-0.4h0l-3.7,9.7
					h-1.3L378.8,108.2z"/>
				<path class="st6" d="M391.2,113.7c0-0.6,0.1-1.1,0.2-1.7c0.1-0.5,0.4-1,0.7-1.4c0.3-0.4,0.8-0.8,1.3-1c0.5-0.3,1.2-0.4,1.9-0.4
					c0.8,0,1.4,0.1,1.9,0.4s1,0.6,1.3,1c0.3,0.4,0.6,0.9,0.7,1.4c0.1,0.5,0.2,1.1,0.2,1.7s-0.1,1.1-0.2,1.7c-0.1,0.5-0.4,1-0.7,1.4
					c-0.3,0.4-0.8,0.8-1.3,1c-0.5,0.3-1.2,0.4-1.9,0.4c-0.8,0-1.4-0.1-1.9-0.4c-0.5-0.3-1-0.6-1.3-1s-0.6-0.9-0.7-1.4
					C391.3,114.8,391.2,114.3,391.2,113.7z M392.8,113.7c0,0.8,0.1,1.5,0.3,2s0.5,0.8,0.7,1.1s0.6,0.4,0.9,0.4
					c0.3,0,0.5,0.1,0.7,0.1c0.2,0,0.4,0,0.7-0.1c0.3,0,0.6-0.2,0.9-0.4c0.3-0.2,0.5-0.6,0.7-1.1s0.3-1.1,0.3-2s-0.1-1.5-0.3-2
					s-0.5-0.8-0.7-1.1c-0.3-0.2-0.6-0.4-0.9-0.4c-0.3,0-0.5-0.1-0.7-0.1c-0.2,0-0.4,0-0.7,0.1c-0.3,0-0.6,0.2-0.9,0.4
					c-0.3,0.2-0.5,0.6-0.7,1.1S392.8,112.9,392.8,113.7z"/>
				<path class="st6" d="M402.8,109.5v1.2c0.3-0.4,0.7-0.8,1.2-1.1c0.5-0.3,1.1-0.4,1.7-0.4c0.6,0,1,0.1,1.4,0.3
					c0.4,0.2,0.6,0.4,0.8,0.7c0.2,0.3,0.3,0.6,0.4,1s0.1,0.8,0.1,1.2v5.6H407v-5.1c0-0.2,0-0.5,0-0.8c0-0.3-0.1-0.6-0.2-0.8
					c-0.1-0.3-0.3-0.5-0.5-0.7c-0.2-0.2-0.6-0.3-1-0.3c-0.2,0-0.4,0-0.7,0.1c-0.3,0.1-0.5,0.2-0.8,0.4c-0.3,0.2-0.5,0.5-0.6,0.9
					c-0.2,0.4-0.3,1-0.3,1.7v4.6h-1.5v-8.4H402.8z"/>
				<path class="st6" d="M410.8,106.3h1.5v1.5h-1.5V106.3z M412.3,109.5v8.4h-1.5v-8.4H412.3z"/>
				<path class="st6" d="M415.1,109.5V107h1.5v2.5h1.8v1h-1.8v5.3c0,0.2,0,0.3,0,0.4c0,0.1,0,0.3,0.1,0.4c0,0.1,0.1,0.2,0.3,0.3
					c0.1,0.1,0.3,0.1,0.5,0.1c0.2,0,0.3,0,0.5,0c0.2,0,0.3-0.1,0.4-0.1v1c-0.2,0.1-0.5,0.2-0.7,0.2s-0.5,0.1-0.8,0.1
					c-0.4,0-0.8-0.1-1-0.2c-0.2-0.1-0.4-0.3-0.5-0.5c-0.1-0.2-0.2-0.4-0.2-0.7c0-0.2,0-0.5,0-0.7v-5.6h-1.5v-1L415.1,109.5
					L415.1,109.5z"/>
				<path class="st6" d="M419.4,113.7c0-0.6,0.1-1.1,0.2-1.7c0.1-0.5,0.4-1,0.7-1.4c0.3-0.4,0.8-0.8,1.3-1c0.5-0.3,1.2-0.4,1.9-0.4
					c0.8,0,1.4,0.1,1.9,0.4c0.5,0.3,1,0.6,1.3,1s0.6,0.9,0.7,1.4c0.1,0.5,0.2,1.1,0.2,1.7s-0.1,1.1-0.2,1.7c-0.1,0.5-0.4,1-0.7,1.4
					s-0.8,0.8-1.3,1c-0.5,0.3-1.2,0.4-1.9,0.4c-0.8,0-1.4-0.1-1.9-0.4c-0.5-0.3-1-0.6-1.3-1c-0.3-0.4-0.6-0.9-0.7-1.4
					C419.5,114.8,419.4,114.3,419.4,113.7z M420.9,113.7c0,0.8,0.1,1.5,0.3,2c0.2,0.5,0.5,0.8,0.7,1.1c0.3,0.2,0.6,0.4,0.9,0.4
					c0.3,0,0.5,0.1,0.7,0.1c0.2,0,0.4,0,0.7-0.1c0.3,0,0.6-0.2,0.9-0.4c0.3-0.2,0.5-0.6,0.7-1.1s0.3-1.1,0.3-2s-0.1-1.5-0.3-2
					s-0.5-0.8-0.7-1.1c-0.3-0.2-0.6-0.4-0.9-0.4c-0.3,0-0.5-0.1-0.7-0.1c-0.2,0-0.4,0-0.7,0.1c-0.3,0-0.6,0.2-0.9,0.4
					c-0.3,0.2-0.5,0.6-0.7,1.1C421,112.2,420.9,112.9,420.9,113.7z"/>
				<path class="st6" d="M434.2,110.2c-0.5,0-0.9,0.1-1.3,0.2c-0.4,0.1-0.7,0.3-1,0.5c-0.3,0.2-0.5,0.5-0.6,0.9
					c-0.2,0.4-0.3,0.8-0.3,1.3c0,0.2,0,0.3,0,0.4s0,0.3,0,0.4v3.9h-1.5v-8.4h1.5v1.6h0c0.1-0.3,0.2-0.6,0.4-0.8
					c0.2-0.2,0.4-0.4,0.7-0.6c0.2-0.2,0.5-0.3,0.8-0.4c0.3-0.1,0.6-0.1,0.9-0.1l0.4,0L434.2,110.2L434.2,110.2z"/>
			</g>
		</g>
	</g>
	<g>
		<g>
			<path class="st7" d="M544,95.1c-1.2-2.2-3.5-3.6-6.2-3.6s-5,1.5-6.2,3.6H544z"/>
			<path class="st7" d="M570.9,37h-66.1c-2.6,0-4.6,2.1-4.6,4.6v43.2c0,2.6,2.1,4.6,4.6,4.6h66.1c2.6,0,4.6-2.1,4.6-4.6V41.6
				C575.5,39.1,573.4,37,570.9,37z M537.8,86.7c-1.2,0-2.1-0.9-2.1-2.1s0.9-2.1,2.1-2.1c1.2,0,2.1,0.9,2.1,2.1S539,86.7,537.8,86.7z
				 M572.6,78.4c0,0.9-0.8,1.7-1.7,1.7h-66.1c-0.9,0-1.7-0.8-1.7-1.7V41.6c0-0.9,0.8-1.7,1.7-1.7h66.1c0.9,0,1.7,0.8,1.7,1.7V78.4z"
				/>
			<polyline class="st2" points="513.7,63.2 522.9,51.5 532.5,69.7 544.5,52.5 553.1,68.3 563.2,54.9 			"/>
			<circle class="st7" cx="513.9" cy="63.1" r="2.5"/>
			<circle class="st7" cx="522.9" cy="51.5" r="2.5"/>
			<circle class="st7" cx="532.6" cy="69.7" r="2.5"/>
			<circle class="st7" cx="544.2" cy="52.5" r="2.5"/>
			<circle class="st7" cx="553.5" cy="68.6" r="2.5"/>
			<path class="st7" d="M565.7,55c0,1.4-1.1,2.5-2.5,2.5s-2.5-1.1-2.5-2.5c0-1.4,1.1-2.5,2.5-2.5S565.7,53.6,565.7,55z"/>
		</g>
		<g>
			<g>
				<path class="st6" d="M517.2,107.6v-1.3h9.1v1.3h-3.7v10.2H521v-10.2H517.2z"/>
				<path class="st6" d="M531.4,110.2c-0.5,0-0.9,0.1-1.3,0.2c-0.4,0.1-0.7,0.3-1,0.5c-0.3,0.2-0.5,0.5-0.6,0.9
					c-0.2,0.4-0.3,0.8-0.3,1.3c0,0.2,0,0.3,0,0.4s0,0.3,0,0.4v3.9h-1.5v-8.4h1.5v1.6h0c0.1-0.3,0.2-0.6,0.4-0.8s0.4-0.4,0.7-0.6
					c0.2-0.2,0.5-0.3,0.8-0.4c0.3-0.1,0.6-0.1,0.9-0.1l0.4,0V110.2z"/>
				<path class="st6" d="M531.9,112c0-0.3,0-0.6,0.1-0.9c0.1-0.3,0.3-0.6,0.5-0.9c0.3-0.3,0.6-0.5,1.1-0.7c0.5-0.2,1.1-0.3,1.8-0.3
					c0.3,0,0.7,0,1.1,0.1c0.4,0.1,0.8,0.2,1.1,0.4c0.3,0.2,0.6,0.5,0.8,0.8c0.2,0.4,0.3,0.9,0.3,1.5l-0.1,3.9c0,0.2,0,0.3,0,0.4
					c0,0.1,0,0.2,0.1,0.3c0.1,0.1,0.1,0.1,0.3,0.2c0.1,0,0.3,0.1,0.5,0.1v1c-0.1,0-0.2,0-0.3,0s-0.2,0-0.4,0c-0.2,0-0.4,0-0.6,0
					s-0.3-0.1-0.4-0.2c-0.1-0.1-0.2-0.2-0.3-0.4c-0.1-0.2-0.1-0.4-0.2-0.7c-0.1,0.3-0.3,0.5-0.5,0.7s-0.4,0.3-0.7,0.5
					c-0.3,0.1-0.5,0.2-0.8,0.3c-0.3,0.1-0.6,0.1-0.9,0.1c-0.9,0-1.6-0.2-2.1-0.6s-0.8-1-0.8-1.9c0-0.4,0.1-0.7,0.2-1
					c0.1-0.3,0.3-0.5,0.6-0.8c0.3-0.2,0.7-0.4,1.3-0.6c0.5-0.1,1.2-0.3,2.1-0.3c0.3,0,0.6,0,0.8-0.1c0.2,0,0.4-0.1,0.5-0.1
					c0.1-0.1,0.2-0.2,0.3-0.3c0.1-0.1,0.1-0.4,0.1-0.6c0-0.1,0-0.2,0-0.4c0-0.2-0.1-0.4-0.2-0.6s-0.3-0.3-0.6-0.5
					c-0.3-0.1-0.6-0.2-1.1-0.2c-0.1,0-0.3,0-0.6,0s-0.5,0.1-0.7,0.2s-0.5,0.3-0.6,0.5c-0.2,0.2-0.3,0.6-0.2,1L531.9,112L531.9,112z
					 M537.4,113.6c-0.1,0.1-0.2,0.2-0.3,0.2c-0.1,0-0.3,0.1-0.4,0.1c-0.1,0-0.3,0-0.5,0.1c-0.2,0-0.4,0-0.6,0.1
					c-0.3,0.1-0.6,0.1-0.9,0.2c-0.3,0-0.5,0.1-0.8,0.2c-0.2,0.1-0.4,0.3-0.5,0.5c-0.1,0.2-0.2,0.5-0.2,0.8c0,0.5,0.2,0.9,0.4,1.1
					c0.3,0.3,0.7,0.4,1.2,0.4c0.3,0,0.6,0,0.9-0.1s0.6-0.2,0.8-0.4c0.2-0.2,0.4-0.5,0.6-0.9s0.3-0.9,0.3-1.4L537.4,113.6z"/>
				<path class="st6" d="M548.6,114.9c0,0.3-0.1,0.6-0.2,0.9c-0.1,0.4-0.3,0.7-0.5,1.1c-0.3,0.4-0.6,0.7-1.1,0.9
					c-0.5,0.3-1.1,0.4-1.8,0.4c-0.1,0-0.3,0-0.6,0c-0.3,0-0.5-0.1-0.8-0.2c-0.3-0.1-0.6-0.2-0.9-0.4c-0.3-0.2-0.6-0.5-0.8-0.8
					c-0.3-0.3-0.5-0.8-0.6-1.3c-0.2-0.5-0.2-1.1-0.2-1.9c0-0.5,0.1-1,0.2-1.5c0.1-0.5,0.3-1,0.6-1.4s0.7-0.8,1.2-1.1
					c0.5-0.3,1.2-0.4,2-0.4c0.6,0,1.1,0.1,1.6,0.2c0.4,0.2,0.8,0.4,1.1,0.7c0.3,0.3,0.5,0.6,0.7,0.9c0.2,0.4,0.3,0.7,0.3,1.1h-1.4
					c-0.1-0.5-0.2-0.8-0.4-1.1c-0.2-0.3-0.4-0.5-0.6-0.6s-0.5-0.2-0.7-0.2c-0.2,0-0.4,0-0.5,0c-0.5,0-0.8,0.1-1.2,0.3
					c-0.3,0.2-0.6,0.4-0.8,0.7c-0.2,0.3-0.3,0.7-0.4,1.1c-0.1,0.4-0.1,0.9-0.1,1.3c0,0.5,0,0.9,0.1,1.4c0.1,0.4,0.2,0.8,0.5,1.1
					c0.2,0.3,0.5,0.6,0.8,0.8c0.3,0.2,0.7,0.3,1.2,0.3c0.4,0,0.8-0.1,1-0.2c0.3-0.2,0.5-0.3,0.7-0.6c0.2-0.2,0.3-0.5,0.4-0.7
					c0.1-0.3,0.1-0.5,0.1-0.8H548.6z"/>
				<path class="st6" d="M557.8,115.5c-0.1,0.3-0.2,0.6-0.3,0.9c-0.1,0.3-0.4,0.6-0.6,0.9c-0.3,0.3-0.6,0.5-1.1,0.7
					c-0.4,0.2-1,0.3-1.6,0.3c-0.7,0-1.3-0.1-1.8-0.3c-0.5-0.2-0.9-0.4-1.2-0.7c-0.3-0.3-0.6-0.6-0.7-1c-0.2-0.4-0.3-0.7-0.4-1
					c-0.1-0.3-0.1-0.6-0.1-0.9c0-0.3,0-0.5,0-0.6c0-0.2,0-0.4,0-0.7c0-0.3,0.1-0.6,0.2-1c0.1-0.3,0.2-0.7,0.4-1
					c0.2-0.3,0.4-0.6,0.7-0.9c0.3-0.3,0.7-0.5,1.1-0.7c0.5-0.2,1-0.3,1.7-0.3c0.8,0,1.5,0.1,2,0.4c0.5,0.3,0.9,0.7,1.2,1.1
					c0.3,0.4,0.5,0.9,0.5,1.4c0.1,0.5,0.1,1,0.2,1.5c0,0.1,0,0.1,0,0.2c0,0.1,0,0.1,0,0.2h-6.5c0,0.4,0,0.7,0.1,1.1
					c0.1,0.4,0.3,0.7,0.5,1c0.2,0.3,0.5,0.6,0.8,0.8c0.3,0.2,0.7,0.3,1.2,0.3c0.3,0,0.7,0,0.9-0.1c0.3-0.1,0.5-0.2,0.7-0.4
					c0.2-0.2,0.3-0.3,0.5-0.6c0.1-0.2,0.2-0.4,0.2-0.7L557.8,115.5L557.8,115.5z M556.4,113c0-0.3,0-0.6-0.1-0.9
					c-0.1-0.3-0.2-0.6-0.4-0.9c-0.2-0.3-0.4-0.5-0.7-0.7c-0.3-0.2-0.7-0.3-1.2-0.3c-0.5,0-1,0.1-1.3,0.3c-0.3,0.2-0.6,0.4-0.8,0.7
					s-0.3,0.6-0.4,0.9c-0.1,0.3-0.1,0.6-0.1,0.9L556.4,113L556.4,113z"/>
			</g>
		</g>
	</g>
	<g>
		<path class="st7" d="M689,49.8c-1,0.1-2,0.2-3.1,0.2c-7.6,0-14.3-3.5-18-8.6c-3.7,5.2-10.4,8.6-18,8.6c-1.1,0-2.1-0.1-3.1-0.2
			c-0.2,1.7-0.4,3.5-0.4,5.3c0,15.5,8.7,28.9,21.5,35.7c12.8-6.8,21.5-20.2,21.5-35.7C689.4,53.2,689.2,51.5,689,49.8z M666.2,75.7
			l-8.8-9.5l3.9-3.6l4.9,5.3l8.4-9.2l3.9,3.6L666.2,75.7z"/>
		<g>
			<g>
				<path class="st6" d="M643.4,114.2c0,0.4,0.1,0.7,0.2,1.1s0.4,0.6,0.6,0.9c0.3,0.2,0.6,0.4,1,0.6c0.4,0.1,0.9,0.2,1.4,0.2
					c0.5,0,1-0.1,1.3-0.2s0.6-0.3,0.9-0.5c0.2-0.2,0.4-0.4,0.5-0.7c0.1-0.3,0.2-0.5,0.2-0.8c0-0.4-0.1-0.6-0.2-0.9
					c-0.1-0.2-0.3-0.4-0.5-0.6c-0.2-0.1-0.5-0.3-0.8-0.4c-0.3-0.1-0.6-0.2-0.8-0.2c-0.7-0.1-1.3-0.3-1.9-0.4
					c-0.6-0.1-1.1-0.3-1.6-0.5c-0.5-0.2-0.8-0.5-1.1-0.9c-0.3-0.4-0.4-0.9-0.4-1.6c0-0.5,0.1-1,0.3-1.4s0.5-0.8,0.9-1
					c0.4-0.3,0.8-0.5,1.4-0.6c0.5-0.1,1.1-0.2,1.8-0.2c0.7,0,1.3,0.1,1.9,0.3c0.5,0.2,1,0.4,1.3,0.7c0.3,0.3,0.6,0.7,0.8,1.1
					c0.2,0.4,0.3,0.8,0.3,1.3h-1.6c-0.1-0.5-0.2-0.8-0.4-1.1c-0.2-0.3-0.5-0.5-0.8-0.6c-0.3-0.1-0.6-0.2-0.9-0.3s-0.5,0-0.7,0
					c-0.8,0-1.4,0.2-1.9,0.5c-0.5,0.3-0.7,0.8-0.7,1.4c0,0.4,0.1,0.6,0.2,0.8c0.2,0.2,0.4,0.4,0.6,0.5c0.3,0.1,0.6,0.2,0.9,0.3
					c0.3,0.1,0.7,0.2,1.1,0.2c0.5,0.1,1,0.2,1.6,0.3c0.5,0.1,1,0.3,1.4,0.6c0.4,0.3,0.8,0.6,1,1c0.3,0.4,0.4,1,0.4,1.7
					c0,0.6-0.1,1.1-0.3,1.5c-0.2,0.4-0.4,0.7-0.7,1c-0.3,0.3-0.6,0.5-1,0.6s-0.7,0.2-1,0.3c-0.3,0.1-0.6,0.1-0.9,0.1
					c-0.3,0-0.5,0-0.7,0c-0.4,0-0.9,0-1.4-0.1c-0.5-0.1-1-0.3-1.5-0.5c-0.5-0.3-0.9-0.7-1.2-1.2s-0.5-1.3-0.6-2.2L643.4,114.2
					L643.4,114.2z"/>
				<path class="st6" d="M660.5,115.5c-0.1,0.3-0.2,0.6-0.3,0.9c-0.1,0.3-0.4,0.6-0.6,0.9s-0.6,0.5-1.1,0.7c-0.4,0.2-1,0.3-1.6,0.3
					c-0.7,0-1.3-0.1-1.8-0.3c-0.5-0.2-0.9-0.4-1.2-0.7c-0.3-0.3-0.6-0.6-0.7-1c-0.2-0.4-0.3-0.7-0.4-1c-0.1-0.3-0.1-0.6-0.1-0.9
					c0-0.3,0-0.5,0-0.6c0-0.2,0-0.4,0-0.7c0-0.3,0.1-0.6,0.2-1c0.1-0.3,0.2-0.7,0.4-1c0.2-0.3,0.4-0.6,0.7-0.9
					c0.3-0.3,0.7-0.5,1.1-0.7c0.5-0.2,1-0.3,1.6-0.3c0.8,0,1.5,0.1,2,0.4c0.5,0.3,0.9,0.7,1.2,1.1c0.3,0.4,0.5,0.9,0.5,1.4
					s0.2,1,0.2,1.5c0,0.1,0,0.1,0,0.2c0,0.1,0,0.1,0,0.2h-6.5c0,0.4,0,0.7,0.1,1.1c0.1,0.4,0.3,0.7,0.5,1c0.2,0.3,0.5,0.6,0.8,0.8
					c0.3,0.2,0.7,0.3,1.2,0.3c0.3,0,0.6,0,0.9-0.1c0.3-0.1,0.5-0.2,0.7-0.4c0.2-0.2,0.3-0.3,0.5-0.6c0.1-0.2,0.2-0.4,0.2-0.7
					L660.5,115.5L660.5,115.5z M659.1,113c0-0.3,0-0.6-0.1-0.9c-0.1-0.3-0.2-0.6-0.4-0.9c-0.2-0.3-0.4-0.5-0.7-0.7
					c-0.3-0.2-0.7-0.3-1.2-0.3c-0.5,0-1,0.1-1.3,0.3c-0.3,0.2-0.6,0.4-0.8,0.7c-0.2,0.3-0.3,0.6-0.4,0.9c-0.1,0.3-0.1,0.6-0.1,0.9
					L659.1,113L659.1,113z"/>
				<path class="st6" d="M669.8,114.9c0,0.3-0.1,0.6-0.2,0.9c-0.1,0.4-0.3,0.7-0.5,1.1c-0.3,0.4-0.6,0.7-1.1,0.9
					c-0.5,0.3-1.1,0.4-1.8,0.4c-0.1,0-0.3,0-0.6,0c-0.3,0-0.5-0.1-0.8-0.2c-0.3-0.1-0.6-0.2-0.9-0.4c-0.3-0.2-0.6-0.5-0.8-0.8
					c-0.3-0.3-0.5-0.8-0.6-1.3c-0.2-0.5-0.2-1.1-0.2-1.9c0-0.5,0.1-1,0.2-1.5c0.1-0.5,0.3-1,0.6-1.4c0.3-0.4,0.7-0.8,1.2-1.1
					c0.5-0.3,1.2-0.4,2-0.4c0.6,0,1.1,0.1,1.6,0.2c0.4,0.2,0.8,0.4,1.1,0.7c0.3,0.3,0.5,0.6,0.7,0.9c0.2,0.4,0.3,0.7,0.3,1.1h-1.4
					c-0.1-0.5-0.2-0.8-0.4-1.1c-0.2-0.3-0.4-0.5-0.6-0.6c-0.2-0.1-0.5-0.2-0.7-0.2c-0.2,0-0.4,0-0.5,0c-0.5,0-0.8,0.1-1.2,0.3
					c-0.3,0.2-0.6,0.4-0.8,0.7s-0.3,0.7-0.4,1.1c-0.1,0.4-0.1,0.9-0.1,1.3c0,0.5,0,0.9,0.1,1.4c0.1,0.4,0.2,0.8,0.5,1.1
					c0.2,0.3,0.5,0.6,0.8,0.8c0.3,0.2,0.7,0.3,1.2,0.3c0.4,0,0.8-0.1,1-0.2c0.3-0.2,0.5-0.3,0.7-0.6c0.2-0.2,0.3-0.5,0.4-0.7
					c0.1-0.3,0.1-0.5,0.1-0.8H669.8z"/>
				<path class="st6" d="M677.2,117.9v-1.2h0c-0.2,0.4-0.5,0.6-0.8,0.9c-0.3,0.2-0.6,0.4-0.9,0.5c-0.3,0.1-0.5,0.2-0.8,0.2
					c-0.2,0-0.4,0-0.5,0c-0.6,0-1.1-0.1-1.5-0.3s-0.6-0.5-0.8-0.8c-0.2-0.3-0.3-0.7-0.4-1c-0.1-0.4-0.1-0.7-0.1-1v-5.6h1.5v5.1
					c0,0.5,0,1,0.1,1.3c0.1,0.3,0.2,0.6,0.4,0.8s0.3,0.3,0.6,0.4c0.2,0.1,0.5,0.1,0.7,0.1c0.6,0,1.1-0.1,1.4-0.4s0.6-0.6,0.7-0.9
					c0.1-0.4,0.2-0.7,0.3-1c0-0.3,0-0.6,0-0.7v-4.6h1.5v8.4L677.2,117.9L677.2,117.9z"/>
				<path class="st6" d="M685.7,110.2c-0.5,0-0.9,0.1-1.3,0.2c-0.4,0.1-0.7,0.3-1,0.5c-0.3,0.2-0.5,0.5-0.6,0.9
					c-0.2,0.4-0.3,0.8-0.3,1.3c0,0.2,0,0.3,0,0.4s0,0.3,0,0.4v3.9H681v-8.4h1.5v1.6h0c0.1-0.3,0.2-0.6,0.4-0.8s0.4-0.4,0.7-0.6
					c0.2-0.2,0.5-0.3,0.8-0.4c0.3-0.1,0.6-0.1,0.9-0.1l0.4,0V110.2z"/>
				<path class="st6" d="M693.9,115.5c-0.1,0.3-0.2,0.6-0.3,0.9c-0.1,0.3-0.4,0.6-0.6,0.9s-0.6,0.5-1.1,0.7c-0.4,0.2-1,0.3-1.6,0.3
					c-0.7,0-1.3-0.1-1.8-0.3c-0.5-0.2-0.9-0.4-1.2-0.7c-0.3-0.3-0.6-0.6-0.7-1c-0.2-0.4-0.3-0.7-0.4-1c-0.1-0.3-0.1-0.6-0.1-0.9
					c0-0.3,0-0.5,0-0.6c0-0.2,0-0.4,0-0.7c0-0.3,0.1-0.6,0.2-1c0.1-0.3,0.2-0.7,0.4-1c0.2-0.3,0.4-0.6,0.7-0.9
					c0.3-0.3,0.7-0.5,1.1-0.7c0.5-0.2,1-0.3,1.6-0.3c0.8,0,1.5,0.1,2,0.4c0.5,0.3,0.9,0.7,1.2,1.1c0.3,0.4,0.5,0.9,0.5,1.4
					c0.1,0.5,0.2,1,0.2,1.5c0,0.1,0,0.1,0,0.2c0,0.1,0,0.1,0,0.2h-6.5c0,0.4,0,0.7,0.1,1.1c0.1,0.4,0.3,0.7,0.5,1
					c0.2,0.3,0.5,0.6,0.8,0.8c0.3,0.2,0.7,0.3,1.2,0.3c0.3,0,0.6,0,0.9-0.1c0.3-0.1,0.5-0.2,0.7-0.4c0.2-0.2,0.3-0.3,0.5-0.6
					c0.1-0.2,0.2-0.4,0.2-0.7L693.9,115.5L693.9,115.5z M692.5,113c0-0.3,0-0.6-0.1-0.9s-0.2-0.6-0.4-0.9c-0.2-0.3-0.4-0.5-0.7-0.7
					c-0.3-0.2-0.7-0.3-1.2-0.3c-0.5,0-1,0.1-1.3,0.3c-0.3,0.2-0.6,0.4-0.8,0.7c-0.2,0.3-0.3,0.6-0.4,0.9s-0.1,0.6-0.1,0.9L692.5,113
					L692.5,113z"/>
			</g>
		</g>
	</g>
	<g>
		<path class="st7" d="M772.1,55.8h-4.3V89h-3.1V55.8h-4.3v-5.9h4.3v-6.8h3.1v6.8h4.3V55.8z M787.2,71.9h-4.3v17h-3.1v-17h-4.3v-5.9
			h4.3V43.1h3.1v22.9h4.3V71.9z M802.4,61.2H798V89h-3.1V61.2h-4.3v-5.9h4.3V43.1h3.1v12.2h4.3V61.2z M817.5,71.9h-4.3v17h-3.1v-17
			h-4.3v-5.9h4.3V43.1h3.1v22.9h4.3V71.9z M832.7,55.8h-4.3V89h-3.1V55.8h-4.3v-5.9h4.3v-6.8h3.1v6.8h4.3V55.8z"/>
		<g>
			<g>
				<path class="st6" d="M779.9,114.1c-0.1,0.4-0.2,0.9-0.3,1.4c-0.2,0.5-0.4,0.9-0.8,1.4c-0.4,0.4-0.9,0.8-1.5,1
					c-0.6,0.3-1.4,0.4-2.3,0.4c-0.9,0-1.6-0.1-2.3-0.4c-0.7-0.3-1.3-0.7-1.7-1.2c-0.5-0.5-0.8-1.1-1.1-1.9s-0.4-1.6-0.4-2.5
					c0-1,0.1-1.9,0.3-2.6c0.2-0.7,0.5-1.3,0.9-1.8s0.7-0.8,1.2-1.1c0.4-0.3,0.8-0.5,1.2-0.6c0.4-0.1,0.8-0.2,1.1-0.2s0.6,0,0.7,0
					c0.9,0,1.7,0.1,2.3,0.4c0.6,0.2,1.1,0.6,1.4,0.9c0.4,0.4,0.6,0.8,0.8,1.3c0.2,0.5,0.3,0.9,0.3,1.4h-1.6c0-0.2-0.1-0.5-0.2-0.8
					c-0.1-0.3-0.3-0.6-0.5-0.9c-0.2-0.3-0.6-0.5-1-0.7c-0.4-0.2-0.9-0.3-1.6-0.3c-0.7,0-1.3,0.1-1.8,0.4c-0.5,0.3-0.9,0.7-1.2,1.1
					c-0.3,0.5-0.5,1-0.6,1.6c-0.1,0.6-0.2,1.2-0.2,1.8c0,0.7,0.1,1.3,0.3,1.9c0.2,0.6,0.4,1.1,0.8,1.5c0.3,0.4,0.8,0.7,1.2,1
					c0.5,0.2,1,0.4,1.6,0.4c0.5,0,0.9-0.1,1.3-0.2c0.4-0.1,0.7-0.3,1-0.6c0.3-0.3,0.5-0.6,0.7-0.9s0.3-0.7,0.3-1.1H779.9
					L779.9,114.1z"/>
				<path class="st6" d="M781.3,113.7c0-0.6,0.1-1.1,0.2-1.7s0.4-1,0.7-1.4c0.3-0.4,0.8-0.8,1.3-1c0.5-0.3,1.2-0.4,1.9-0.4
					s1.4,0.1,1.9,0.4c0.5,0.3,1,0.6,1.3,1c0.3,0.4,0.6,0.9,0.7,1.4c0.1,0.5,0.2,1.1,0.2,1.7s-0.1,1.1-0.2,1.7s-0.4,1-0.7,1.4
					c-0.3,0.4-0.8,0.8-1.3,1c-0.5,0.3-1.2,0.4-1.9,0.4s-1.4-0.1-1.9-0.4c-0.5-0.3-1-0.6-1.3-1c-0.3-0.4-0.6-0.9-0.7-1.4
					C781.3,114.8,781.3,114.3,781.3,113.7z M782.8,113.7c0,0.8,0.1,1.5,0.3,2s0.5,0.8,0.7,1.1s0.6,0.4,0.9,0.4
					c0.3,0,0.5,0.1,0.7,0.1c0.2,0,0.4,0,0.7-0.1c0.3,0,0.6-0.2,0.9-0.4c0.3-0.2,0.5-0.6,0.7-1.1c0.2-0.5,0.3-1.1,0.3-2
					s-0.1-1.5-0.3-2c-0.2-0.5-0.5-0.8-0.7-1.1c-0.3-0.2-0.6-0.4-0.9-0.4c-0.3,0-0.5-0.1-0.7-0.1c-0.2,0-0.4,0-0.7,0.1
					c-0.3,0-0.6,0.2-0.9,0.4c-0.3,0.2-0.5,0.6-0.7,1.1S782.8,112.9,782.8,113.7z"/>
				<path class="st6" d="M792.9,109.5v1.2c0.3-0.4,0.7-0.8,1.2-1.1c0.5-0.3,1.1-0.4,1.7-0.4c0.5,0,1,0.1,1.4,0.3
					c0.4,0.2,0.6,0.4,0.8,0.7c0.2,0.3,0.3,0.6,0.4,1c0.1,0.4,0.1,0.8,0.1,1.2v5.6H797v-5.1c0-0.2,0-0.5,0-0.8c0-0.3-0.1-0.6-0.2-0.8
					c-0.1-0.3-0.3-0.5-0.5-0.7c-0.2-0.2-0.6-0.3-1-0.3c-0.2,0-0.4,0-0.7,0.1c-0.3,0.1-0.5,0.2-0.8,0.4c-0.3,0.2-0.5,0.5-0.6,0.9
					c-0.2,0.4-0.3,1-0.3,1.7v4.6h-1.5v-8.4H792.9z"/>
				<path class="st6" d="M801.4,109.5V107h1.5v2.5h1.8v1h-1.8v5.3c0,0.2,0,0.3,0,0.4c0,0.1,0,0.3,0.1,0.4c0,0.1,0.1,0.2,0.3,0.3
					c0.1,0.1,0.3,0.1,0.5,0.1c0.2,0,0.3,0,0.5,0c0.2,0,0.3-0.1,0.4-0.1v1c-0.2,0.1-0.5,0.2-0.7,0.2c-0.3,0.1-0.5,0.1-0.8,0.1
					c-0.4,0-0.8-0.1-1-0.2c-0.2-0.1-0.4-0.3-0.5-0.5s-0.2-0.4-0.2-0.7c0-0.2,0-0.5,0-0.7v-5.6h-1.5v-1L801.4,109.5L801.4,109.5z"/>
				<path class="st6" d="M810.8,110.2c-0.5,0-0.9,0.1-1.3,0.2c-0.4,0.1-0.7,0.3-1,0.5c-0.3,0.2-0.5,0.5-0.6,0.9s-0.3,0.8-0.3,1.3
					c0,0.2,0,0.3,0,0.4s0,0.3,0,0.4v3.9h-1.5v-8.4h1.5v1.6h0c0.1-0.3,0.2-0.6,0.4-0.8c0.2-0.2,0.4-0.4,0.7-0.6
					c0.2-0.2,0.5-0.3,0.8-0.4c0.3-0.1,0.6-0.1,0.9-0.1l0.4,0V110.2z"/>
				<path class="st6" d="M811.4,113.7c0-0.6,0.1-1.1,0.2-1.7s0.4-1,0.7-1.4c0.3-0.4,0.8-0.8,1.3-1c0.5-0.3,1.2-0.4,1.9-0.4
					s1.4,0.1,1.9,0.4c0.5,0.3,1,0.6,1.3,1c0.3,0.4,0.6,0.9,0.7,1.4c0.1,0.5,0.2,1.1,0.2,1.7s-0.1,1.1-0.2,1.7
					c-0.1,0.5-0.4,1-0.7,1.4c-0.3,0.4-0.8,0.8-1.3,1c-0.5,0.3-1.2,0.4-1.9,0.4s-1.4-0.1-1.9-0.4c-0.5-0.3-1-0.6-1.3-1
					c-0.3-0.4-0.6-0.9-0.7-1.4S811.4,114.3,811.4,113.7z M812.9,113.7c0,0.8,0.1,1.5,0.3,2s0.5,0.8,0.7,1.1s0.6,0.4,0.9,0.4
					c0.3,0,0.5,0.1,0.7,0.1s0.4,0,0.7-0.1c0.3,0,0.6-0.2,0.9-0.4c0.3-0.2,0.5-0.6,0.7-1.1c0.2-0.5,0.3-1.1,0.3-2s-0.1-1.5-0.3-2
					c-0.2-0.5-0.5-0.8-0.7-1.1c-0.3-0.2-0.6-0.4-0.9-0.4c-0.3,0-0.5-0.1-0.7-0.1s-0.4,0-0.7,0.1c-0.3,0-0.6,0.2-0.9,0.4
					c-0.3,0.2-0.5,0.6-0.7,1.1S812.9,112.9,812.9,113.7z"/>
				<path class="st6" d="M823,106.3v11.6h-1.5v-11.6H823z"/>
			</g>
		</g>
	</g>
</g>
<g>
	<path class="st5" d="M962.7,91.4c0.4,0.1,0.9,0.2,1.4,0.3c0.5,0.2,0.9,0.4,1.4,0.8c0.4,0.4,0.8,0.9,1,1.5c0.3,0.6,0.4,1.4,0.4,2.3
		c0,0.9-0.1,1.6-0.4,2.3s-0.7,1.3-1.2,1.7s-1.1,0.8-1.9,1.1c-0.7,0.3-1.6,0.4-2.5,0.4c-1,0-1.9-0.1-2.6-0.3s-1.3-0.5-1.8-0.9
		c-0.5-0.3-0.8-0.7-1.1-1.2c-0.3-0.4-0.5-0.8-0.6-1.2s-0.2-0.8-0.2-1.1s0-0.6,0-0.7c0-0.9,0.1-1.7,0.4-2.3c0.2-0.6,0.6-1.1,0.9-1.4
		c0.4-0.4,0.8-0.6,1.3-0.8c0.5-0.2,0.9-0.3,1.4-0.3v1.6c-0.2,0-0.5,0.1-0.8,0.2c-0.3,0.1-0.6,0.3-0.9,0.5c-0.3,0.2-0.5,0.6-0.7,1
		c-0.2,0.4-0.3,0.9-0.3,1.6c0,0.7,0.1,1.3,0.4,1.8c0.3,0.5,0.7,0.9,1.1,1.2c0.5,0.3,1,0.5,1.6,0.6c0.6,0.1,1.2,0.2,1.8,0.2
		c0.7,0,1.3-0.1,1.9-0.3c0.6-0.2,1.1-0.4,1.5-0.8c0.4-0.3,0.7-0.8,1-1.2c0.2-0.5,0.4-1,0.4-1.6c0-0.5-0.1-0.9-0.2-1.3
		c-0.1-0.4-0.3-0.7-0.6-1s-0.6-0.5-0.9-0.7s-0.7-0.3-1.1-0.3L962.7,91.4L962.7,91.4z"/>
	<path class="st5" d="M964.1,82.2c0.3,0.1,0.6,0.2,0.9,0.3c0.3,0.1,0.6,0.4,0.9,0.6c0.3,0.3,0.5,0.6,0.7,1.1c0.2,0.4,0.3,1,0.3,1.6
		c0,0.7-0.1,1.3-0.3,1.8c-0.2,0.5-0.4,0.9-0.7,1.2c-0.3,0.3-0.6,0.6-1,0.7s-0.7,0.3-1,0.4c-0.3,0.1-0.6,0.1-0.9,0.1
		c-0.3,0-0.5,0-0.6,0c-0.2,0-0.4,0-0.7,0c-0.3,0-0.6-0.1-1-0.2c-0.3-0.1-0.7-0.2-1-0.4c-0.3-0.2-0.6-0.4-0.9-0.7
		c-0.3-0.3-0.5-0.7-0.7-1.1c-0.2-0.5-0.3-1-0.3-1.7c0-0.8,0.1-1.5,0.4-2c0.3-0.5,0.7-0.9,1.1-1.2c0.4-0.3,0.9-0.5,1.4-0.5
		c0.5-0.1,1-0.2,1.5-0.2c0.1,0,0.1,0,0.2,0c0.1,0,0.1,0,0.2,0v6.5c0.4,0,0.7,0,1.1-0.1c0.4-0.1,0.7-0.3,1-0.5
		c0.3-0.2,0.6-0.5,0.8-0.8c0.2-0.3,0.3-0.7,0.3-1.2c0-0.3,0-0.6-0.1-0.9c-0.1-0.3-0.2-0.5-0.4-0.7c-0.2-0.2-0.3-0.3-0.6-0.5
		s-0.4-0.2-0.7-0.2L964.1,82.2L964.1,82.2z M961.7,83.6c-0.3,0-0.6,0-0.9,0.1c-0.3,0.1-0.6,0.2-0.9,0.4c-0.3,0.2-0.5,0.4-0.7,0.7
		c-0.2,0.3-0.3,0.7-0.3,1.2c0,0.5,0.1,1,0.3,1.3c0.2,0.3,0.4,0.6,0.7,0.8s0.6,0.3,0.9,0.4c0.3,0.1,0.6,0.1,0.9,0.1L961.7,83.6
		L961.7,83.6z"/>
	<path class="st5" d="M955,78.7h11.6v1.5H955V78.7z"/>
	<path class="st5" d="M955,74.9h11.6v1.5H955V74.9z"/>
	<path class="st5" d="M964.1,65.1c0.3,0.1,0.6,0.2,0.9,0.3c0.3,0.1,0.6,0.4,0.9,0.6c0.3,0.3,0.5,0.6,0.7,1.1c0.2,0.4,0.3,1,0.3,1.6
		c0,0.7-0.1,1.3-0.3,1.8c-0.2,0.5-0.4,0.9-0.7,1.2s-0.6,0.6-1,0.7c-0.4,0.2-0.7,0.3-1,0.4c-0.3,0.1-0.6,0.1-0.9,0.1
		c-0.3,0-0.5,0-0.6,0c-0.2,0-0.4,0-0.7,0c-0.3,0-0.6-0.1-1-0.2c-0.3-0.1-0.7-0.2-1-0.4c-0.3-0.2-0.6-0.4-0.9-0.7
		c-0.3-0.3-0.5-0.7-0.7-1.1c-0.2-0.5-0.3-1-0.3-1.6c0-0.8,0.1-1.5,0.4-2c0.3-0.5,0.7-0.9,1.1-1.2c0.4-0.3,0.9-0.5,1.4-0.5
		c0.5-0.1,1-0.2,1.5-0.2c0.1,0,0.1,0,0.2,0c0.1,0,0.1,0,0.2,0v6.5c0.4,0,0.7,0,1.1-0.1c0.4-0.1,0.7-0.3,1-0.5
		c0.3-0.2,0.6-0.5,0.8-0.8c0.2-0.3,0.3-0.7,0.3-1.2c0-0.3,0-0.6-0.1-0.9c-0.1-0.3-0.2-0.5-0.4-0.7c-0.2-0.2-0.3-0.3-0.6-0.5
		c-0.2-0.1-0.4-0.2-0.7-0.2L964.1,65.1L964.1,65.1z M961.7,66.6c-0.3,0-0.6,0-0.9,0.1c-0.3,0.1-0.6,0.2-0.9,0.4
		c-0.3,0.2-0.5,0.4-0.7,0.7c-0.2,0.3-0.3,0.7-0.3,1.2c0,0.5,0.1,1,0.3,1.3c0.2,0.3,0.4,0.6,0.7,0.8s0.6,0.3,0.9,0.4s0.6,0.1,0.9,0.1
		L961.7,66.6L961.7,66.6z"/>
	<path class="st5" d="M958.9,58.4c0,0.5,0.1,0.9,0.2,1.3c0.1,0.4,0.3,0.7,0.5,1c0.2,0.3,0.5,0.5,0.9,0.6c0.4,0.2,0.8,0.3,1.3,0.3
		c0.2,0,0.3,0,0.4,0c0.1,0,0.3,0,0.4,0h3.9v1.5h-8.4v-1.5h1.6v0c-0.3-0.1-0.6-0.2-0.8-0.4c-0.2-0.2-0.4-0.4-0.6-0.7
		c-0.2-0.2-0.3-0.5-0.4-0.8c-0.1-0.3-0.1-0.6-0.1-0.9l0-0.4H958.9z"/>
	<path class="st5" d="M968.5,56.3c0-0.2,0.1-0.4,0.1-0.5c0-0.1,0-0.2,0-0.2c0-0.2,0-0.4-0.1-0.5c-0.1-0.1-0.2-0.3-0.3-0.4
		c-0.1-0.1-0.3-0.2-0.5-0.2c-0.2-0.1-0.3-0.1-0.5-0.2l-0.6-0.2l-8.4,3.6V56l6.8-2.7l-6.8-2.2v-1.5l9.4,3.3c0.2,0.1,0.4,0.1,0.7,0.2
		c0.2,0.1,0.5,0.2,0.7,0.4s0.4,0.4,0.5,0.6s0.2,0.6,0.2,1c0,0.2,0,0.4,0,0.7c0,0.2,0,0.4-0.1,0.5L968.5,56.3L968.5,56.3z"/>
	<g>
		<path class="st5" d="M983.1,115.6c1.2,0,2.2,0.2,3.1,0.6c0.9,0.4,1.6,1,2,1.7c0.5,0.7,0.7,1.6,0.7,2.6c0,1-0.2,1.8-0.7,2.6
			c-0.5,0.7-1.1,1.3-2,1.7c-0.9,0.4-1.9,0.6-3,0.6h-0.9c-1.2,0-2.2-0.2-3.1-0.6c-0.9-0.4-1.6-1-2.1-1.7s-0.7-1.6-0.7-2.6
			c0-1,0.2-1.8,0.7-2.6c0.5-0.7,1.2-1.3,2-1.7s1.9-0.6,3.1-0.6H983.1z M982.4,117.2c-1.4,0-2.6,0.3-3.3,0.9s-1.2,1.4-1.2,2.4
			c0,1,0.4,1.8,1.2,2.4c0.8,0.6,1.8,0.9,3.2,0.9h0.9c1.4,0,2.5-0.3,3.3-0.9c0.8-0.6,1.2-1.4,1.2-2.4c0-1-0.4-1.8-1.1-2.4
			c-0.8-0.6-1.8-0.9-3.2-0.9H982.4z"/>
		<path class="st5" d="M984.4,105.7c1.4,0,2.5,0.3,3.3,1c0.8,0.6,1.3,1.5,1.3,2.6c0,1.1-0.4,2-1.2,2.7l1,0.1v1.4H976v-1.5h4.8
			c-0.8-0.6-1.2-1.5-1.2-2.6c0-1.1,0.4-2,1.2-2.6s2-0.9,3.4-0.9H984.4z M984.2,107.3c-1.1,0-1.9,0.2-2.4,0.6c-0.6,0.4-0.9,1-0.9,1.8
			c0,1,0.5,1.8,1.4,2.2h3.9c0.9-0.5,1.4-1.2,1.4-2.2c0-0.7-0.3-1.3-0.9-1.7C986.3,107.5,985.4,107.3,984.2,107.3z"/>
		<path class="st5" d="M986.4,98.5c-0.4,0-0.7,0.2-1,0.5c-0.2,0.3-0.4,0.9-0.6,1.6c-0.2,0.8-0.4,1.4-0.6,1.9c-0.2,0.5-0.5,0.8-0.8,1
			c-0.3,0.2-0.7,0.3-1.2,0.3c-0.7,0-1.4-0.3-1.9-0.9s-0.8-1.4-0.8-2.4c0-1,0.3-1.9,0.8-2.5c0.5-0.6,1.2-1,2-1v1.6
			c-0.4,0-0.8,0.2-1.1,0.5c-0.3,0.4-0.5,0.8-0.5,1.4c0,0.6,0.1,1,0.4,1.3c0.2,0.3,0.6,0.5,1,0.5c0.4,0,0.7-0.1,0.8-0.4
			c0.2-0.3,0.4-0.8,0.5-1.6c0.2-0.8,0.4-1.4,0.6-1.9c0.2-0.5,0.5-0.8,0.9-1.1c0.3-0.2,0.7-0.3,1.2-0.3c0.8,0,1.5,0.3,1.9,1
			s0.7,1.5,0.7,2.5c0,0.7-0.1,1.4-0.4,1.9c-0.3,0.6-0.6,1-1.1,1.3c-0.5,0.3-1,0.5-1.5,0.5v-1.5c0.5,0,0.9-0.2,1.2-0.6
			c0.3-0.4,0.5-0.9,0.5-1.5c0-0.6-0.1-1.1-0.4-1.4C987.1,98.7,986.8,98.5,986.4,98.5z"/>
		<path class="st5" d="M989,91.2c0,1.2-0.4,2.2-1.2,3s-1.9,1.2-3.2,1.2h-0.3c-0.9,0-1.7-0.2-2.4-0.5s-1.3-0.8-1.7-1.4
			s-0.6-1.3-0.6-2c0-1.2,0.4-2.1,1.2-2.7c0.8-0.7,1.9-1,3.3-1h0.6v6.1c0.9,0,1.6-0.3,2.2-0.8c0.5-0.5,0.8-1.1,0.8-1.9
			c0-0.5-0.1-1-0.3-1.4c-0.2-0.4-0.5-0.7-0.9-1l0.7-0.9C988.4,88.6,989,89.7,989,91.2z M980.9,91.4c0,0.6,0.2,1.1,0.7,1.6
			c0.5,0.4,1.1,0.7,1.9,0.8v-4.5h-0.1c-0.8,0-1.4,0.3-1.8,0.6C981.1,90.2,980.9,90.8,980.9,91.4z"/>
		<path class="st5" d="M981.2,81.5c0,0.2-0.1,0.5-0.1,0.8c0,1,0.4,1.7,1.3,2.1h6.4v1.5h-9v-1.5l1,0c-0.8-0.5-1.2-1.2-1.2-2.2
			c0-0.3,0-0.5,0.1-0.7H981.2z"/>
		<path class="st5" d="M986.7,77l-7-2.2v-1.6l9,3.2v1.2l-9,3.3v-1.6L986.7,77z"/>
		<path class="st5" d="M988.8,66.2c-0.2,0.1-0.5,0.2-1,0.2c0.7,0.7,1.1,1.6,1.1,2.6c0,0.9-0.3,1.6-0.8,2.2c-0.5,0.6-1.1,0.9-1.9,0.9
			c-0.9,0-1.7-0.4-2.2-1.1c-0.5-0.7-0.8-1.7-0.8-3v-1.5h-0.7c-0.5,0-1,0.2-1.3,0.5c-0.3,0.3-0.5,0.8-0.5,1.4c0,0.6,0.1,1,0.4,1.4
			c0.3,0.4,0.6,0.6,1,0.6v1.6c-0.5,0-0.9-0.2-1.3-0.5c-0.4-0.3-0.8-0.8-1-1.3c-0.2-0.5-0.4-1.2-0.4-1.8c0-1,0.3-1.9,0.8-2.5
			c0.5-0.6,1.2-0.9,2.2-0.9h4.2c0.8,0,1.5-0.1,2-0.3h0.1V66.2z M987.7,68.8c0-0.5-0.1-0.9-0.4-1.4c-0.3-0.4-0.6-0.7-1-0.9h-1.9v1.2
			c0,1.9,0.6,2.8,1.7,2.8c0.5,0,0.9-0.2,1.1-0.5C987.5,69.7,987.7,69.3,987.7,68.8z"/>
		<path class="st5" d="M984.4,54.8c1.4,0,2.5,0.3,3.3,1c0.8,0.6,1.3,1.5,1.3,2.6c0,1.1-0.4,2-1.2,2.7l1,0.1v1.4H976v-1.5h4.8
			c-0.8-0.6-1.2-1.5-1.2-2.6c0-1.1,0.4-2,1.2-2.6c0.8-0.6,2-0.9,3.4-0.9H984.4z M984.2,56.3c-1.1,0-1.9,0.2-2.4,0.6
			c-0.6,0.4-0.9,1-0.9,1.8c0,1,0.5,1.8,1.4,2.2h3.9c0.9-0.5,1.4-1.2,1.4-2.2c0-0.7-0.3-1.3-0.9-1.7S985.4,56.3,984.2,56.3z"/>
		<path class="st5" d="M977.4,52.8c-0.3,0-0.5-0.1-0.6-0.2s-0.3-0.4-0.3-0.7c0-0.3,0.1-0.5,0.3-0.7s0.4-0.2,0.6-0.2s0.5,0.1,0.6,0.2
			c0.2,0.2,0.3,0.4,0.3,0.7c0,0.3-0.1,0.5-0.3,0.7C977.8,52.8,977.6,52.8,977.4,52.8z M988.8,51.2v1.5h-9v-1.5H988.8z"/>
		<path class="st5" d="M988.8,47v1.5H976V47H988.8z"/>
		<path class="st5" d="M977.4,44.5c-0.3,0-0.5-0.1-0.6-0.2s-0.3-0.4-0.3-0.7c0-0.3,0.1-0.5,0.3-0.7s0.4-0.2,0.6-0.2s0.5,0.1,0.6,0.2
			c0.2,0.2,0.3,0.4,0.3,0.7c0,0.3-0.1,0.5-0.3,0.7C977.8,44.4,977.6,44.5,977.4,44.5z M988.8,42.9v1.5h-9v-1.5H988.8z"/>
		<path class="st5" d="M977.6,38.3h2.2v-1.7h1.2v1.7h5.6c0.4,0,0.6-0.1,0.8-0.2s0.3-0.4,0.3-0.8c0-0.2,0-0.4-0.1-0.7h1.2
			c0.1,0.4,0.2,0.8,0.2,1.2c0,0.7-0.2,1.2-0.6,1.6c-0.4,0.4-1,0.5-1.8,0.5H981v1.6h-1.2v-1.6h-2.2V38.3z"/>
		<path class="st5" d="M986.6,31.8l-6.8-2.1v-1.7l10.4,3.6c1.5,0.6,2.3,1.5,2.3,2.7l0,0.3l-0.1,0.6h-1.3l0-0.4
			c0-0.5-0.1-0.9-0.3-1.2c-0.2-0.3-0.6-0.5-1.2-0.7l-0.9-0.3l-8.9,3.2v-1.7L986.6,31.8z"/>
	</g>
</g>
</svg>
