<?xml version="1.0" encoding="utf-8"?>
<!-- Generator: Adobe Illustrator 16.0.0, SVG Export Plug-In . SVG Version: 6.00 Build 0)  -->
<!DOCTYPE svg PUBLIC "-//W3C//DTD SVG 1.1//EN" "http://www.w3.org/Graphics/SVG/1.1/DTD/svg11.dtd">
<svg version="1.1" id="Layer_1" xmlns="http://www.w3.org/2000/svg" xmlns:xlink="http://www.w3.org/1999/xlink" x="0px" y="0px"
	 width="1121px" height="379px" viewBox="0 0 1121 379" enable-background="new 0 0 1121 379" xml:space="preserve">
<line fill="none" x1="-92.114" y1="-99" x2="-91.114" y2="-99"/>
<rect x="320.085" y="72.818" fill="#F0F0F0" width="659.301" height="293.182"/>
<g>
	<path fill="#FFFFFF" d="M726.663,222.109v-66.768c0-2.475,1.408-5.934,3.133-7.686l52.02-52.904
		c1.723-1.747,5.125-3.183,7.562-3.183h73.568c2.434,0,5.836,1.436,7.557,3.183l52.021,52.904c1.723,1.752,3.133,5.211,3.133,7.686
		v74.818c0,2.484-1.41,5.938-3.133,7.691l-52.021,52.903c-1.721,1.751-5.123,3.183-7.557,3.183h-73.568
		c-2.438,0-5.84-1.432-7.562-3.183l-52.02-52.903c-0.432-0.438-0.843-0.982-1.217-1.592"/>
	<path fill="#FFFFFF" stroke="#58595B" stroke-width="0.8623" stroke-miterlimit="10" d="M889.008,271.937l-18.505,18.818
		c-1.721,1.751-5.123,3.183-7.557,3.183h-73.568c-2.438,0-5.84-1.432-7.562-3.183l-52.02-52.903
		c-0.432-0.438-0.843-0.982-1.217-1.592"/>
	<path fill="#FFFFFF" stroke="#58595B" stroke-width="0.8623" stroke-miterlimit="10" d="M726.663,222.109v-66.768
		c0-2.475,1.408-5.934,3.133-7.686l52.02-52.904c1.723-1.747,5.125-3.183,7.562-3.183h73.568c2.434,0,5.836,1.436,7.557,3.183
		l52.021,52.904c1.723,1.752,3.133,5.211,3.133,7.686v74.818c0,2.484-1.41,5.938-3.133,7.691l-22.416,22.797"/>
	<path fill="#FFFFFF" stroke="#43AB00" stroke-width="0.8623" stroke-miterlimit="10" d="M880.423,271.569l-14.393,14.637
		c-0.537,0.547-2.326,1.305-3.084,1.305h-73.568c-0.764,0-2.549-0.758-3.09-1.305l-49.674-50.517"/>
	<path fill="#FFFFFF" stroke="#43AB00" stroke-width="0.8623" stroke-miterlimit="10" d="M732.987,223.627v-68.285
		c0-0.773,0.738-2.59,1.277-3.137l52.023-52.908c0.541-0.542,2.326-1.295,3.09-1.295h73.568c0.758,0,2.547,0.753,3.084,1.295
		l52.025,52.908c0.541,0.547,1.275,2.363,1.275,3.137v74.818c0,0.778-0.734,2.594-1.275,3.14l-25.854,26.292"/>
	<polyline fill="none" stroke="#999999" stroke-width="0.8623" stroke-miterlimit="10" points="858.71,151.707 793.831,194.003 
		858.71,233.214 	"/>
	<g>
		<path fill="#FFFFFF" stroke="#5A5A5E" stroke-width="0.8623" stroke-miterlimit="10" d="M817.347,192.756
			c0,13.449-10.73,24.364-23.959,24.364c-13.23,0-23.959-10.915-23.959-24.364c0-13.461,10.729-24.364,23.959-24.364
			C806.616,168.392,817.347,179.295,817.347,192.756z"/>
		<g>
			<g>
				<path fill="#808080" d="M782.354,185.128c-0.518,0.292-0.521,0.773-0.006,1.07l10.547,6.097c0.515,0.297,1.349,0.283,1.853-0.03
					l9.697-6.036c0.504-0.313,0.501-0.822-0.007-1.13l-9.684-5.871c-0.508-0.308-1.348-0.322-1.865-0.03L782.354,185.128z"/>
				<path fill="none" stroke="#FFFFFF" stroke-width="0.8623" stroke-miterlimit="10" d="M782.354,185.128
					c-0.518,0.292-0.521,0.773-0.006,1.07l10.547,6.097c0.515,0.297,1.349,0.283,1.853-0.03l9.697-6.036
					c0.504-0.313,0.501-0.822-0.007-1.13l-9.684-5.871c-0.508-0.308-1.348-0.322-1.865-0.03L782.354,185.128z"/>
			</g>
			<g>
				<path fill="#808080" d="M805.362,187.908c0-0.594-0.413-0.823-0.917-0.51l-9.697,6.034c-0.504,0.313-1.338,0.327-1.853,0.03
					l-10.547-6.095c-0.515-0.297-0.936-0.054-0.936,0.54v9.307c0,0.594,0.399,1.356,0.889,1.694l10.641,7.36
					c0.489,0.338,1.279,0.325,1.758-0.027l9.793-7.237c0.479-0.353,0.869-1.128,0.869-1.722V187.908z"/>
				<path fill="none" stroke="#FFFFFF" stroke-width="0.8623" stroke-miterlimit="10" d="M805.362,187.908
					c0-0.594-0.413-0.823-0.917-0.51l-9.697,6.034c-0.504,0.313-1.338,0.327-1.853,0.03l-10.547-6.095
					c-0.515-0.297-0.936-0.054-0.936,0.54v9.307c0,0.594,0.399,1.356,0.889,1.694l10.641,7.36c0.489,0.338,1.279,0.325,1.758-0.027
					l9.793-7.237c0.479-0.353,0.869-1.128,0.869-1.722V187.908z"/>
			</g>
			<text transform="matrix(0.9833 0 0 1 791.5889 187.8701)" fill="#FFFFFF" font-family="'ArialMT'" font-size="6.5352">μ</text>
		</g>
	</g>
	<g>
		<path fill="#FFFFFF" stroke="#5A5A5E" stroke-width="0.8623" stroke-miterlimit="10" d="M888.251,151.631
			c0,13.449-10.729,24.361-23.959,24.361s-23.959-10.912-23.959-24.361c0-13.463,10.729-24.365,23.959-24.365
			S888.251,138.168,888.251,151.631z"/>
		<g>
			<g>
				<path fill="#808080" d="M853.259,144.004c-0.518,0.292-0.521,0.773-0.006,1.07l10.545,6.092c0.515,0.297,1.349,0.284,1.853-0.03
					l9.699-6.032c0.504-0.313,0.501-0.822-0.007-1.13l-9.686-5.871c-0.508-0.308-1.348-0.322-1.865-0.03L853.259,144.004z"/>
				<path fill="none" stroke="#FFFFFF" stroke-width="0.8623" stroke-miterlimit="10" d="M853.259,144.004
					c-0.518,0.292-0.521,0.773-0.006,1.07l10.545,6.092c0.515,0.297,1.349,0.284,1.853-0.03l9.699-6.032
					c0.504-0.313,0.501-0.822-0.007-1.13l-9.686-5.871c-0.508-0.308-1.348-0.322-1.865-0.03L853.259,144.004z"/>
			</g>
			<g>
				<path fill="#808080" d="M876.267,146.782c0-0.594-0.413-0.823-0.917-0.51l-9.699,6.033c-0.504,0.313-1.338,0.327-1.853,0.03
					l-10.545-6.093c-0.515-0.297-0.936-0.055-0.936,0.54v9.31c0,0.594,0.399,1.356,0.889,1.694l10.639,7.357
					c0.489,0.338,1.279,0.326,1.758-0.027l9.795-7.236c0.479-0.353,0.869-1.127,0.869-1.722V146.782z"/>
				<path fill="none" stroke="#FFFFFF" stroke-width="0.8623" stroke-miterlimit="10" d="M876.267,146.782
					c0-0.594-0.413-0.823-0.917-0.51l-9.699,6.033c-0.504,0.313-1.338,0.327-1.853,0.03l-10.545-6.093
					c-0.515-0.297-0.936-0.055-0.936,0.54v9.31c0,0.594,0.399,1.356,0.889,1.694l10.639,7.357c0.489,0.338,1.279,0.326,1.758-0.027
					l9.795-7.236c0.479-0.353,0.869-1.127,0.869-1.722V146.782z"/>
			</g>
			<text transform="matrix(0.9833 0 0 1 862.4932 146.7432)" fill="#FFFFFF" font-family="'ArialMT'" font-size="6.5352">μ</text>
		</g>
	</g>
	<g>
		<path fill="#FFFFFF" stroke="#5A5A5E" stroke-width="0.8623" stroke-miterlimit="10" d="M888.253,233.214
			c0,13.454-10.729,24.363-23.959,24.363c-13.232,0-23.959-10.909-23.959-24.363c0-13.462,10.727-24.364,23.959-24.364
			C877.524,208.85,888.253,219.752,888.253,233.214z"/>
		<g>
			<g>
				<path fill="#808080" d="M853.259,225.584c-0.518,0.291-0.521,0.772-0.006,1.07l10.547,6.098c0.515,0.298,1.348,0.284,1.853-0.03
					l9.695-6.037c0.505-0.314,0.501-0.823-0.007-1.131l-9.682-5.867c-0.508-0.308-1.348-0.321-1.865-0.03L853.259,225.584z"/>
				<path fill="none" stroke="#FFFFFF" stroke-width="0.8623" stroke-miterlimit="10" d="M853.259,225.584
					c-0.518,0.291-0.521,0.772-0.006,1.07l10.547,6.098c0.515,0.298,1.348,0.284,1.853-0.03l9.695-6.037
					c0.505-0.314,0.501-0.823-0.007-1.131l-9.682-5.867c-0.508-0.308-1.348-0.321-1.865-0.03L853.259,225.584z"/>
			</g>
			<g>
				<path fill="#808080" d="M876.265,228.366c0-0.594-0.412-0.823-0.917-0.509l-9.695,6.036c-0.505,0.314-1.338,0.328-1.853,0.03
					l-10.547-6.097c-0.515-0.298-0.936-0.055-0.936,0.539v9.312c0,0.594,0.399,1.356,0.889,1.694l10.641,7.36
					c0.489,0.338,1.279,0.325,1.757-0.028l9.793-7.241c0.478-0.354,0.868-1.129,0.868-1.723V228.366z"/>
				<path fill="none" stroke="#FFFFFF" stroke-width="0.8623" stroke-miterlimit="10" d="M876.265,228.366
					c0-0.594-0.412-0.823-0.917-0.509l-9.695,6.036c-0.505,0.314-1.338,0.328-1.853,0.03l-10.547-6.097
					c-0.515-0.298-0.936-0.055-0.936,0.539v9.312c0,0.594,0.399,1.356,0.889,1.694l10.641,7.36c0.489,0.338,1.279,0.325,1.757-0.028
					l9.793-7.241c0.478-0.354,0.868-1.129,0.868-1.723V228.366z"/>
			</g>
			<text transform="matrix(0.9833 0 0 1 862.4932 228.3242)" fill="#FFFFFF" font-family="'ArialMT'" font-size="6.5352">μ</text>
		</g>
	</g>
	
		<line fill="none" stroke="#999999" stroke-width="0.8623" stroke-miterlimit="10" x1="769.429" y1="192.756" x2="751.167" y2="192.756"/>
	<text transform="matrix(1 0 0 1 795.3213 116.376)" fill="#58595B" font-family="'Pragmatica'" font-size="13.7972">Logic Cell</text>
	<g>
		<g>
			<path fill="#FFFFFF" stroke="#5A5A5E" stroke-width="0.8623" stroke-miterlimit="10" d="M753.167,192.758
				c0,13.449-10.729,24.364-23.957,24.364c-13.23,0-23.959-10.915-23.959-24.364c0-13.461,10.729-24.366,23.959-24.366
				C742.438,168.392,753.167,179.297,753.167,192.758z"/>
			<g>
				<g>
					<g>
						<path fill="#808080" d="M725.802,190.272c0-0.712,0.582-1.294,1.294-1.294h10.879c0.712,0,1.294-0.582,1.294-1.294v-4.312
							c0-0.712-0.582-1.294-1.294-1.294h-10.879c-0.712,0-1.294-0.582-1.294-1.293v-2.344c0-0.711-0.411-0.882-0.914-0.379
							l-6.551,6.551c-0.503,0.503-0.503,1.327,0,1.83l6.551,6.551c0.503,0.503,0.914,0.333,0.914-0.379V190.272z"/>
					</g>
					<g>
						<path fill="#808080" d="M740.078,200.9c0.504-0.504,0.504-1.326,0-1.83l-6.549-6.55c-0.504-0.503-0.915-0.333-0.915,0.379
							v2.343c0,0.712-0.582,1.294-1.294,1.294h-10.879c-0.712,0-1.294,0.582-1.294,1.294v4.312c0,0.712,0.582,1.294,1.294,1.294
							h10.879c0.712,0,1.294,0.582,1.294,1.294v2.342c0,0.712,0.411,0.882,0.915,0.379L740.078,200.9z"/>
					</g>
				</g>
			</g>
		</g>
		<text transform="matrix(1 0 0 1 693.6123 233.3105)" fill="#58595B" font-family="'Pragmatica'" font-size="12">Cell Gateway</text>
	</g>
	<text transform="matrix(1 0 0 1 829.001 186.9365)" fill="#58595B" font-family="'Pragmatica'" font-size="12">Microservice</text>
	<text transform="matrix(1 0 0 1 829.0029 269.8057)" fill="#58595B" font-family="'Pragmatica'" font-size="12">Microservice</text>
</g>
<g>
	<path fill="#FFFFFF" stroke="#58595B" stroke-width="0.8623" stroke-miterlimit="10" d="M400.087,223.422v-68.081
		c0-2.474,1.408-5.934,3.133-7.685l52.021-52.904c1.723-1.747,5.123-3.183,7.561-3.183h73.569c2.434,0,5.836,1.436,7.557,3.183
		l52.021,52.904c1.725,1.751,3.133,5.211,3.133,7.685v74.819c0,2.484-1.408,5.938-3.133,7.691l-52.021,52.903
		c-1.721,1.751-5.123,3.182-7.557,3.182h-73.569c-2.438,0-5.838-1.431-7.561-3.182l-52.021-52.903
		c-0.799-0.811-1.529-1.986-2.083-3.262"/>
	<path fill="#FFFFFF" stroke="#43AB00" stroke-width="0.8623" stroke-miterlimit="10" d="M406.413,225.366v-70.025
		c0-0.772,0.738-2.587,1.275-3.135l52.023-52.909c0.541-0.542,2.327-1.294,3.089-1.294h73.569c0.758,0,2.549,0.752,3.086,1.294
		l52.023,52.909c0.541,0.548,1.275,2.362,1.275,3.135v74.819c0,0.778-0.734,2.594-1.275,3.14l-52.023,52.906
		c-0.537,0.547-2.328,1.303-3.086,1.303h-73.569c-0.762,0-2.548-0.756-3.089-1.303l-50.285-51.139"/>
	<g>
		<path fill="#FFFFFF" stroke="#5A5A5E" stroke-width="0.8623" stroke-miterlimit="10" d="M426.923,192.756
			c0,13.449-10.729,24.364-23.957,24.364c-13.231,0-23.96-10.915-23.96-24.364c0-13.461,10.729-24.366,23.96-24.366
			C416.193,168.39,426.923,179.295,426.923,192.756z"/>
		<g>
			<g>
				<g>
					<path fill="#808080" d="M399.558,190.271c0-0.712,0.582-1.294,1.293-1.294h10.88c0.711,0,1.293-0.582,1.293-1.294v-4.312
						c0-0.712-0.582-1.294-1.293-1.294h-10.88c-0.711,0-1.293-0.582-1.293-1.293v-2.344c0-0.711-0.412-0.882-0.915-0.379
						l-6.55,6.551c-0.503,0.503-0.503,1.327,0,1.83l6.55,6.551c0.503,0.503,0.915,0.333,0.915-0.379V190.271z"/>
				</g>
				<g>
					<path fill="#808080" d="M413.834,200.898c0.503-0.504,0.503-1.326,0-1.83l-6.55-6.55c-0.503-0.503-0.915-0.333-0.915,0.379
						v2.343c0,0.712-0.582,1.294-1.293,1.294h-10.88c-0.711,0-1.293,0.582-1.293,1.294v4.312c0,0.712,0.582,1.294,1.293,1.294h10.88
						c0.711,0,1.293,0.582,1.293,1.294v2.342c0,0.712,0.412,0.882,0.915,0.379L413.834,200.898z"/>
				</g>
			</g>
		</g>
	</g>
	<g>
		<path fill="#FFFFFF" stroke="#5A5A5E" stroke-width="0.8623" stroke-miterlimit="10" d="M523.544,192.756
			c0,13.449-10.73,24.364-23.959,24.364c-13.232,0-23.961-10.915-23.961-24.364c0-13.461,10.729-24.366,23.961-24.366
			C512.813,168.39,523.544,179.295,523.544,192.756z"/>
		<g>
			<path fill="#808080" d="M513.175,184.222c0,0.475-0.388,0.862-0.862,0.862h-25.457c-0.474,0-0.862-0.388-0.862-0.862v-4.398
				c0-0.474,0.388-0.862,0.862-0.862h25.457c0.474,0,0.862,0.388,0.862,0.862V184.222z"/>
		</g>
		<g>
			<path fill="#808080" d="M513.175,204.562c0,0.464-0.379,0.843-0.842,0.843h-25.497c-0.463,0-0.842-0.379-0.842-0.843v-17.251
				c0-0.464,0.379-0.843,0.842-0.843h25.497c0.463,0,0.842,0.379,0.842,0.843V204.562z"/>
		</g>
		<path fill="#FFFFFF" d="M511.198,182.025c0,0.45-0.365,0.818-0.818,0.818s-0.82-0.368-0.82-0.818c0-0.456,0.367-0.822,0.82-0.822
			S511.198,181.569,511.198,182.025z"/>
		<path fill="#FFFFFF" d="M508.495,182.025c0,0.45-0.367,0.818-0.82,0.818s-0.82-0.368-0.82-0.818c0-0.456,0.367-0.822,0.82-0.822
			S508.495,181.569,508.495,182.025z"/>
		<path fill="#FFFFFF" d="M505.788,182.025c0,0.45-0.367,0.818-0.819,0.818s-0.819-0.368-0.819-0.818
			c0-0.456,0.367-0.822,0.819-0.822S505.788,181.569,505.788,182.025z"/>
		
			<rect x="489.411" y="189.741" fill="none" stroke="#FFFFFF" stroke-width="0.8623" stroke-miterlimit="10" width="20.783" height="4.602"/>
		
			<rect x="500.931" y="197.367" fill="none" stroke="#FFFFFF" stroke-width="0.8623" stroke-miterlimit="10" width="9.264" height="4.601"/>
		
			<rect x="489.411" y="197.367" fill="none" stroke="#FFFFFF" stroke-width="0.8623" stroke-miterlimit="10" width="8.846" height="4.601"/>
	</g>
	
		<line fill="none" stroke="#999999" stroke-width="0.8623" stroke-miterlimit="10" x1="482.847" y1="192.756" x2="426.923" y2="192.756"/>
	<text transform="matrix(1 0 0 1 473.5615 116.376)" fill="#58595B" font-family="'Pragmatica'" font-size="13.7972">Web Cell</text>
	<text transform="matrix(1 0 0 1 475.5723 233.3086)" fill="#58595B" font-family="'Pragmatica'" font-size="12">Web App</text>
	<text transform="matrix(1 0 0 1 367.3672 233.3086)" fill="#58595B" font-family="'Pragmatica'" font-size="12">Cell Gateway</text>
</g>
<line fill="none" stroke="#999999" stroke-width="0.917" stroke-miterlimit="10" x1="379.006" y1="192.753" x2="292.575" y2="192.753"/>
<line fill="none" stroke="#999999" stroke-width="0.917" stroke-miterlimit="10" x1="523.544" y1="192.753" x2="703.251" y2="192.753"/>
<g>
	
		<rect x="205.663" y="162.225" fill="none" stroke="#58595B" stroke-width="0.917" stroke-miterlimit="10" width="76.949" height="56.023"/>
	
		<line fill="none" stroke="#58595B" stroke-width="0.917" stroke-miterlimit="10" x1="205.663" y1="170.727" x2="282.612" y2="170.727"/>
	<g>
		<g>
			<g>
				
					<line fill="none" stroke="#58595B" stroke-width="0.917" stroke-miterlimit="10" x1="252.553" y1="179.11" x2="275.937" y2="179.11"/>
				<g>
					<polygon fill="#58595B" points="271.987,183.985 271.174,183.112 275.479,179.111 271.174,175.109 271.987,174.236 
						277.229,179.111 					"/>
				</g>
			</g>
		</g>
		<g>
			<g>
				
					<line fill="none" stroke="#58595B" stroke-width="0.917" stroke-miterlimit="10" x1="235.72" y1="179.11" x2="212.337" y2="179.11"/>
				<g>
					<polygon fill="#58595B" points="216.287,174.235 217.1,175.108 212.794,179.109 217.1,183.111 216.287,183.984 
						211.044,179.109 					"/>
				</g>
			</g>
		</g>
	</g>
	<g>
		<circle fill="#FFFFFF" stroke="#58595B" stroke-width="0.917" stroke-miterlimit="10" cx="244.137" cy="205.938" r="23.503"/>
		<path fill="none" stroke="#58595B" stroke-width="0.917" stroke-miterlimit="10" d="M245.286,229.414
			c-8.336-4.088-14.123-13.062-14.123-23.478c0-10.417,5.791-19.393,14.131-23.478"/>
		<path fill="none" stroke="#58595B" stroke-width="0.917" stroke-miterlimit="10" d="M242.968,182.459
			c8.34,4.085,14.13,13.061,14.13,23.478c0,10.7-6.108,19.882-14.813,23.802"/>
		<path fill="none" stroke="#58595B" stroke-width="0.917" stroke-miterlimit="10" d="M258.977,187.714
			c-4.047,3.299-9.212,5.276-14.839,5.276c-5.629,0-10.795-1.979-14.842-5.278"/>
		<path fill="none" stroke="#58595B" stroke-width="0.917" stroke-miterlimit="10" d="M229.745,224.51
			c3.977-3.084,8.97-4.922,14.393-4.922c5.422,0,10.415,1.838,14.392,4.921"/>
		
			<line fill="none" stroke="#58595B" stroke-width="0.917" stroke-miterlimit="10" x1="267.64" y1="205.938" x2="220.634" y2="205.938"/>
		
			<line fill="none" stroke="#58595B" stroke-width="0.917" stroke-miterlimit="10" x1="244.405" y1="181.921" x2="244.405" y2="229.441"/>
	</g>
	<g>
		<circle fill="none" stroke="#58595B" stroke-width="0.917" stroke-miterlimit="10" cx="276.257" cy="166.736" r="1.24"/>
		<circle fill="none" stroke="#58595B" stroke-width="0.917" stroke-miterlimit="10" cx="271.948" cy="166.736" r="1.24"/>
		<circle fill="none" stroke="#58595B" stroke-width="0.917" stroke-miterlimit="10" cx="267.64" cy="166.736" r="1.24"/>
	</g>
</g>
<text transform="matrix(1 0 0 1 216.3784 251.9707)" fill="#58595B" font-family="'Pragmatica'" font-size="14.6717">Browser</text>
<text transform="matrix(1 0 0 1 54.7275 90.5811)" fill="#808080" font-family="'Calibre-Semibold'" font-size="22.0075">RUN</text>
<line fill="#FFFFFF" stroke="#B3B3B3" stroke-width="0.917" stroke-miterlimit="10" stroke-dasharray="4,4" x1="54.728" y1="64.675" x2="1070.407" y2="64.675"/>
<line fill="#FFFFFF" stroke="#B3B3B3" stroke-width="0.917" stroke-miterlimit="10" stroke-dasharray="4,4" x1="54.728" y1="374" x2="1070.407" y2="374"/>
<g>
	<g>
		
			<line fill="none" stroke="#58595B" stroke-width="0.917" stroke-miterlimit="10" stroke-dasharray="4.2292,4.2292" x1="779.243" y1="4.717" x2="572.726" y2="113.314"/>
		<g>
			<polygon fill="#58595B" points="571.781,108.645 566.901,116.377 576.038,116.738 			"/>
		</g>
	</g>
</g>
<g>
	<line fill="#FFFFFF" x1="825.733" y1="34.617" x2="825.733" y2="86.266"/>
	<g>
		
			<line fill="none" stroke="#58595B" stroke-width="0.917" stroke-miterlimit="10" stroke-dasharray="4.2292,4.2292" x1="825.733" y1="34.617" x2="825.733" y2="79.685"/>
		<g>
			<polygon fill="#58595B" points="821.161,78.347 825.733,86.266 830.306,78.347 			"/>
		</g>
	</g>
</g>
<rect x="696.282" y="18.269" fill="#F7F7F7" width="66.334" height="20.373"/>
<g>
	<text transform="matrix(1 0 0 1 716.7334 33.3369)" fill="#58595B" font-family="'Pragmatica'" font-size="14.6717">Pull</text>
</g>
<g>
	<g>
		<text transform="matrix(1 0 0 1 712.7285 348.793)" fill="#5A5A5E" font-family="'Pragmatica'" font-size="16.5056">Cellery</text>
	</g>
	<text transform="matrix(1 0 0 1 550.2173 348.793)" fill="#5A5A5E" font-family="'Pragmatica'" font-size="16.5056">Kubernetes</text>
	<g id="layer1_1_" transform="translate(-6.3260942,-174.7524)" inkscape:groupmode="layer" inkscape:label="Layer 1">
		<g id="g3052_1_">
			
				<path id="path3055_1_" inkscape:export-xdpi="250.55" inkscape:export-filename="new.png" inkscape:connector-curvature="0" inkscape:export-ydpi="250.55" fill="#326CE5" d="
				M600.317,470.896c-0.311,0.017-0.622,0.096-0.904,0.228l-12.305,5.883c-0.646,0.309-1.118,0.89-1.277,1.586l-3.033,13.208
				c-0.143,0.616-0.029,1.264,0.319,1.792c0.04,0.062,0.085,0.123,0.133,0.185l8.521,10.593c0.444,0.553,1.122,0.876,1.838,0.876
				l13.662-0.001c0.715,0,1.396-0.322,1.84-0.878l8.517-10.595c0.446-0.556,0.618-1.28,0.454-1.973l-3.04-13.214
				c-0.161-0.691-0.63-1.274-1.272-1.583l-12.307-5.879C601.101,470.956,600.711,470.877,600.317,470.896z"/>
			
				<path id="path3059_1_" inkscape:export-xdpi="250.55" inkscape:export-filename="./path3059.png" sodipodi:nodetypes="ccccccccsccccscssccsccccccccscccsccccccccccccccscccscsccsccccscscsccccccccscccscsccccsccccscscscccccccccccccccscccsccccccccccccscccccscccccccccccccccccccccccscccscccccccccscccscccc" inkscape:connector-curvature="0" inkscape:export-ydpi="250.55" fill="#FFFFFF" stroke="#FFFFFF" stroke-width="0.0126" d="
				M600.435,475.393c-0.404,0-0.734,0.365-0.734,0.817c0,0.007,0,0.014,0,0.021c0,0.061-0.002,0.138,0,0.188
				c0.011,0.264,0.066,0.462,0.103,0.703c0.062,0.511,0.113,0.938,0.084,1.335c-0.035,0.148-0.145,0.286-0.242,0.379l-0.019,0.315
				c-0.444,0.035-0.886,0.099-1.333,0.202c-1.912,0.438-3.561,1.424-4.812,2.75c-0.08-0.053-0.229-0.155-0.268-0.189
				c-0.133,0.018-0.264,0.059-0.438-0.041c-0.33-0.222-0.629-0.528-0.99-0.897c-0.166-0.175-0.291-0.347-0.486-0.514
				c-0.045-0.039-0.113-0.091-0.165-0.131c-0.153-0.122-0.339-0.188-0.513-0.195c-0.228-0.008-0.445,0.084-0.586,0.262
				c-0.256,0.317-0.17,0.805,0.178,1.084c0.006,0.003,0.008,0.009,0.015,0.011c0.048,0.037,0.108,0.089,0.151,0.123
				c0.211,0.154,0.402,0.231,0.613,0.357c0.439,0.271,0.805,0.496,1.095,0.77c0.11,0.118,0.127,0.333,0.147,0.423l0.236,0.214
				c-1.266,1.898-1.85,4.252-1.505,6.646l-0.31,0.088c-0.078,0.104-0.194,0.271-0.314,0.318c-0.375,0.122-0.803,0.163-1.32,0.219
				c-0.239,0.019-0.449,0.009-0.707,0.059c-0.057,0.006-0.133,0.031-0.195,0.043c-0.004,0-0.004,0-0.004,0
				c-0.006,0.005-0.014,0.005-0.015,0.005c-0.434,0.105-0.716,0.504-0.622,0.897c0.088,0.396,0.51,0.634,0.949,0.538
				c0-0.001,0.008-0.001,0.01-0.001c0.005-0.002,0.014-0.005,0.018-0.007c0.059-0.012,0.133-0.024,0.188-0.041
				c0.249-0.064,0.435-0.166,0.663-0.253c0.485-0.174,0.89-0.321,1.283-0.379c0.162-0.011,0.338,0.104,0.426,0.155l0.321-0.061
				c0.737,2.293,2.284,4.143,4.243,5.306l-0.134,0.321c0.052,0.123,0.099,0.295,0.065,0.419c-0.141,0.366-0.385,0.759-0.665,1.196
				c-0.133,0.203-0.274,0.359-0.396,0.588c-0.029,0.055-0.066,0.14-0.092,0.197c-0.19,0.406-0.052,0.875,0.309,1.047
				c0.367,0.179,0.825-0.01,1.021-0.414v-0.002v-0.003c0.028-0.058,0.067-0.13,0.09-0.185c0.106-0.242,0.139-0.447,0.214-0.676
				c0.194-0.488,0.305-1.005,0.57-1.322c0.072-0.092,0.192-0.123,0.319-0.157l0.164-0.3c1.711,0.654,3.624,0.83,5.537,0.396
				c0.434-0.099,0.854-0.228,1.265-0.381c0.046,0.084,0.134,0.242,0.155,0.284c0.125,0.042,0.266,0.061,0.375,0.228
				c0.201,0.343,0.341,0.749,0.511,1.24c0.07,0.23,0.105,0.435,0.212,0.676c0.026,0.054,0.062,0.131,0.089,0.187
				c0.199,0.41,0.655,0.594,1.019,0.417c0.364-0.175,0.503-0.641,0.314-1.045c-0.029-0.061-0.068-0.143-0.094-0.199
				c-0.122-0.232-0.263-0.387-0.398-0.587c-0.281-0.436-0.51-0.798-0.652-1.169c-0.062-0.192,0.015-0.312,0.056-0.436
				c-0.026-0.031-0.087-0.21-0.124-0.297c2.038-1.202,3.541-3.127,4.25-5.344c0.094,0.014,0.26,0.047,0.315,0.056
				c0.108-0.072,0.207-0.168,0.413-0.152c0.391,0.054,0.795,0.202,1.281,0.376c0.228,0.087,0.408,0.188,0.661,0.255
				c0.054,0.017,0.128,0.029,0.19,0.044c0.004,0.002,0.013,0.002,0.014,0.002c0.005,0,0.007,0,0.014,0
				c0.436,0.098,0.857-0.146,0.949-0.533c0.089-0.394-0.189-0.794-0.619-0.899c-0.067-0.015-0.156-0.04-0.219-0.048
				c-0.257-0.055-0.465-0.037-0.705-0.059c-0.518-0.057-0.945-0.098-1.324-0.22c-0.149-0.058-0.262-0.242-0.315-0.317l-0.296-0.091
				c0.15-1.115,0.113-2.272-0.156-3.438c-0.271-1.169-0.746-2.243-1.381-3.188c0.074-0.068,0.219-0.197,0.262-0.234
				c0.015-0.133,0-0.27,0.139-0.419c0.292-0.271,0.655-0.495,1.095-0.769c0.205-0.123,0.402-0.205,0.614-0.359
				c0.045-0.033,0.111-0.09,0.163-0.128c0.353-0.28,0.434-0.771,0.181-1.089c-0.256-0.318-0.746-0.349-1.1-0.062
				c-0.053,0.036-0.117,0.091-0.163,0.128c-0.199,0.17-0.321,0.338-0.489,0.513c-0.361,0.375-0.664,0.679-0.99,0.9
				c-0.146,0.081-0.355,0.053-0.453,0.048l-0.277,0.201c-1.597-1.677-3.771-2.746-6.114-2.956c-0.006-0.098-0.015-0.276-0.017-0.327
				c-0.098-0.094-0.209-0.172-0.24-0.369c-0.031-0.396,0.021-0.824,0.082-1.335c0.036-0.241,0.092-0.439,0.1-0.703
				c0.002-0.058,0-0.143,0-0.209C601.175,475.758,600.847,475.393,600.435,475.393z M599.517,481.108l-0.22,3.864l-0.017,0.005
				c-0.014,0.347-0.301,0.627-0.648,0.627c-0.141,0-0.276-0.047-0.38-0.127l-0.009,0.003l-3.17-2.244
				c0.975-0.96,2.221-1.667,3.66-1.993C598.991,481.182,599.253,481.138,599.517,481.108z M601.364,481.108
				c1.675,0.205,3.223,0.966,4.412,2.128l-3.148,2.233l-0.014-0.006c-0.277,0.202-0.67,0.153-0.889-0.121
				c-0.088-0.109-0.134-0.242-0.14-0.377h-0.009L601.364,481.108z M593.925,484.677l2.895,2.587l-0.002,0.016
				c0.258,0.228,0.299,0.621,0.078,0.895c-0.084,0.113-0.211,0.188-0.333,0.222l-0.003,0.016l-3.711,1.069
				C592.658,487.756,593.066,486.077,593.925,484.677z M606.929,484.677c0.434,0.7,0.755,1.477,0.949,2.32
				c0.191,0.835,0.241,1.665,0.164,2.469l-3.732-1.07v-0.018c-0.338-0.091-0.541-0.433-0.46-0.771
				c0.03-0.142,0.102-0.257,0.208-0.343l-0.004-0.01L606.929,484.677z M599.845,487.465h1.186l0.738,0.921l-0.268,1.148
				l-1.065,0.513l-1.063-0.516l-0.264-1.147L599.845,487.465z M603.646,490.615c0.05-0.002,0.101,0.002,0.147,0.013l0.006-0.006
				l3.834,0.646c-0.558,1.578-1.63,2.944-3.066,3.855l-1.49-3.592l0.002-0.009c-0.136-0.317,0-0.688,0.316-0.841
				C603.479,490.642,603.561,490.623,603.646,490.615L603.646,490.615z M597.203,490.633c0.292,0.002,0.554,0.207,0.622,0.505
				c0.035,0.141,0.019,0.276-0.037,0.399l0.012,0.012l-1.473,3.562c-1.376-0.883-2.475-2.208-3.061-3.831l3.799-0.646l0.007,0.007
				C597.116,490.635,597.161,490.633,597.203,490.633L597.203,490.633z M600.415,492.192c0.104-0.006,0.205,0.021,0.305,0.067
				c0.127,0.061,0.228,0.157,0.285,0.275h0.02l1.873,3.389c-0.244,0.078-0.492,0.151-0.748,0.209
				c-1.432,0.323-2.865,0.226-4.158-0.214l1.867-3.384h0.007C599.979,492.326,600.19,492.201,600.415,492.192z"/>
		</g>
	</g>
	<g>
		<g>
			<path fill="#43AB00" d="M751.578,321.62c-0.134-0.134-0.353-0.134-0.486,0l-3.326,3.325c-0.134,0.134-0.365,0.338-0.515,0.453
				c0,0-0.506,0.392-1.006,0.604c-0.531,0.226-1.238,0.322-1.238,0.322c-0.187,0.025-0.494,0.046-0.684,0.046h-6.781
				c-0.189,0-0.497-0.022-0.684-0.05c0,0-0.809-0.117-1.379-0.378c-0.443-0.207-0.867-0.542-0.867-0.542
				c-0.148-0.117-0.379-0.322-0.513-0.456l-4.795-4.794c-0.134-0.134-0.339-0.364-0.456-0.513c0,0-0.338-0.429-0.545-0.878
				c-0.26-0.567-0.378-1.368-0.378-1.368c-0.027-0.187-0.05-0.494-0.05-0.684v-6.782c0-0.189,0.021-0.497,0.045-0.685
				c0,0,0.09-0.671,0.305-1.188c0.215-0.52,0.627-1.056,0.627-1.056c0.115-0.149,0.318-0.382,0.452-0.516l4.795-4.794
				c0.134-0.134,0.365-0.339,0.514-0.455c0,0,0.472-0.369,0.95-0.578c0.547-0.241,1.295-0.347,1.295-0.347
				c0.187-0.026,0.494-0.048,0.684-0.048h6.781c0.189,0,0.497,0.021,0.685,0.045c0,0,0.671,0.09,1.187,0.303
				c0.52,0.216,1.056,0.628,1.056,0.628c0.149,0.115,0.382,0.318,0.516,0.452l3.062,3.062c0.134,0.134,0.353,0.134,0.486,0
				l1.457-1.456c0.134-0.134,0.134-0.353,0-0.486l-3.867-3.868c-0.134-0.134-0.366-0.338-0.516-0.452c0,0-0.536-0.413-1.054-0.627
				c-0.52-0.215-1.19-0.303-1.19-0.303c-0.188-0.024-0.495-0.045-0.685-0.045h-9.057c-0.189,0-0.497,0.021-0.685,0.045
				c0,0-0.671,0.088-1.188,0.303c-0.518,0.214-1.056,0.627-1.056,0.627c-0.149,0.115-0.382,0.318-0.516,0.452l-6.404,6.403
				c-0.134,0.134-0.339,0.365-0.455,0.514c0,0-0.351,0.448-0.56,0.909c-0.252,0.56-0.362,1.338-0.362,1.338
				c-0.026,0.187-0.048,0.494-0.048,0.684v9.057c0,0.189,0.02,0.497,0.044,0.685c0,0,0.087,0.671,0.304,1.188
				c0.213,0.518,0.625,1.056,0.625,1.056c0.115,0.149,0.318,0.382,0.452,0.516l6.404,6.403c0.134,0.134,0.365,0.339,0.514,0.455
				c0,0,0.478,0.373,0.962,0.582c0.545,0.24,1.285,0.343,1.285,0.343c0.187,0.025,0.494,0.047,0.684,0.047h9.057
				c0.189,0,0.497-0.02,0.685-0.044c0,0,0.647-0.084,1.157-0.291c0.529-0.215,1.086-0.641,1.086-0.641
				c0.15-0.114,0.383-0.317,0.517-0.451l4.131-4.13c0.134-0.134,0.134-0.353,0-0.486L751.578,321.62z"/>
		</g>
		<path fill="#464646" d="M746.454,316.571c-0.133-0.137-0.352-0.138-0.482-0.003c0,0-1.725,2.866-5.055,2.866
			c-3.404,0-6.176-2.861-6.176-6.378c0-3.518,2.771-6.381,6.176-6.381c3.588,0,5.055,2.865,5.055,2.865
			c0.131,0.136,0.35,0.136,0.482,0l1.971-2.039c0.133-0.137,0.125-0.352-0.016-0.479c0,0-2.482-3.856-7.492-3.856
			c-5.287,0-9.574,4.428-9.574,9.89c0,5.461,4.287,9.887,9.574,9.887c5.086,0,7.492-3.855,7.492-3.855
			c0.143-0.127,0.15-0.343,0.016-0.479L746.454,316.571z"/>
	</g>
	<g>
		<path fill="#3B6BB5" d="M666.288,321.012v-28.338c4.889,10.342,9.758,20.644,14.695,31.095
			C676.038,322.84,671.223,321.937,666.288,321.012"/>
		<path fill="#3B6BB5" d="M663.999,321.014c-2.627,0.855-5.225,1.704-8.039,2.617c2.705-6.365,5.326-12.536,7.945-18.71
			c0.031,0.005,0.062,0.012,0.094,0.02V321.014z"/>
		<path fill="#3B6BB5" d="M679.95,325.548c-5.577,1.497-10.996,2.954-16.43,4.414c-2.189-1.457-4.352-2.891-6.644-4.414H679.95z"/>
	</g>
	<g>
		<text transform="matrix(1 0 0 1 652.7588 348.793)" fill="#5A5A5E" font-family="'Pragmatica'" font-size="16.5056">Istio</text>
	</g>
</g>
<text transform="matrix(0 -1 1 0 1012.0713 268.752)" fill="#58595B" font-family="'Pragmatica'" font-size="16.5056">Cellery Mesh</text>
</svg>
