<?xml version="1.0" encoding="utf-8"?>
<!-- Generator: Adobe Illustrator 16.0.4, SVG Export Plug-In . SVG Version: 6.00 Build 0)  -->
<!DOCTYPE svg PUBLIC "-//W3C//DTD SVG 1.1//EN" "http://www.w3.org/Graphics/SVG/1.1/DTD/svg11.dtd">
<svg version="1.1" id="Layer_1" xmlns="http://www.w3.org/2000/svg" xmlns:xlink="http://www.w3.org/1999/xlink" x="0px" y="0px"
	 width="132px" height="136px" viewBox="0 0 132 136" enable-background="new 0 0 132 136" xml:space="preserve">
<g>
	<line fill="#FFFFFF" stroke="#69B26D" stroke-width="3" stroke-miterlimit="10" x1="53.585" y1="45.444" x2="34.053" y2="29.925"/>
	<line fill="#FFFFFF" stroke="#69B26D" stroke-width="3" stroke-miterlimit="10" x1="83.055" y1="47.386" x2="98.756" y2="35.043"/>
	<line fill="#FFFFFF" stroke="#69B26D" stroke-width="3" stroke-miterlimit="10" x1="81.147" y1="72.596" x2="98.756" y2="87.343"/>
	<line fill="#FFFFFF" stroke="#69B26D" stroke-width="3" stroke-miterlimit="10" x1="51.91" y1="70.892" x2="32.028" y2="87.343"/>
	
		<circle fill="none" stroke="#69B26D" stroke-width="3" stroke-miterlimit="10" stroke-dasharray="6,6" cx="66.868" cy="58.7" r="55.7"/>
	<path fill="#FFFFFF" stroke="#69B26D" stroke-width="3" stroke-miterlimit="10" d="M59.792,78.528
		c-0.157,0-0.524-0.155-0.637-0.267L48.447,67.369c-0.112-0.113-0.263-0.486-0.263-0.647V51.317c0-0.159,0.15-0.532,0.263-0.646
		l10.709-10.894c0.112-0.111,0.479-0.266,0.637-0.266h15.148c0.154,0,0.523,0.154,0.635,0.266l10.711,10.894
		c0.11,0.113,0.263,0.486,0.263,0.646v15.404c0,0.161-0.152,0.534-0.263,0.647L75.576,78.262c-0.111,0.111-0.48,0.267-0.635,0.267
		H59.792z"/>
	<path fill="#FFFFFF" stroke="#69B26D" stroke-width="3" stroke-miterlimit="10" d="M12.702,37.918
		c-0.136,0-0.455-0.135-0.553-0.232l-9.311-9.47c-0.097-0.098-0.229-0.422-0.229-0.562V14.262c0-0.138,0.132-0.464,0.229-0.562
		l9.311-9.469C12.247,4.135,12.566,4,12.702,4H25.87c0.136,0,0.457,0.135,0.554,0.231l9.311,9.469
		c0.097,0.098,0.229,0.424,0.229,0.562v13.393c0,0.14-0.132,0.464-0.229,0.562l-9.311,9.47c-0.097,0.098-0.418,0.232-0.554,0.232
		H12.702z"/>
	<path fill="#FFFFFF" stroke="#69B26D" stroke-width="3" stroke-miterlimit="10" d="M12.821,111.297
		c-0.123,0-0.414-0.124-0.503-0.212l-8.5-8.645c-0.087-0.09-0.208-0.386-0.208-0.513V89.703c0-0.125,0.121-0.423,0.208-0.512
		l8.5-8.645c0.089-0.087,0.38-0.21,0.503-0.21h12.021c0.124,0,0.417,0.123,0.505,0.21l8.499,8.645
		c0.088,0.089,0.208,0.387,0.208,0.512v12.225c0,0.127-0.12,0.423-0.208,0.513l-8.499,8.645c-0.088,0.088-0.381,0.212-0.505,0.212
		H12.821z"/>
	<path fill="#FFFFFF" stroke="#69B26D" stroke-width="3" stroke-miterlimit="10" d="M108.026,111.297
		c-0.125,0-0.419-0.123-0.508-0.213l-8.552-8.698c-0.09-0.091-0.21-0.388-0.21-0.516V89.569c0-0.127,0.12-0.425,0.21-0.515
		l8.552-8.699c0.089-0.088,0.383-0.211,0.508-0.211h12.095c0.125,0,0.419,0.123,0.507,0.211l8.553,8.699
		c0.088,0.09,0.21,0.388,0.21,0.515v12.301c0,0.128-0.122,0.425-0.21,0.516l-8.553,8.698c-0.088,0.09-0.382,0.213-0.507,0.213
		H108.026z"/>
	<path fill="#FFFFFF" stroke="#69B26D" stroke-width="3" stroke-miterlimit="10" d="M103.6,39.605c-0.149,0-0.503-0.15-0.611-0.259
		L92.666,28.849c-0.107-0.109-0.253-0.469-0.253-0.624V13.377c0-0.153,0.146-0.515,0.253-0.622l10.323-10.499
		C103.097,2.148,103.451,2,103.6,2h14.6c0.15,0,0.508,0.148,0.613,0.256l10.324,10.499c0.107,0.107,0.253,0.469,0.253,0.622v14.848
		c0,0.155-0.146,0.515-0.253,0.624l-10.324,10.498c-0.105,0.108-0.463,0.259-0.613,0.259H103.6z"/>
	<g>
		<path fill="#FFFFFF" stroke="#69B26D" stroke-width="3" stroke-miterlimit="10" d="M81.538,101.767
			c-6.01,0-11.258-2.715-14.172-6.768c-2.913,4.053-8.161,6.768-14.172,6.768c-0.831,0-1.641-0.068-2.439-0.168
			c-0.176,1.353-0.276,2.729-0.276,4.13c0,12.169,6.843,22.735,16.889,28.073c10.045-5.338,16.888-15.904,16.888-28.073
			c0-1.401-0.101-2.777-0.276-4.131C83.179,101.698,82.369,101.767,81.538,101.767z"/>
	</g>
	<circle fill="#FFFFFF" stroke="#69B26D" stroke-width="3.2993" stroke-miterlimit="10" cx="67.367" cy="114.019" r="9.079"/>
	<polyline fill="#FFFFFF" stroke="#69B26D" stroke-width="3" stroke-miterlimit="10" points="62.333,113.546 66.2,117.72 
		72.01,111.297 	"/>
</g>
</svg>
